<svg xmlns="http://www.w3.org/2000/svg" width="266.623" height="456" viewBox="0 0 266.623 456">
  <path id="volume-high-solid" d="M412.6,182a23.99,23.99,0,0,0-30.375,37.142C393.5,228.4,400,241.8,400,255.1a47.561,47.561,0,0,1-17.81,36.83,23.991,23.991,0,0,0,30.375,37.143C435.1,311.5,448,284.6,448,255.1S435.1,200.4,412.6,182Zm60.5-73.8a23.986,23.986,0,1,0-30.436,37.08A140.967,140.967,0,0,1,496,255.1c0,41.8-19.44,82.1-53.31,110.7a23.986,23.986,0,0,0,30.436,37.08A188.047,188.047,0,0,0,544,255.1C544,197.2,518.2,145,473.1,108.2Zm61.3-74.8a23.986,23.986,0,1,0-30.436,37.08C559.9,116.3,592,183.9,592,255.1a240.224,240.224,0,0,1-88.06,185.5,23.955,23.955,0,0,0-3.344,33.74A22.3,22.3,0,0,0,519.2,484a23.947,23.947,0,0,0,15.22-5.431C601.5,423.6,640,342.5,640,255.1S601.5,88.34,534.4,33.4Z" transform="translate(-373.377 -28)" fill="#4a40c3"/>
</svg>
