<?xml version="1.0" encoding="utf-8"?>
<!-- Generator: Adobe Illustrator 28.0.0, SVG Export Plug-In . SVG Version: 6.00 Build 0)  -->
<svg version="1.1" id="圖層_1" xmlns="http://www.w3.org/2000/svg" xmlns:xlink="http://www.w3.org/1999/xlink" x="0px" y="0px"
	 viewBox="0 0 28.7 28.7" style="enable-background:new 0 0 28.7 28.7;" xml:space="preserve">
<style type="text/css">
	.st0{fill:#63BA21;}
	.st1{fill:#FFFFFF;}
</style>
<g id="圖層_2_00000174594984621720637460000001521771167541564818_">
	<g id="圖層_1-2">
		<path class="st0" d="M28.7,14.3c0,7.9-6.4,14.3-14.3,14.3S0,22.3,0,14.3S6.4,0,14.3,0l0,0C22.3,0,28.7,6.4,28.7,14.3z"/>
		<path class="st1" d="M24.9,14.3c0,5.8-4.7,10.6-10.6,10.6S3.8,20.2,3.8,14.3S8.5,3.8,14.3,3.8S24.9,8.5,24.9,14.3L24.9,14.3z"/>
		<path class="st0" d="M19.3,14.3c0,2.7-2.2,4.9-4.9,4.9S9.5,17,9.5,14.3s2.2-4.9,4.9-4.9l0,0C17.1,9.4,19.3,11.6,19.3,14.3
			L19.3,14.3z"/>
	</g>
</g>
</svg>
