<?xml version="1.0" encoding="utf-8"?>
<!-- Generator: Adobe Illustrator 28.0.0, SVG Export Plug-In . SVG Version: 6.00 Build 0)  -->
<svg version="1.1" id="圖層_1" xmlns="http://www.w3.org/2000/svg" xmlns:xlink="http://www.w3.org/1999/xlink" x="0px" y="0px"
	 viewBox="0 0 47.1 47.1" style="enable-background:new 0 0 47.1 47.1;" xml:space="preserve">
<style type="text/css">
	.st0{fill:#63BA21;}
	.st1{fill:none;stroke:#FFFFFF;stroke-width:3;}
	.st2{fill:#FFFFFF;}
</style>
<g id="圖層_2_00000176042460179405610140000005685609747500285325_">
	<g id="圖層_1-2">
		<path class="st0" d="M45.6,23.5c0,12.2-9.8,22.1-22,22.1s-22.1-9.8-22.1-22s9.8-22.1,22-22.1h0.1C35.8,1.5,45.6,11.4,45.6,23.5z"
			/>
		<path class="st1" d="M45.6,23.5c0,12.2-9.8,22.1-22,22.1s-22.1-9.8-22.1-22s9.8-22.1,22-22.1h0.1C35.8,1.5,45.6,11.4,45.6,23.5z"
			/>
		<path class="st2" d="M40.4,19.2c-0.1-0.2-0.2-0.3-0.4-0.4l-0.1-0.1c-1-1.3-4.1-5.4-8.5-5.7c-2.6-0.2-5.2,0.9-7.7,3.2
			c-2.3-2.3-4.8-3.4-7.3-3.2c-3.1,0.2-6.3,2.2-9,5.8c-0.4,0.5-0.4,1.3,0,1.8c0.1,0.1,0.2,0.3,0.4,0.5c1.9,3,4.8,5.3,8.2,6.5V31
			c0,3.7,3.5,6.7,7.8,6.7s7.8-3,7.8-6.8v-3.4c5.4-1.9,7.1-4.8,8.1-6.4c0.2-0.3,0.3-0.5,0.5-0.7c0.1-0.2,0.2-0.4,0.3-0.7
			C40.5,19.7,40.5,19.4,40.4,19.2z M16.5,14.5c2.3-0.1,4.5,1,6.6,3.3l0.5,0.6l0.6-0.6c2.4-2.4,4.8-3.5,7.1-3.3
			c3.4,0.2,5.8,3.1,7,4.6c-3.4,1.1-8.8,1.7-14.6,1.7s-11.2-0.7-14.6-1.7C11.4,16.2,14,14.7,16.5,14.5z M9.5,20.9
			c2.1,0.6,4.3,0.9,6.4,1.2v4C13.3,25,11,23.2,9.5,20.9L9.5,20.9z M23.7,36.3c-3.4,0-6.2-2.3-6.2-5.2v-8.9c1.7,0.1,3.6,0.2,5.5,0.2
			v4.7c0,0.4,0.3,0.8,0.8,0.8c0.4,0,0.8-0.3,0.8-0.8v-4.7c1.9,0,3.7-0.1,5.5-0.2v8.9C29.9,34,27.1,36.3,23.7,36.3L23.7,36.3z
			 M31.5,26.1v-4c2.2-0.2,4.4-0.6,6.5-1.2C36.5,23.3,34.2,25.2,31.5,26.1L31.5,26.1z"/>
	</g>
</g>
</svg>
