<?xml version="1.0" encoding="utf-8"?>
<!-- Generator: Adobe Illustrator 28.0.0, SVG Export Plug-In . SVG Version: 6.00 Build 0)  -->
<svg version="1.1" id="圖層_1" xmlns="http://www.w3.org/2000/svg" xmlns:xlink="http://www.w3.org/1999/xlink" x="0px" y="0px"
	 viewBox="0 0 47.1 47.1" style="enable-background:new 0 0 47.1 47.1;" xml:space="preserve">
<style type="text/css">
	.st0{fill:#DD5616;}
	.st1{fill:none;stroke:#FFFFFF;stroke-width:3;}
	.st2{fill:#FFFFFF;}
</style>
<g id="圖層_2_00000024692227771430646220000002322564465391356037_">
	<g id="圖層_1-2">
		<circle class="st0" cx="23.5" cy="23.5" r="22"/>
		<circle class="st1" cx="23.5" cy="23.5" r="22"/>
		<path class="st2" d="M38.6,29.5c0.2-0.6,0-1.3-0.4-1.8c-1.4-1.5-2.8-3-4.4-4.4c0.7-0.1,1.4-0.5,1.8-1.1l0.1-0.1
			c1.1-1.3,1-3.3-0.4-4.5l0,0l-7-6c-1.3-1.1-3.3-1-4.5,0.4l-0.1,0.1c-0.5,0.6-0.8,1.5-0.7,2.3l0,0l-0.9-0.7c-1-0.7-1.9-1.4-2.8-2
			L16,16.2l0.3,0.3l1.5,1.2h-3c-1.7,0-3,1.4-3,3.1c0,0.3,0,0.7,0.2,1c0.1,0.2,0.2,0.5,0.4,0.7l0.1,0.1c0,0,0,0,0,0.1s0,0.1-0.1,0.1
			c-0.1,0.1-0.1,0.1-0.2,0.1c-0.9,0.5-1.5,1.5-1.4,2.6c0,0.8,0.2,1.5,0.8,2.1c0.2,0.2,0.4,0.3,0.6,0.5l0.3,0.1l0.2,0.1l-0.1,0.2
			l-0.2,0.2c-0.3,0.5-0.4,1-0.4,1.5c0,0.8,0.3,1.5,0.9,2.1c0.5,0.5,1.2,0.8,2,0.9c0,0.2-0.1,0.3-0.2,0.5c-0.2,0.4-0.3,0.9-0.3,1.3
			c0,0.8,0.3,1.5,0.9,2.1c0.6,0.5,1.3,0.8,2.1,0.8H28c0.9,0,1.7-0.4,2.3-1c0.5-0.5,0.8-1.3,0.8-2s-0.4-1.4-0.9-1.9
			c-0.1-0.1-0.2-0.2-0.4-0.3c0.8-0.5,1.2-1.4,1.2-2.4c0-0.8-0.3-1.5-0.9-2.1c-0.1-0.1-0.2-0.2-0.4-0.3c0.3-0.2,0.5-0.4,0.7-0.6
			c1.8,1.3,3.8,2.4,5.8,3.4c0.3,0.1,0.5,0.2,0.8,0.2c0.4,0,0.8-0.1,1.1-0.4l0.8,0.6l0.7-0.9L38.6,29.5z M30.6,21.5L30.6,21.5
			c0,0.1-0.1,0.2-0.1,0.2c0,0.1-0.1,0.1-0.1,0.2l0,0L30.2,22L30,22.2l0,0c-0.3,0.2-0.6,0.3-1,0.3h-8.9v1.2h5.2c1.3,1,2.7,1.9,4,2.8
			c-0.4,0.4-0.9,0.7-1.4,0.6h-7.7v1.2h7.7c0.5,0,0.9,0.3,1.3,0.6c0.3,0.3,0.5,0.8,0.5,1.3c0,0.9-0.8,1.7-1.7,1.7c0,0,0,0-0.1,0h-7.7
			V33h7.7c0.5,0.1,0.9,0.3,1.3,0.6c0.3,0.3,0.5,0.7,0.5,1.2c0,0.4-0.1,0.9-0.4,1.2c-0.4,0.4-0.9,0.6-1.5,0.6H17.1
			c-0.5,0-0.9-0.1-1.3-0.4c-0.5-0.5-0.7-1.3-0.3-2c0.3-0.5,0.4-1,0.2-1.5c-0.1-0.3-0.4-0.6-0.8-0.7h-0.2c-0.5,0-0.9-0.2-1.3-0.5
			c-0.3-0.3-0.5-0.8-0.5-1.3c0-0.3,0.1-0.6,0.2-0.9l0.1-0.1c0.2-0.3,0.9-0.9,0.4-1.5c-0.2-0.3-0.5-0.5-0.8-0.6L12.7,27
			c-0.1-0.1-0.3-0.2-0.4-0.3c-0.3-0.4-0.4-0.8-0.4-1.3c0-0.6,0.3-1.2,0.9-1.6c0.2-0.1,0.4-0.3,0.6-0.5c0.2-0.2,0.2-0.5,0.2-0.8
			c0-0.2,0-0.3-0.1-0.5c-0.1-0.1-0.1-0.3-0.2-0.4c-0.1-0.1-0.2-0.3-0.2-0.4C13,21.1,13,20.9,13,20.7c0-1,0.8-1.8,1.8-1.9H29
			c0.5,0.1,0.9,0.3,1.3,0.6c0.3,0.3,0.5,0.8,0.5,1.3C30.8,21,30.7,21.2,30.6,21.5L30.6,21.5z M32.2,21.9l-0.4-0.3v-0.1l0,0
			c0.1-0.2,0.1-0.5,0.1-0.8c0-0.8-0.3-1.5-0.9-2.1c-0.5-0.6-1.3-1-2.1-1H27l-2-1.8c-0.8-0.7-0.9-2-0.2-2.8l0.1-0.1
			c0.7-0.8,2-0.9,2.8-0.2l7,6c0.8,0.7,0.9,1.9,0.2,2.8l-0.1,0.1C34.1,22.3,33.1,22.4,32.2,21.9L32.2,21.9z"/>
		<path class="st2" d="M18.4,11.3c-0.9-0.6-1.8-1.2-2.6-1.7C14.9,9.1,13.7,9.3,13,10c-0.5,0.4-0.7,1-0.7,1.6c0,0.7,0.2,1.3,0.7,1.7
			c0.7,0.7,1.4,1.4,2.2,2L18.4,11.3z"/>
	</g>
</g>
</svg>
