<?xml version="1.0" encoding="utf-8"?>
<!-- Generator: Adobe Illustrator 25.4.6, SVG Export Plug-In . SVG Version: 6.00 Build 0)  -->
<svg version="1.1" id="圖層_1" xmlns="http://www.w3.org/2000/svg" xmlns:xlink="http://www.w3.org/1999/xlink" x="0px" y="0px"
	 viewBox="0 0 230.9 52.5" style="enable-background:new 0 0 230.9 52.5;" xml:space="preserve">
<style type="text/css">
	.st0{fill:#434699;}
	.st1{fill:#4C4948;}
</style>
<g>
	<g>
		<g>
			<path class="st0" d="M61.9,16.8H61V4.6c0-0.2,0.1-0.3,0.3-0.3h11.1c0.2,0,0.3,0.1,0.3,0.3v12.1h-0.9v-1.3h-9.9V16.8z M71.8,14.5
				V5.4c0-0.1,0-0.1-0.1-0.1h-9.6c-0.1,0-0.1,0-0.1,0.1v9.1H71.8z"/>
			<path class="st0" d="M85.3,5.9v0.8h-4.5V5.9H85.3z M81.9,16.8H81v-4.7c0-0.2,0.1-0.3,0.3-0.3h3.5c0.2,0,0.3,0.1,0.3,0.3v3.1
				c0,0.2-0.1,0.3-0.3,0.3h-2.9V16.8z M84.8,4v0.8h-3.5V4H84.8z M84.8,7.9v0.8h-3.5V7.9H84.8z M84.8,10v0.8h-3.5V10H84.8z M84,14.8
				c0.1,0,0.2-0.1,0.2-0.2v-1.7c0-0.1,0-0.1-0.1-0.1h-2c-0.1,0-0.1,0-0.1,0.1v1.9H84z M87.9,4.9c-0.6,1.1-1.3,2-2,2.5l-0.7-0.6
				c0.8-0.7,1.5-1.5,1.9-2.4L87.9,4.9z M88.9,11.5v1.1c0,0.4-0.1,0.8-0.2,1.2c-0.3,1.3-1.3,2.3-2.8,3.1l-0.5-0.7
				c0.5-0.2,0.9-0.4,1.2-0.6c1-0.7,1.4-1.7,1.4-2.9v-1.1h-1.4c-0.1,0-0.1,0-0.1-0.1V7.3c0-0.1,0-0.1,0.1-0.1h6c0.1,0,0.1,0,0.1,0.1
				v4.1c0,0.1,0,0.1-0.1,0.1h-1.4v4c0,0.1,0,0.2,0.1,0.3c0.1,0.1,0.2,0.1,0.3,0.1h0.8c0.1,0,0.2,0,0.3-0.1c0.1-0.1,0.2-0.8,0.3-2.1
				l0.8,0.1c-0.1,1.6-0.2,2.4-0.4,2.6c-0.2,0.2-0.4,0.3-0.6,0.3h-1.6c-0.2,0-0.4-0.1-0.6-0.3c-0.2-0.2-0.2-0.4-0.2-0.6v-4.5H88.9z
				 M87.5,8C87.5,8,87.4,8.1,87.5,8l0,2.6c0,0,0,0,0,0h4.5c0,0,0.1,0,0.1-0.1V8.1c0,0,0,0-0.1,0H87.5z M91.9,4c0.1,0,0.2,0,0.2,0.1
				c0.6,1.3,1.3,2.3,2.1,2.9l-0.7,0.5c-0.7-0.6-1.3-1.5-1.8-2.6c0,0-0.1-0.1-0.1-0.1h-3.3V4H91.9z"/>
			<path class="st0" d="M101.7,7.6c0.7,0.4,1.4,0.9,2.2,1.6l-0.5,0.7c-0.9-0.7-1.6-1.3-2.2-1.6L101.7,7.6z M104,11.4
				c-0.4,1.5-1,3.3-2,5.3l-0.8-0.4c1-2.1,1.7-3.8,2-5.2L104,11.4z M102,4c0.6,0.4,1.3,0.9,2.1,1.6l-0.5,0.7c-0.8-0.8-1.5-1.3-2-1.6
				L102,4z M106.4,14.7c-0.7,1-1.5,1.8-2.4,2.3l-0.4-0.7c0.8-0.4,1.5-1.1,2.1-2.1L106.4,14.7z M104.9,13.7c-0.1,0-0.1,0-0.1-0.1V4.1
				c0-0.1,0-0.1,0.1-0.1h4.4c0.1,0,0.1,0,0.1,0.1v9.4c0,0.1,0,0.1-0.1,0.1H104.9z M108.6,7V4.9c0,0,0,0-0.1,0h-2.8c0,0,0,0,0,0V7
				H108.6z M108.6,9.8v-2h-2.9v2H108.6z M105.7,10.7v2.1c0,0,0,0,0,0h2.8c0,0,0.1,0,0.1-0.1v-2.1H105.7z M108.3,14.2
				c0.9,0.9,1.6,1.6,2,2.2l-0.7,0.5c-0.6-0.8-1.3-1.5-2-2.1L108.3,14.2z M111.7,4.7v8.8h-0.8V4.7H111.7z M114,3.7v12.1
				c0,0.4-0.2,0.7-0.4,0.9c-0.4,0.2-1.1,0.2-2.3-0.1l0-0.9c0.8,0.3,1.4,0.4,1.6,0.3c0.1,0,0.1-0.1,0.2-0.2c0-0.1,0-0.1,0-0.2V3.7
				H114z"/>
			<path class="st0" d="M122.9,11.7c0.1,1.2,0,2.7-0.3,4.4l-0.8-0.1c0.3-1.8,0.4-3.3,0.3-4.3H122.9z M122.3,4c0-0.1,0.1-0.2,0.2-0.2
				h4.6v0.8h-1.7V6h1.6v0.8h-1.6V8h1.6v0.8h-1.6v1.2h1.8c0.1,0,0.2,0.1,0.2,0.2c0,2.3,0,3.8-0.1,4.7c-0.1,0.7-0.3,1.3-0.7,1.7
				c-0.3,0.3-1,0.3-2,0.2l-0.1-0.9c0.8,0.1,1.2,0.1,1.4,0c0.3-0.3,0.5-0.7,0.6-1.1c0.1-0.6,0.2-1.9,0.1-3.9c0,0,0,0-0.1,0h-4
				c-0.1,0-0.1-0.1-0.1-0.2v-0.3V4z M124.5,4.7h-1.3c-0.1,0-0.1,0-0.1,0.1V6h1.4V4.7z M124.5,6.8h-1.4V8h1.4V6.8z M124.5,10.1V8.8
				h-1.4v1.2H124.5z M123.9,11.7c0.3,1.6,0.4,2.9,0.5,4h-0.8c0-1.3-0.2-2.6-0.5-3.9L123.9,11.7z M125,11.7c0.3,1.4,0.5,2.5,0.6,3.1
				l-0.7,0.1c-0.1-1.1-0.3-2.1-0.6-3L125,11.7z M125.8,11.4c0.3,0.8,0.5,1.5,0.7,2.2l-0.7,0.1c-0.1-0.7-0.4-1.4-0.7-2.1L125.8,11.4z
				 M127.7,16.9l-0.7-0.5c1-0.9,1.6-2.1,2-3.4l0.8,0.2c-0.1,0.4-0.2,0.7-0.3,0.9c0.5,0.4,1,0.9,1.4,1.3l-0.6,0.6
				c-0.3-0.4-0.7-0.8-1.1-1.2C128.8,15.6,128.3,16.3,127.7,16.9z M127.8,7.1l-0.6-0.7c0.9-0.5,1.7-1,2.2-1.4c0.6-0.5,1.1-1,1.5-1.5
				h0.5c1.1,1.1,2.4,2,3.9,2.7L134.8,7c-1.6-0.9-2.8-1.8-3.6-2.6C130.3,5.5,129.1,6.4,127.8,7.1z M128.2,12.2c-0.1,0-0.1,0-0.1-0.1
				V8.5c0-0.1,0-0.1,0.1-0.1h2.7c0.1,0,0.1,0,0.1,0.1v3.6c0,0.1,0,0.1-0.1,0.1H128.2z M128.9,9.2C128.9,9.2,128.9,9.3,128.9,9.2
				l0,2.1c0,0,0,0,0,0h1.1c0,0,0.1,0,0.1-0.1v-2c0,0,0,0-0.1,0H128.9z M133.4,6.6v0.8h-4.2V6.6H133.4z M131.4,16.9l-0.7-0.5
				c0.9-0.9,1.6-2.1,1.8-3.4l0.8,0.2c-0.1,0.5-0.2,0.8-0.3,1.1c0.7,0.6,1.4,1.3,2,2l-0.6,0.6c-0.5-0.6-1-1.2-1.7-1.9
				C132.3,15.8,131.9,16.4,131.4,16.9z M132,12.2c-0.1,0-0.1,0-0.1-0.1V8.5c0-0.1,0-0.1,0.1-0.1h2.7c0.1,0,0.1,0,0.1,0.1V12
				c0,0.1,0,0.1-0.1,0.1H132z M132.7,9.2C132.7,9.2,132.7,9.3,132.7,9.2l0,2c0,0,0,0,0,0h1.2c0,0,0.1,0,0.1-0.1v-2c0,0,0,0-0.1,0
				H132.7z"/>
			<path class="st0" d="M142.6,11.7l-0.2-0.8l5.4-0.2c1.4-1.4,2.6-2.9,3.8-4.7l0.7,0.5c-0.8,1.1-1.8,2.5-3.3,4.1l4.8-0.2
				c-0.5-0.7-1-1.3-1.4-1.7l0.6-0.6c1,1,2,2.3,3,4l-0.7,0.4c-0.3-0.5-0.6-1-0.9-1.4l-4.9,0.2v5.4h-0.8v-5.4L142.6,11.7z M146.3,13
				c-0.7,1.1-1.7,2.4-3.2,3.8l-0.6-0.6c0.9-0.8,1.5-1.5,1.9-2c0.3-0.4,0.7-0.9,1.1-1.6L146.3,13z M147.6,5.3c-1.5,0.1-3,0.1-4.5,0.1
				l-0.2-0.9c5,0,8.7-0.3,11.3-1l0.2,0.9c-1.3,0.3-2.7,0.5-4.3,0.7c-0.5,0-1,0.1-1.5,0.1c-0.5,0.8-1.2,1.8-2.2,3
				c0.4,0.2,0.8,0.5,1.2,0.8l-0.4,0.7c-1.2-1-2.5-1.7-3.7-2.3l0.3-0.8c0.3,0,0.9,0.4,2,1.1C146.4,7.1,147,6.2,147.6,5.3z
				 M152.3,12.5c1,1,2,2.2,3,3.9l-0.7,0.5c-1.1-1.7-2.1-2.9-2.9-3.7L152.3,12.5z"/>
			<path class="st0" d="M164.5,11.8c-0.4,2.1-0.7,3.6-1,4.4l-0.8-0.2c0.4-1.4,0.8-2.9,1-4.4L164.5,11.8z M163,10.9l-0.2-0.8l0.4-0.1
				c0.5-0.5,1-1.1,1.6-1.8c-0.7-0.6-1.3-1.2-2-1.5l0.4-0.7c0.1,0,0.2,0.1,0.4,0.3c0.5-0.8,0.9-1.6,1.4-2.6l0.7,0.4
				c-0.3,0.7-0.8,1.5-1.5,2.6c0.3,0.2,0.7,0.6,1.1,0.9c0.6-0.8,1-1.6,1.3-2.4l0.8,0.3c-0.5,1.4-1.5,2.9-3,4.4l2.7-0.4
				c-0.2-0.5-0.4-0.9-0.6-1.4l0.8-0.3c0.6,1.3,1,2.4,1.2,3.2l-0.8,0.2c-0.1-0.3-0.2-0.6-0.3-0.9l-1.5,0.2v6.4h-0.8v-6.3L163,10.9z
				 M168.4,14.8l-0.8,0.2l-1-3.2l0.8-0.3L168.4,14.8z M171.3,10v1.6c0,2.4-1,4.1-3,5.3l-0.6-0.6c0.5-0.2,0.9-0.5,1.2-0.9
				c1-0.9,1.5-2.2,1.5-3.8v-1.5l-1.7,0.2l-0.3-0.8l1-0.1c0.7-1.1,1.3-2.3,1.8-3.6h-3V4.9h3.4V3.7h0.8v1.2h3.5v0.8h-3.9
				c-0.4,0.9-0.9,2.1-1.7,3.5l4.2-0.5c0-0.1-0.1-0.1-0.1-0.1c-0.4-0.7-0.7-1.2-0.8-1.4l0.7-0.4c0.9,1.5,1.4,2.6,1.7,3.3l-0.8,0.3
				c-0.2-0.3-0.3-0.6-0.5-1l-1.3,0.2v6.1c0,0.1,0.1,0.2,0.2,0.2h1c0.1,0,0.1,0,0.2-0.1c0.1-0.1,0.1-0.7,0.1-1.7l0.8,0.3
				c0,0.8-0.1,1.4-0.2,1.7c-0.1,0.2-0.1,0.4-0.3,0.5c-0.2,0.1-0.3,0.2-0.5,0.2h-1.8c-0.3,0-0.4-0.1-0.4-0.4V9.7L171.3,10z"/>
		</g>
	</g>
	<g>
		<path class="st1" d="M46.4,38.3l3.4-0.3c0.2,1.1,0.6,2,1.2,2.5c0.6,0.5,1.5,0.8,2.5,0.8c1.1,0,2-0.2,2.5-0.7
			c0.6-0.5,0.8-1,0.8-1.7c0-0.4-0.1-0.8-0.4-1c-0.2-0.3-0.7-0.5-1.3-0.7c-0.4-0.1-1.3-0.4-2.8-0.8c-1.9-0.5-3.2-1-3.9-1.7
			c-1.1-0.9-1.6-2.1-1.6-3.5c0-0.9,0.2-1.7,0.7-2.5c0.5-0.8,1.2-1.3,2.1-1.7c0.9-0.4,2.1-0.6,3.4-0.6c2.2,0,3.8,0.5,4.9,1.4
			c1.1,0.9,1.7,2.2,1.7,3.8l-3.5,0.2c-0.1-0.9-0.5-1.5-1-1.9c-0.5-0.4-1.2-0.6-2.2-0.6c-1,0-1.8,0.2-2.4,0.6
			c-0.4,0.3-0.6,0.6-0.6,1.1c0,0.4,0.2,0.8,0.5,1c0.4,0.4,1.5,0.8,3.2,1.1c1.7,0.4,2.9,0.8,3.7,1.2c0.8,0.4,1.4,1,1.9,1.7
			c0.5,0.7,0.7,1.7,0.7,2.7c0,1-0.3,1.9-0.8,2.8c-0.5,0.9-1.3,1.5-2.3,1.9c-1,0.4-2.2,0.6-3.7,0.6c-2.2,0-3.8-0.5-5-1.5
			C47.3,41.7,46.7,40.2,46.4,38.3z"/>
		<path class="st1" d="M68,31.4h3.1v1.8c0.4-0.6,0.9-1.1,1.6-1.5c0.7-0.4,1.4-0.6,2.3-0.6c1.4,0,2.7,0.6,3.7,1.7
			c1,1.1,1.5,2.7,1.5,4.7c0,2.1-0.5,3.7-1.5,4.9c-1,1.2-2.2,1.7-3.7,1.7c-0.7,0-1.3-0.1-1.9-0.4c-0.6-0.3-1.1-0.7-1.8-1.4v6.3H68
			V31.4z M71.3,37.4c0,1.4,0.3,2.4,0.8,3.1s1.2,1,2,1c0.8,0,1.4-0.3,1.9-0.9c0.5-0.6,0.8-1.6,0.8-3c0-1.3-0.3-2.3-0.8-2.9
			c-0.5-0.6-1.2-1-1.9-1c-0.8,0-1.5,0.3-2,0.9C71.5,35.3,71.3,36.2,71.3,37.4z"/>
		<path class="st1" d="M94.8,39.9l3.3,0.6c-0.4,1.2-1.1,2.1-2,2.8c-0.9,0.6-2.1,0.9-3.4,0.9c-2.2,0-3.8-0.7-4.8-2.1
			c-0.8-1.1-1.2-2.6-1.2-4.3c0-2.1,0.5-3.7,1.6-4.9c1.1-1.2,2.4-1.8,4.1-1.8c1.9,0,3.3,0.6,4.4,1.8c1.1,1.2,1.6,3.1,1.5,5.6H90
			c0,1,0.3,1.7,0.8,2.3c0.5,0.5,1.1,0.8,1.9,0.8c0.5,0,1-0.1,1.3-0.4C94.4,41,94.6,40.5,94.8,39.9z M95,36.6c0-1-0.3-1.7-0.7-2.2
			c-0.5-0.5-1-0.7-1.7-0.7c-0.7,0-1.3,0.3-1.8,0.8c-0.5,0.5-0.7,1.2-0.7,2.1H95z"/>
		<path class="st1" d="M108.2,35.2l-3-0.5c0.3-1.2,0.9-2.1,1.7-2.7c0.8-0.6,2-0.9,3.7-0.9c1.5,0,2.6,0.2,3.3,0.5
			c0.7,0.3,1.2,0.8,1.5,1.3c0.3,0.5,0.4,1.5,0.4,3l0,3.8c0,1.1,0.1,1.9,0.2,2.4c0.1,0.5,0.3,1.1,0.6,1.7h-3.3
			c-0.1-0.2-0.2-0.5-0.3-1c-0.1-0.2-0.1-0.3-0.1-0.4c-0.6,0.5-1.2,1-1.8,1.2c-0.6,0.3-1.3,0.4-2.1,0.4c-1.3,0-2.3-0.3-3-1
			c-0.7-0.7-1.1-1.6-1.1-2.6c0-0.7,0.2-1.3,0.5-1.9c0.3-0.6,0.8-1,1.4-1.3s1.5-0.5,2.6-0.8c1.5-0.3,2.6-0.6,3.2-0.8v-0.3
			c0-0.6-0.2-1.1-0.5-1.4c-0.3-0.3-0.9-0.4-1.8-0.4c-0.6,0-1,0.1-1.4,0.3C108.7,34.2,108.4,34.6,108.2,35.2z M112.6,37.9
			c-0.4,0.1-1.1,0.3-2,0.5c-0.9,0.2-1.5,0.4-1.8,0.6c-0.4,0.3-0.6,0.7-0.6,1.2c0,0.5,0.2,0.9,0.5,1.2c0.3,0.3,0.8,0.5,1.3,0.5
			c0.6,0,1.2-0.2,1.7-0.6c0.4-0.3,0.7-0.7,0.8-1.1c0.1-0.3,0.1-0.8,0.1-1.6V37.9z"/>
		<path class="st1" d="M123.8,43.9V26.7h3.3v9.1l3.9-4.4h4.1l-4.3,4.6l4.6,7.9h-3.6l-3.1-5.6l-1.5,1.6v4H123.8z"/>
		<path class="st1" d="M142.1,29.7v-3.1h3.3v3.1H142.1z M142.1,43.9V31.4h3.3v12.5H142.1z"/>
		<path class="st1" d="M164.9,43.9h-3.3v-6.4c0-1.3-0.1-2.2-0.2-2.6c-0.1-0.4-0.4-0.7-0.7-0.9c-0.3-0.2-0.7-0.3-1.1-0.3
			c-0.6,0-1.1,0.2-1.5,0.5c-0.5,0.3-0.8,0.7-0.9,1.2c-0.2,0.5-0.3,1.5-0.3,2.9v5.6h-3.3V31.4h3.1v1.8c1.1-1.4,2.5-2.1,4.1-2.1
			c0.7,0,1.4,0.1,2,0.4c0.6,0.3,1.1,0.6,1.4,1c0.3,0.4,0.5,0.9,0.6,1.4c0.1,0.5,0.2,1.3,0.2,2.2V43.9z"/>
		<path class="st1" d="M172.8,44.7l3.8,0.5c0.1,0.4,0.2,0.7,0.4,0.9c0.3,0.2,0.8,0.4,1.5,0.4c0.9,0,1.5-0.1,1.9-0.4
			c0.3-0.2,0.5-0.4,0.7-0.8c0.1-0.3,0.2-0.8,0.2-1.5v-1.8c-1,1.3-2.2,2-3.7,2c-1.7,0-3-0.7-4-2.1c-0.8-1.1-1.1-2.5-1.1-4.2
			c0-2.1,0.5-3.7,1.5-4.8c1-1.1,2.3-1.7,3.7-1.7c1.5,0,2.8,0.7,3.8,2v-1.7h3.1v11.2c0,1.5-0.1,2.6-0.4,3.3c-0.2,0.7-0.6,1.3-1,1.7
			c-0.4,0.4-1,0.7-1.8,1c-0.7,0.2-1.7,0.4-2.8,0.4c-2.1,0-3.6-0.4-4.5-1.1c-0.9-0.7-1.3-1.6-1.3-2.8C172.7,45,172.7,44.8,172.8,44.7
			z M175.7,37.4c0,1.3,0.3,2.3,0.8,2.9c0.5,0.6,1.1,0.9,1.9,0.9c0.8,0,1.5-0.3,2-0.9c0.6-0.6,0.8-1.6,0.8-2.8c0-1.3-0.3-2.2-0.8-2.9
			c-0.5-0.6-1.2-0.9-2-0.9c-0.8,0-1.4,0.3-2,0.9C176,35.2,175.7,36.1,175.7,37.4z"/>
	</g>
</g>
</svg>
