<?xml version="1.0" encoding="utf-8"?>
<!-- Generator: Adobe Illustrator 25.4.6, SVG Export Plug-In . SVG Version: 6.00 Build 0)  -->
<svg version="1.1" id="圖層_1" xmlns="http://www.w3.org/2000/svg" xmlns:xlink="http://www.w3.org/1999/xlink" x="0px" y="0px"
	 viewBox="0 0 230.9 52.5" style="enable-background:new 0 0 230.9 52.5;" xml:space="preserve">
<style type="text/css">
	.st0{fill:#25A2AF;}
	.st1{fill:#4C4948;}
</style>
<g>
	<g>
		<g>
			<path class="st0" d="M59.6,14.1l-0.5-0.7c1.4-0.7,2.5-1.7,3.3-2.9h-1.1c-0.2,0-0.3-0.1-0.3-0.3V6.7c0-0.2,0.1-0.3,0.2-0.3
				c1.1-0.1,2.2-0.3,3.2-0.6l0.3,0.8c-0.9,0.3-1.9,0.5-2.8,0.6c-0.1,0-0.1,0-0.1,0.1V8h2.9v0.8h-2.9v0.6c0,0.1,0.1,0.2,0.2,0.2h6.9
				c0.1,0,0.2-0.1,0.2-0.2V8.7h-2.8V7.9h2.8V7.3c0-0.1-0.1-0.2-0.2-0.2h-2.7V6.3h3.5c0.2,0,0.3,0.1,0.3,0.2v3.6
				c0,0.2-0.1,0.3-0.3,0.3h-6.3c-0.2,0.3-0.4,0.6-0.6,0.9h8.7c0.1,0,0.1,0,0.2,0c0.1,0,0.1,0.1,0.1,0.1c0,0,0,0,0,0.1
				c0,2.4-0.2,3.9-0.4,4.3c-0.2,0.3-0.4,0.5-0.8,0.6c-0.7,0.3-1.7,0.2-3.1-0.2v-1c1.3,0.4,2.1,0.5,2.6,0.3c0.2-0.1,0.4-0.2,0.5-0.4
				c0.2-0.2,0.3-0.6,0.3-1.1c0.1-1.2,0.1-1.8,0-1.9c0,0-0.1-0.1-0.1-0.1h-8.7C61.3,12.9,60.5,13.5,59.6,14.1z M65,3.6h0.8v1h6.1
				c0.1,0,0.2,0.1,0.2,0.3c-0.1,0.9-0.3,1.7-0.6,2.6c-0.3-0.1-0.5-0.2-0.8-0.3c0.1-0.5,0.3-1,0.4-1.6c0-0.1,0-0.1-0.1-0.1H60.3
				c-0.1,0-0.1,0-0.1,0.1v2.1h-0.8V4.7c0-0.1,0.1-0.2,0.2-0.2H65V3.6z M62.9,13.2c-0.7,1.4-1.4,2.4-2.3,3.1l-0.7-0.5
				c1-0.8,1.7-1.8,2.2-2.9L62.9,13.2z M64.5,13.1c0,1,0,2.2-0.1,3.3l-0.8-0.1c0.1-1,0.1-2.1,0.1-3.3L64.5,13.1z M66.3,12.8
				c0.3,1,0.6,1.9,0.8,2.9l-0.8,0.1c-0.2-1-0.4-2-0.8-2.8L66.3,12.8z M68.1,12.4c0.7,0.9,1.3,1.6,1.8,2.3l-0.7,0.4
				c-0.5-0.8-1.1-1.6-1.7-2.3L68.1,12.4z"/>
			<path class="st0" d="M79.4,10.4l-0.5-0.7c1.4-1.7,2.3-3.7,2.9-6L82.6,4c-0.4,1.3-0.8,2.5-1.2,3.5v9.1h-0.8V8.9
				C80.2,9.5,79.8,10,79.4,10.4z M87.2,16.6h-0.8V5.8h-1.7c-0.3,1.5-0.7,2.9-1.4,4.1l-0.8-0.2c1-1.9,1.5-3.8,1.6-5.8l0.8,0
				c0,0.4-0.1,0.8-0.1,1.1h7v0.8h-4.6v3.1h4.4v0.8h-4.4v2.6h4.4v0.8h-4.4V16.6z"/>
			<path class="st0" d="M99.3,7.6c0.6,0.4,1.4,0.9,2.1,1.6l-0.5,0.7c-0.8-0.7-1.5-1.2-2.1-1.6L99.3,7.6z M101.5,11.3
				c-0.3,1.5-1,3.2-1.9,5.2l-0.7-0.4c1-2,1.6-3.7,1.9-5L101.5,11.3z M99.6,4.1c0.6,0.4,1.3,0.9,2,1.6l-0.5,0.6
				c-0.8-0.7-1.4-1.3-2-1.6L99.6,4.1z M103.9,14.5c-0.7,1-1.5,1.7-2.3,2.2l-0.4-0.7c0.7-0.4,1.4-1.1,2.1-2L103.9,14.5z M102.5,13.5
				c-0.1,0-0.1,0-0.1-0.1V4.2c0-0.1,0-0.1,0.1-0.1h4.3c0.1,0,0.1,0,0.1,0.1v9.1c0,0.1,0,0.1-0.1,0.1H102.5z M106,7V5c0,0,0,0-0.1,0
				h-2.8c0,0,0,0,0,0v2H106z M106,9.8V7.8h-2.9v1.9H106z M103.2,10.6v2c0,0,0,0,0,0h2.8c0,0,0.1,0,0.1-0.1v-2H103.2z M105.7,14
				c0.9,0.9,1.5,1.6,2,2.1l-0.6,0.5c-0.6-0.7-1.2-1.4-1.9-2.1L105.7,14z M109,4.8v8.6h-0.8V4.8H109z M111.2,3.8v11.8
				c0,0.4-0.2,0.6-0.4,0.8c-0.3,0.2-1.1,0.2-2.2-0.1l0-0.8c0.8,0.3,1.4,0.4,1.6,0.3c0.1,0,0.1-0.1,0.2-0.2c0-0.1,0-0.1,0-0.2V3.8
				H111.2z"/>
			<path class="st0" d="M119.9,11.6c0.1,1.2,0,2.6-0.3,4.3l-0.8-0.1c0.3-1.8,0.3-3.2,0.3-4.2H119.9z M119.3,4.1
				c0-0.1,0.1-0.2,0.2-0.2h4.5v0.8h-1.6V6h1.5v0.8h-1.5V8h1.5v0.8h-1.5V10h1.8c0.1,0,0.2,0.1,0.2,0.2c0,2.2,0,3.7-0.1,4.5
				c-0.1,0.7-0.3,1.3-0.7,1.7c-0.3,0.3-0.9,0.3-1.9,0.2l-0.1-0.9c0.8,0.1,1.2,0.1,1.3,0c0.3-0.3,0.5-0.7,0.6-1.1
				c0.1-0.6,0.1-1.8,0.1-3.8c0,0,0,0-0.1,0h-3.9c-0.1,0-0.1-0.1-0.1-0.2v-0.3V4.1z M121.5,4.8h-1.2c-0.1,0-0.1,0-0.1,0.1V6h1.4V4.8z
				 M121.5,6.8h-1.4V8h1.4V6.8z M121.5,10V8.8h-1.4V10H121.5z M120.9,11.6c0.3,1.6,0.4,2.8,0.5,3.9h-0.8c0-1.2-0.2-2.5-0.5-3.8
				L120.9,11.6z M122,11.6c0.3,1.4,0.5,2.4,0.5,3l-0.7,0.1c-0.1-1.1-0.3-2.1-0.5-2.9L122,11.6z M122.7,11.3c0.3,0.8,0.5,1.5,0.6,2.1
				l-0.7,0.1c-0.1-0.6-0.4-1.3-0.6-2.1L122.7,11.3z M124.6,16.6l-0.7-0.5c0.9-0.9,1.6-2,1.9-3.3l0.8,0.2c-0.1,0.3-0.2,0.6-0.3,0.9
				c0.5,0.4,0.9,0.8,1.4,1.3l-0.6,0.6c-0.3-0.4-0.7-0.8-1.1-1.2C125.7,15.4,125.2,16,124.6,16.6z M124.7,7.2l-0.5-0.6
				c0.9-0.5,1.6-0.9,2.1-1.3c0.5-0.5,1-0.9,1.5-1.4h0.5c1,1,2.3,1.9,3.7,2.6L131.4,7c-1.6-0.9-2.7-1.7-3.5-2.5
				C127.1,5.6,126,6.5,124.7,7.2z M125,12.1c-0.1,0-0.1,0-0.1-0.1V8.5c0-0.1,0-0.1,0.1-0.1h2.6c0.1,0,0.1,0,0.1,0.1V12
				c0,0.1,0,0.1-0.1,0.1H125z M125.8,9.2C125.8,9.2,125.7,9.2,125.8,9.2l0,2c0,0,0,0,0,0h1.1c0,0,0.1,0,0.1-0.1v-2c0,0,0,0-0.1,0
				H125.8z M130.1,6.6v0.8H126V6.6H130.1z M128.2,16.6l-0.7-0.5c0.9-0.9,1.5-2,1.8-3.3l0.8,0.2c-0.1,0.4-0.2,0.8-0.3,1.1
				c0.7,0.6,1.3,1.3,2,2l-0.6,0.6c-0.5-0.6-1-1.2-1.7-1.9C129.1,15.5,128.6,16.1,128.2,16.6z M128.7,12c-0.1,0-0.1,0-0.1-0.1V8.5
				c0-0.1,0-0.1,0.1-0.1h2.6c0.1,0,0.1,0,0.1,0.1v3.4c0,0.1,0,0.1-0.1,0.1H128.7z M129.5,9.2C129.4,9.2,129.4,9.2,129.5,9.2l0,2
				c0,0,0,0,0,0h1.2c0,0,0.1,0,0.1-0.1V9.2c0,0,0,0-0.1,0H129.5z"/>
			<path class="st0" d="M139,11.6l-0.2-0.8l5.2-0.2c1.3-1.3,2.6-2.9,3.7-4.6l0.7,0.5c-0.7,1.1-1.8,2.4-3.2,4l4.6-0.2
				c-0.5-0.7-1-1.2-1.4-1.6l0.6-0.6c0.9,1,1.9,2.2,2.9,3.9l-0.7,0.4c-0.3-0.5-0.6-0.9-0.9-1.3l-4.7,0.2v5.3h-0.8v-5.2L139,11.6z
				 M142.7,12.8c-0.7,1.1-1.7,2.3-3.1,3.7l-0.6-0.6c0.8-0.8,1.4-1.4,1.9-1.9c0.3-0.4,0.7-0.9,1-1.5L142.7,12.8z M143.9,5.4
				c-1.4,0.1-2.9,0.1-4.4,0.1l-0.2-0.9c4.8,0,8.5-0.3,10.9-1l0.2,0.8c-1.2,0.3-2.6,0.5-4.2,0.6c-0.5,0-1,0.1-1.4,0.1
				c-0.5,0.8-1.2,1.7-2.2,2.9c0.4,0.2,0.8,0.5,1.2,0.8l-0.4,0.7c-1.2-1-2.4-1.7-3.6-2.2l0.3-0.8c0.3,0,0.9,0.4,1.9,1
				C142.7,7.1,143.3,6.3,143.9,5.4z M148.5,12.3c0.9,0.9,1.9,2.2,2.9,3.7l-0.7,0.4c-1.1-1.6-2-2.8-2.8-3.6L148.5,12.3z"/>
			<path class="st0" d="M160.3,11.7c-0.4,2-0.7,3.5-1,4.3l-0.8-0.2c0.4-1.4,0.8-2.8,1-4.3L160.3,11.7z M158.9,10.8l-0.2-0.8l0.4-0.1
				c0.5-0.5,1-1,1.6-1.8c-0.6-0.6-1.3-1.1-2-1.5l0.4-0.7c0.1,0,0.2,0.1,0.4,0.3c0.5-0.7,0.9-1.6,1.3-2.5l0.7,0.4
				c-0.3,0.6-0.8,1.5-1.4,2.5c0.3,0.2,0.6,0.5,1,0.9c0.6-0.8,1-1.6,1.3-2.3l0.8,0.3c-0.5,1.4-1.4,2.8-2.9,4.3l2.6-0.4
				c-0.2-0.5-0.4-0.9-0.6-1.4l0.8-0.3c0.6,1.3,1,2.3,1.2,3.1l-0.8,0.2c-0.1-0.3-0.2-0.6-0.3-0.9l-1.4,0.2v6.2h-0.8v-6.1L158.9,10.8z
				 M164.1,14.5l-0.8,0.2l-0.9-3.1l0.8-0.3L164.1,14.5z M166.9,9.9v1.6c0,2.3-1,4-2.9,5.2l-0.6-0.6c0.5-0.2,0.8-0.5,1.2-0.8
				c1-0.9,1.5-2.1,1.5-3.7V10l-1.7,0.2l-0.3-0.8l1-0.1c0.6-1.1,1.2-2.3,1.8-3.5H164V5h3.3V3.8h0.8V5h3.4v0.8h-3.8
				c-0.4,0.9-0.9,2-1.6,3.4l4.1-0.5c0-0.1-0.1-0.1-0.1-0.1c-0.4-0.7-0.7-1.1-0.8-1.3l0.7-0.4c0.8,1.4,1.4,2.5,1.7,3.2l-0.8,0.3
				c-0.1-0.3-0.3-0.6-0.4-1l-1.2,0.2v5.9c0,0.1,0.1,0.2,0.2,0.2h0.9c0.1,0,0.1,0,0.2-0.1c0.1-0.1,0.1-0.6,0.1-1.7l0.8,0.3
				c0,0.8-0.1,1.4-0.2,1.7c-0.1,0.2-0.1,0.4-0.3,0.4c-0.2,0.1-0.3,0.2-0.5,0.2H169c-0.3,0-0.4-0.1-0.4-0.4V9.7L166.9,9.9z"/>
		</g>
	</g>
	<g>
		<path class="st1" d="M66.3,44l-4-16.7h3.5l2.5,11.5l3.1-11.5h4L78.2,39l2.6-11.7h3.4L80.1,44h-3.6l-3.3-12.5L69.9,44H66.3z"/>
		<path class="st1" d="M93.2,44H90V31.9h3v1.7c0.5-0.8,1-1.3,1.4-1.6c0.4-0.3,0.9-0.4,1.4-0.4c0.7,0,1.4,0.2,2.1,0.6l-1,2.8
			c-0.5-0.3-1-0.5-1.5-0.5c-0.4,0-0.8,0.1-1.1,0.4c-0.3,0.2-0.6,0.7-0.7,1.3c-0.2,0.6-0.3,2-0.3,4.1V44z"/>
		<path class="st1" d="M103.9,30.3v-3h3.2v3H103.9z M103.9,44V31.9h3.2V44H103.9z"/>
		<path class="st1" d="M120.6,31.9v2.6h-2.2v4.9c0,1,0,1.6,0.1,1.7c0,0.2,0.1,0.3,0.3,0.4c0.1,0.1,0.3,0.2,0.5,0.2
			c0.3,0,0.7-0.1,1.3-0.3l0.3,2.5c-0.7,0.3-1.6,0.5-2.5,0.5c-0.6,0-1.1-0.1-1.6-0.3c-0.5-0.2-0.8-0.4-1-0.8
			c-0.2-0.3-0.4-0.7-0.5-1.2c-0.1-0.4-0.1-1.1-0.1-2.3v-5.3h-1.5v-2.6h1.5v-2.4l3.2-1.9v4.3H120.6z"/>
		<path class="st1" d="M127.5,30.3v-3h3.2v3H127.5z M127.5,44V31.9h3.2V44H127.5z"/>
		<path class="st1" d="M149.6,44h-3.2v-6.2c0-1.3-0.1-2.2-0.2-2.5c-0.1-0.4-0.4-0.7-0.7-0.9c-0.3-0.2-0.7-0.3-1.1-0.3
			c-0.6,0-1.1,0.2-1.5,0.5c-0.4,0.3-0.7,0.7-0.9,1.2c-0.2,0.5-0.2,1.4-0.2,2.8V44h-3.2V31.9h3v1.8c1.1-1.4,2.4-2.1,4-2.1
			c0.7,0,1.4,0.1,1.9,0.4c0.6,0.3,1,0.6,1.3,1c0.3,0.4,0.5,0.8,0.6,1.3c0.1,0.5,0.2,1.2,0.2,2.2V44z"/>
		<path class="st1" d="M157.2,44.8l3.7,0.4c0.1,0.4,0.2,0.7,0.4,0.9c0.3,0.2,0.8,0.3,1.4,0.3c0.8,0,1.5-0.1,1.9-0.4
			c0.3-0.2,0.5-0.4,0.6-0.8c0.1-0.3,0.1-0.8,0.1-1.5v-1.8c-1,1.3-2.2,2-3.6,2c-1.6,0-2.9-0.7-3.9-2.1c-0.7-1.1-1.1-2.4-1.1-4.1
			c0-2,0.5-3.6,1.5-4.6c1-1.1,2.2-1.6,3.6-1.6c1.5,0,2.7,0.7,3.7,2v-1.7h3v10.9c0,1.4-0.1,2.5-0.4,3.2c-0.2,0.7-0.6,1.3-1,1.7
			c-0.4,0.4-1,0.7-1.7,0.9c-0.7,0.2-1.6,0.3-2.7,0.3c-2.1,0-3.5-0.4-4.4-1.1s-1.3-1.6-1.3-2.7C157.2,45.1,157.2,45,157.2,44.8z
			 M160.1,37.7c0,1.3,0.2,2.2,0.7,2.8c0.5,0.6,1.1,0.9,1.8,0.9c0.8,0,1.4-0.3,2-0.9c0.5-0.6,0.8-1.5,0.8-2.7c0-1.3-0.3-2.2-0.8-2.8
			c-0.5-0.6-1.2-0.9-2-0.9c-0.8,0-1.4,0.3-1.9,0.9C160.3,35.6,160.1,36.5,160.1,37.7z"/>
	</g>
</g>
</svg>
