<?xml version="1.0" encoding="UTF-8"?>
<svg xmlns="http://www.w3.org/2000/svg" version="1.1" xmlns:xlink="http://www.w3.org/1999/xlink" viewBox="0 0 670 530">
  <defs>
    <style>
      .cls-1 {
        fill: #fff;
      }

      .cls-2 {
        fill: #21797c;
      }

      .cls-3 {
        fill: none;
      }

      .cls-4 {
        fill: #2577a6;
      }

      .cls-5 {
        fill: #51b77c;
      }

      .cls-6 {
        fill: #ebc83f;
      }

      .cls-7 {
        fill: #adcc9f;
      }

      .cls-8 {
        clip-path: url(#clippath);
      }
    </style>
    <clipPath id="clippath">
      <path class="cls-3" d="M498.6,346.5c-5.9,50.5-71.9,75.5-113.8,73.1-28.4-1.6-32.5-17.2-8.9-33.1,34.7-23.2,51-52.4,51-52.4l71.7,12.4h0Z"/>
    </clipPath>
  </defs>
  <!-- Generator: Adobe Illustrator 28.7.5, SVG Export Plug-In . SVG Version: 1.2.0 Build 176)  -->
  <g>
    <g id="TEEMI-Bot-404">
      <path id="foot" class="cls-4" d="M294.3,474.7s29.1,5.4,57.4,9.2c-13.6,9.2-44.1,27.5-65.7,22.9-20.4-4.4-40.7-30.9-50.6-45.5,28.4,7.3,58.9,13.4,58.9,13.4h0Z"/>
      <path id="leftHand" class="cls-5" d="M444.1,345.2c10.6,7,20,15.2,28.4,23.8,30.1,30.8,47.5,67.2,59.4,76.8.4.3.9.6,1.3.9.2.2.5.4.8.5.3.2.6.4.9.5h0c.4.2.9.3,1.3.3,15,2.3,29.7-15.1,17.8-81.9-2.4-13.7-5.8-26.2-9.7-37.3-9.5-27.5-42.8-39.1-66.6-22.2-11.8,8.4-23.8,20.6-33.7,38.7h.1Z"/>
      <g id="body">
        <path id="bodyShadow" class="cls-4" d="M337.6,437.8c-47-3.8-113.7-29.5-152.7-65-12.9-11.1-23.2-22.5-29.9-32.5-11.1-16.9-15-41.7-16-62.8-.9,4.9-1.6,9.5-2.1,13.5-1.9,17.9-2.6,58.2,12.1,82.4,5.5,8.8,14,18.7,24.6,28.6,32,31.4,86.6,56.4,125.5,62.9h.4c38.1,7.9,96.5,4.7,137.4-12,14.2-5.5,26.3-11.9,35-18.2,8.4-6.2,15.4-14.2,21.2-23-46.9,22.4-111.5,31.2-155,26h-.5Z"/>
        <path id="bodyMain" class="cls-5" d="M513.8,363c.3-1.1.5-2.3.8-3.5,3.5-17.1,29.8-132.6,21.6-157.9-2.9-6.3-6.6-12.4-11-18-2.6-3.3-5.5-6.4-8.6-9.4-22.5-21-56.4-36.2-87.8-46.1-1.6-.5-3.3-1-4.9-1.5-17.8-5.3-34.5-9.1-47.7-11.7-4.5-.9-21-4.1-25.6-4.9-37.5-7.3-105.6-15.4-152,2.6-49.4,18.2-51.4,135.8-54.4,144.7-2.2,6.7-3.9,13.7-5.1,20.2,1,21,4.9,45.8,16,62.8,6.7,10.1,17,21.4,29.9,32.5,39,35.4,105.7,61.1,152.7,65h.5c43.5,5.2,108.1-3.6,155-26,5.1-7.7,9.3-16,12.8-24.5,3.3-8.1,6.1-16.4,7.9-24.4h0Z"/>
      </g>
      <g id="tele">
        <path id="tube" class="cls-4" d="M271.4,48.7c-6.4,1.6-10.4,8.2-8.8,14.7,1.2,4.7,4.9,8,9.4,8.9l2.4,28.4c.1,1.5,1.4,2.6,2.9,2.4h.4c1.3-.3,2.2-1.5,2.1-2.9l-2.4-28h0c3.1-.8,5.8-2.8,7.4-5.6,1.6-2.6,2.1-5.7,1.4-8.8v-.4c-.9-3.1-2.9-5.8-5.6-7.4-2.8-1.6-6.1-2.1-9.2-1.3h0Z"/>
        <path id="leftWave1" class="cls-4" d="M301.1,34.9c-1.5-.3-2.9.6-3.2,2.1-.3,1.5.6,2.9,2.1,3.2,2.5.5,4.8,2.4,6.2,4.9,1.6,3.1,1.7,6.8.2,10.4-.6,1.4,0,3,1.5,3.5.5.2,1.1.2,1.6,0,.8-.2,1.6-.8,1.9-1.6,2.1-5.1,1.9-10.4-.5-15-2.1-4-5.8-6.9-9.9-7.7h0v.2h0Z"/>
        <path id="leftWave2" class="cls-4" d="M329.5,32.4c-3.2-6-8.8-10.4-14.9-11.6-1.5-.3-2.9.6-3.2,2.1-.3,1.5.6,2.9,2.1,3.2,4.6.9,8.8,4.2,11.2,8.9,2.9,5.5,3.1,12,.5,18.3-.6,1.4,0,3,1.5,3.5.5.2,1.1.3,1.6,0,.8-.2,1.6-.8,1.9-1.6,3.2-7.8,3-16-.7-22.9h0Z"/>
        <path id="rightWave1" class="cls-4" d="M236.4,40.5c-3.7,1.8-6.6,5.5-7.6,9.9-1.2,5,0,10.2,3.3,14.6.6.9,1.7,1.2,2.7,1,.4,0,.7-.2,1-.5,1.2-.9,1.4-2.6.5-3.8-2.4-3.1-3.2-6.7-2.4-10.1.7-2.8,2.5-5.2,4.8-6.3,1.3-.6,1.9-2.3,1.2-3.6-.6-1.3-2.3-1.9-3.6-1.2h.1Z"/>
        <path id="rightWave2" class="cls-4" d="M223.3,31.3c-.7-1.3-2.3-1.9-3.6-1.2-5.6,2.8-9.9,8.4-11.5,15-1.8,7.6,0,15.5,5.1,22.3.6.9,1.7,1.2,2.7,1,.4,0,.7-.2,1-.5,1.2-.9,1.4-2.6.5-3.8-4.1-5.5-5.6-11.8-4.1-17.8,1.2-5.1,4.4-9.4,8.6-11.4,1.3-.7,1.9-2.3,1.2-3.6,0,0,.1,0,.1,0Z"/>
      </g>
      <g id="head">
        <path id="face" class="cls-1" d="M466.8,305.7c-26.8,2.2-86.9-11.8-122.6-24.5-34.8-12.4-73.1-29.9-93-44.5-19.7-14.8-14.8-65.8.1-79.3,14.8-12.6,77.2-15.8,129.8-3.6,67.5,15.7,102.6,30,110.2,57.9,3.7,13.5,13.3,38.7,8.8,62-4.8,24.6-20.2,31.1-33.3,32.1h0Z"/>
        <path id="mouth" class="cls-4" d="M381.5,233.9c-9.1-2.5-17.9.1-23,6.9-1.1,1.4-.8,3.5.7,4.6s3.5.8,4.5-.7c4.1-5.5,11-6,16.1-4.6,4.9,1.4,10.9,5.4,11.6,12.1.2,1.8,1.8,3.1,3.5,2.9h.2c1.7-.2,2.9-1.8,2.8-3.5-.8-8.3-7.2-15.2-16.3-17.8h-.1Z"/>
        <path id="rightEye" class="cls-4" d="M319.2,187.2l-11,6.3-6.3-11c-.9-1.6-2.9-2.1-4.4-1.2-1.6.9-2.1,2.9-1.2,4.4l6.3,11-11,6.3c-1.6.9-2.1,2.9-1.2,4.4.7,1.2,2,1.8,3.3,1.6.4,0,.8-.2,1.1-.4l11-6.3,6.3,11c.7,1.2,2,1.8,3.3,1.6.4,0,.8-.2,1.1-.4,1.6-.9,2.1-2.9,1.2-4.4l-6.3-11,11-6.3c1.6-.9,2.1-2.9,1.2-4.4-.9-1.6-2.9-2.1-4.4-1.2h0Z"/>
        <path id="leftEye" class="cls-4" d="M469.6,228.5c-.9-1.6-2.9-2.1-4.4-1.2l-11,6.3-6.3-11c-.9-1.6-2.9-2.1-4.4-1.2-1.6.9-2.1,2.9-1.2,4.4l6.3,11-11,6.3c-1.6.9-2.1,2.9-1.2,4.4.7,1.2,2,1.8,3.3,1.6.4,0,.8-.2,1.1-.4l11-6.3,6.3,11c.7,1.2,2,1.8,3.3,1.6.4,0,.8-.2,1.1-.4,1.6-.9,2.1-2.9,1.2-4.4l-6.3-11,11-6.3c1.6-.9,2.1-2.9,1.2-4.4h0Z"/>
      </g>
      <path id="rightHand" class="cls-5" d="M187.8,298.2c-11.8,1.6-23.1,4.6-33.7,8.4-38,13.6-67.6,37.2-81.6,40.4-.5.1-1,.2-1.4.2h-1.8c-.4,0-.8-.1-1.2-.2-13.6-4.2-18.9-24.9,18.6-76.4,7.7-10.6,15.7-19.7,23.5-27.5,19.3-19.3,52.2-15.4,65.2,8.6,6.5,11.9,11.6,27.2,12.5,46.4h0Z"/>
      <path id="BodyHole" class="cls-2" d="M498.6,346.5c-9.5,50.5-71.9,75.5-113.8,73.1-28.4-1.6-32.5-17.2-8.9-33.1,34.7-23.2,51-52.4,51-52.4l71.7,12.4h0Z"/>
      <g id="gearInHole">
        <g class="cls-8">
          <g id="gear3">
            <g>
              <path class="cls-7" d="M407.5,346.9c-1.4,2.5-.6,5.6,1.9,7,.1,0,.2,0,.3.1-.1.5-.3.9-.5,1.4-.5,1.8-.7,3.7-.8,5.5,0,.8,0,1.5.1,2.3h0c-2.8.7-4.4,3.6-3.7,6.3s3.6,4.4,6.3,3.7h.2c.2.5.4.9.7,1.4,1,1.6,2.1,3.1,3.4,4.4s1.1,1,1.7,1.5c-1.4,2.5-.5,5.5,1.9,7,2.5,1.4,5.6.6,7-1.9h0c.5.1,1,.4,1.5.5,1.8.5,3.7.7,5.5.8.8,0,1.6,0,2.4-.1.8,2.6,3.5,4.2,6.2,3.5,2.8-.7,4.4-3.5,3.7-6.3h0c.4-.2.9-.4,1.3-.6,1.6-1,3.1-2.1,4.4-3.4s1.2-1.2,1.7-1.9c2.4,1.3,5.5.4,6.8-2,1.4-2.5.6-5.6-1.9-7h0c.1-.4.3-.8.4-1.2.5-1.8.7-3.7.7-5.5s0-1.8-.1-2.6c2.7-.8,4.2-3.5,3.5-6.2-.7-2.8-3.6-4.4-6.3-3.7h-.1c-.2-.4-.3-.7-.5-1.1-1-1.6-2.1-3.1-3.4-4.4s-1.3-1.2-1.9-1.8c1.4-2.5.6-5.6-1.9-7s-5.6-.6-7,1.9c0,0,0,.2-.1.3-.4-.1-.8-.3-1.1-.4-1.8-.5-3.7-.7-5.5-.8-.8,0-1.7,0-2.5.1h0c-.7-2.9-3.6-4.5-6.3-3.8s-4.4,3.5-3.7,6.3c0,.1,0,.2.1.3-.4.2-.8.4-1.2.6-1.6,1-3.1,2.1-4.4,3.4-.6.5-1.1,1.2-1.6,1.8h-.1c-2.5-1.4-5.6-.6-7,1.9h0v-.3h-.1ZM426.5,357.3c2.3-4,7.4-5.3,11.4-3s5.3,7.4,3,11.4-7.4,5.3-11.4,3-5.3-7.4-3-11.4Z"/>
              <path class="cls-7" d="M372.9,385.7c-.8,1.8,0,3.9,1.9,4.7h.2c0,.3-.2.7-.2,1-.2,1.3-.2,2.6,0,3.9,0,.5.2,1,.3,1.6h0c-1.9.7-2.8,2.8-2,4.7s2.8,2.8,4.7,2h.1c.2.3.4.6.6.9.8,1,1.7,2,2.7,2.8.4.3.9.6,1.3.9-.8,1.8,0,3.9,1.9,4.7,1.8.8,3.9,0,4.7-1.9h0c.4,0,.7.2,1,.2,1.3.2,2.6.2,3.9,0,.6,0,1.1-.2,1.6-.3.8,1.8,2.8,2.6,4.6,1.9,1.9-.7,2.8-2.8,2-4.7h0c.3-.2.6-.3.8-.5,1-.8,2-1.7,2.8-2.7s.7-1,1-1.4c1.8.7,3.8-.1,4.6-1.9.8-1.8,0-3.9-1.9-4.7h0c0-.3.1-.6.2-.9.2-1.3.2-2.6,0-3.9,0-.6-.2-1.2-.3-1.8,1.8-.8,2.6-2.8,1.9-4.6-.7-1.9-2.8-2.8-4.7-2h0c-.2-.2-.3-.5-.5-.7-.8-1-1.7-2-2.7-2.8s-1-.7-1.5-1.1c.8-1.8,0-3.9-1.9-4.7-1.8-.8-3.9,0-4.7,1.9v.2c-.3,0-.5-.1-.8-.2-1.3-.2-2.6-.2-3.9,0-.6,0-1.2.2-1.7.3h0c-.7-1.9-2.8-2.8-4.7-2s-2.8,2.8-2,4.7c0,0,0,.1.1.2-.2.2-.5.3-.8.5-1,.8-2,1.7-2.8,2.7-.4.4-.7.9-1,1.4h0c-1.8-.8-3.9,0-4.7,1.9h0v-.3h-.1ZM394.5,388.5c2.9,1.3,4.3,4.7,3,7.6-1.3,3-4.7,4.3-7.6,3s-4.3-4.7-3-7.6,4.7-4.3,7.6-3Z"/>
            </g>
          </g>
        </g>
      </g>
      <path id="plug" class="cls-7" d="M471.9,448.4c-.2-13.1-5.9-25.4-16.2-34.3-9.7-8.4-21.9-12.2-31.7-9.8-.9.2-1.4,1.1-1.2,2,.2.9,1.1,1.4,2,1.2,8.8-2.1,19.9,1.4,28.8,9.1,9.2,8,14.6,19,15.1,30.7-6.9-1.5-12.3,3.1-17,10.1-1.6,2.4-.9,5.3,1.5,6.4h.1l1.6.7-3.3,7.3c-.4.9,0,1.9.9,2.3s1.9,0,2.3-.9l3.3-7.2,9,4.1-3.3,7.3c-.4.9,0,1.9.9,2.3s1.9,0,2.3-.9l3.3-7.2,1.8.8c2.4,1.1,5.1-.3,5.8-3.1,2.5-9.2,1.8-17-6-20.8h0Z"/>
      <path id="screwdriver" class="cls-6" d="M32.5,313.2c29,18,61.4,36.2,90.9,53.3h0c-4.9,17.6,10.2,37.3,28.8,36.7l5.9-9.3-14.3-9.1-1.4-17.7,16.6-6.3,14.3,9.1,5.9-9.3c-7.8-18-34-22.6-47.4-8.7-26.7-18.2-59.5-40.4-86.9-58.1-13.1-9.5-26.4,11.5-12.3,19.4h0ZM42.6,306c-3.2,5.1-11.3,0-7.9-5,3.2-5.2,11.3,0,7.9,5Z"/>
      <path id="gear2" class="cls-6" d="M571.4,423.2c-2.7-3.3-7.1-4.2-10.8-2.6h0c-1.9-1.3-4-2.5-6.3-3.3h0c-.8-4-4-7.1-8.2-7.5s-8,2.1-9.5,5.8h0c-2.4.4-4.6,1.1-6.8,2.1h0c-3.3-2.2-7.9-2.2-11.1.5s-4.2,7.1-2.6,10.8h0c-1.3,1.9-2.5,4-3.3,6.3h0c-4,.8-7.1,4-7.5,8.2s2.1,8,5.8,9.5h0c.4,2.4,1.1,4.7,2.1,6.8h0c-2.2,3.3-2.2,7.9.5,11.1,2.7,3.3,7.1,4.2,10.8,2.6h0c1.9,1.3,4,2.5,6.3,3.3h0c.8,4,4,7.1,8.2,7.5s8-2.1,9.5-5.8h0c2.4-.4,4.6-1.1,6.8-2.1h0c3.3,2.2,7.9,2.2,11.1-.5s4.2-7.1,2.6-10.8h0c1.3-1.9,2.5-4,3.3-6.3h0c4-.8,7.1-4,7.5-8.2s-2.1-8-5.8-9.5h0c-.4-2.4-1.1-4.7-2.1-6.8h0c2.2-3.3,2.2-7.9-.5-11.1h0ZM531.8,446.1c.6-5.9,5.8-10.1,11.6-9.6,5.9.6,10.1,5.8,9.6,11.6-.6,5.9-5.8,10.1-11.6,9.6-5.9-.6-10.1-5.8-9.6-11.6h0Z"/>
      <ellipse id="leftHand2" class="cls-5" cx="538.6" cy="440.7" rx="9.6" ry="13" transform="translate(28.9 914.5) rotate(-82.2)"/>
      <path id="gear1" class="cls-6" d="M437,501.7h0c-.4-1.4-1-2.7-1.7-3.9h0c1.1-2.2.7-4.8-1.1-6.6s-4.5-2-6.6-.8h0c-1.2-.7-2.6-1.2-4-1.5h0c-.7-2.3-2.9-3.9-5.4-3.9s-4.6,1.8-5.2,4.1h0c-1.4.4-2.7,1-3.9,1.7h0c-2.1-1.1-4.8-.7-6.6,1.1s-2,4.5-.8,6.6h0c-.7,1.2-1.2,2.6-1.5,4h0c-2.3.8-3.9,2.9-3.9,5.5s1.8,4.6,4.1,5.2h0c.4,1.4,1,2.7,1.7,3.9h0c-1.1,2.2-.7,4.8,1.1,6.6,1.8,1.8,4.5,2,6.6.8h0c1.2.7,2.6,1.2,4,1.5h0c.8,2.3,2.9,3.9,5.4,3.9s4.6-1.8,5.3-4.1h0c1.4-.4,2.7-1,3.9-1.7h0c2.1,1.1,4.8.7,6.6-1.1,1.7-1.8,2-4.5.8-6.6h0c.7-1.3,1.2-2.6,1.5-4h0c2.3-.8,3.9-2.9,3.9-5.5s-1.8-4.6-4.1-5.2h0ZM425,507.3c0,3.5-2.7,6.5-6.2,6.5s-6.5-2.7-6.5-6.2,2.7-6.5,6.2-6.5,6.5,2.7,6.5,6.2Z"/>
      <g id="dialogue">
        <path id="dialogueBg" class="cls-6" d="M590.5,40.6c-37.1-13.2-74.6-3-83.8,22.7-6,17,1.7,36.5,18.3,51.6-.5,1.2-1,2.5-1.6,3.7-4.6,9.8-10.2,16.8-14.5,21.4,6.3-.2,17.7-1.5,29.8-8.2,2-1.1,3.9-2.4,5.6-3.6,4.1,2.1,8.4,4,12.9,5.6,37.1,13.2,74.6,3,83.8-22.7,9.2-25.8-13.5-57.3-50.6-70.5Z"/>
        <path id="_x34_04" class="cls-1" d="M555.8,62.2c-.9-.2-1.7-.4-2.5-.2s-1.6.6-2.4,1.2l-18.6,13.4c-1.1.7-1.9,1.4-2.4,1.9-.5.6-.9,1.2-1.1,1.8-.4,1.1-.3,2,.2,2.8s1.3,1.4,2.5,1.8l10.6,3.8-1,2.7c-.4,1.2-.4,2.3,0,3.1s1.2,1.5,2.4,1.9h0c1.2.3,2.1.3,2.9,0,.8-.4,1.5-1.2,1.9-2.4l1-2.7,1.8.6c2.1.7,3.5,0,4.2-1.8s0-3.2-2.1-4l-1.8-.6,6.5-18.3c.3-1.3.4-2.3,0-3.1-.3-.8-1.1-1.4-2.1-1.8h0ZM544.2,83l-7.5-2.7,11.4-8.3-3.9,11ZM586.6,78.2c-1.1-3.7-3.7-6.3-7.7-7.7s-7.6-1-10.8,1.1-5.7,6-7.7,11.5-2.5,10.1-1.4,13.9c1,3.8,3.6,6.4,7.6,7.8h0c4,1.5,7.6,1.2,10.8-1.1s5.8-6.2,7.8-11.7c1.9-5.5,2.4-10.1,1.3-13.8h.1ZM578.1,89.3c-1.4,4-2.9,6.7-4.4,8.2s-3.2,2-5,1.3h0c-1.8-.7-2.9-2.1-3.1-4.2-.2-2.1.4-5.2,1.8-9.1s2.9-6.6,4.4-8c1.5-1.5,3.2-1.9,5-1.2,1.8.6,2.8,2,3.1,4,.3,2.1-.3,5.1-1.7,9h0ZM614.5,84.2c-.3-.8-1.1-1.4-2.1-1.8-.9-.2-1.7-.4-2.5-.2-.8.2-1.6.6-2.4,1.2l-18.6,13.4c-1.1.7-1.9,1.4-2.4,1.9-.5.6-.9,1.2-1.1,1.8-.4,1.1-.3,2,.2,2.8s1.3,1.4,2.5,1.8l10.6,3.8-1,2.7c-.4,1.2-.4,2.3,0,3.1s1.2,1.5,2.4,1.9h0c1.2.3,2.1.3,2.9,0s1.5-1.2,1.9-2.4l1-2.7,1.8.6c2.1.7,3.5,0,4.2-1.8.7-1.9,0-3.2-2.1-4l-1.8-.6,6.5-18.3c.3-1.3.4-2.3,0-3.1h0ZM600.8,103.2l-7.5-2.7,11.4-8.3-3.9,11Z"/>
      </g>
    </g>
  </g>
</svg>