<?xml version="1.0" encoding="UTF-8"?>
<svg xmlns="http://www.w3.org/2000/svg" version="1.1" viewBox="0 0 670 530">
  <defs>
    <style>
      .cls-1 {
        fill: #fff;
      }

      .cls-2, .cls-3 {
        fill: #2577a6;
      }

      .cls-4 {
        fill: #51b77c;
      }

      .cls-3 {
        fill-rule: evenodd;
      }

      .cls-5 {
        fill: #ebc83f;
      }
    </style>
  </defs>
  <!-- Generator: Adobe Illustrator 28.7.5, SVG Export Plug-In . SVG Version: 1.2.0 Build 176)  -->
  <g>
    <g id="TEEMI-Bot-irritable">
      <g id="dialogue">
        <path id="dialogueBg" class="cls-5" d="M577.5,10c-50.7,0-91.8,28.6-91.8,63.8s17.5,43.2,43.9,54.4c0,1.8-.2,3.6-.4,5.4-1.3,13.8-5.1,24.8-8.4,32.2,7.6-3,20.9-9.5,32.6-22.9,2-2.3,3.7-4.5,5.3-6.7,6.1.9,12.4,1.4,18.9,1.4,50.7,0,91.8-28.6,91.8-63.8s-41.1-63.8-91.8-63.8h-.1Z"/>
        <path id="messyLine" class="cls-1" d="M571.1,64.5c-1.4.2-2.8-.9-3.4-2.1-.7-1.5-.4-3.2.4-4.6,1.7-3.1,5.4-4.4,8.7-5,3.1-.6,6.8-.5,9,2.1s2.4,6.3,2.5,9.5c0,3.9-.5,7.9-1.6,11.6-1,3.2-2.4,6.9-5.2,9-3,2.3-6.9,1.7-10.2.6-2.9-1-5.9-2.5-7.8-5-4.9-6.5,4.2-11.8,9.3-13.4,6.4-2,15.7-2.3,20.3,3.4,2.2,2.7,3,6.2,3.4,9.6s.6,6.9,0,10.3-2.1,6.5-4.7,8.9-5.8,3.9-9.2,4.8c-6.5,1.7-13.8.7-19.5-3-2.9-1.9-5-4.8-3.4-8.3,1.4-3.1,3.9-6.1,6.2-8.6s5-4.7,8.3-5.6c3.7-1.1,7.9-.7,11.6,0,6.8,1.2,13.9,4.2,17.2,10.7,1.5,2.8,1.8,6.1.9,9.2-1,3.3-3.3,5.6-6.5,6.9-7.2,2.9-15.7,3.5-23.3,2.2-3.4-.6-7.1-1.3-9.8-3.6-2.3-1.9-3.8-5.5-1.7-8.2,1.8-2.2,5.1-2.9,7.7-3.3,3-.5,6.9-1.1,9.4,1,1.4,1.1,2.2,2.9,2.9,4.5.8,1.8,1.5,3.6,2,5.5.9,3.6,1.2,7.3-1.2,10.3-4.6,5.9-12.8,5.3-19.2,3.3-13.5-4.2-27.4-13.7-30.3-28.4-.4-1.8-.5-3.6-.5-5.3s.2-3.5,1.2-4.9c1.7-2.2,4.9-2.9,7.6-3.2,7.8-.8,15.7.4,23,3.2,3.3,1.2,6.8,2.8,9.2,5.5,2,2.3,3.1,6.3.6,8.6-2.7,2.6-6.8,1.7-9.9.5-3.5-1.3-6.8-3-10-4.9-6.5-3.7-12.6-8.3-18-13.5-2.7-2.7-4.9-5.6-5.7-9.3s0-7.6.9-11.2c.9-3.3,2-6.8,4.3-9.4s5.6-3.9,8.9-4.4c3.4-.5,7.4-.4,9.9,2s4,6.4,5.1,9.7c1.2,3.5,2,7.3,1.9,11,0,2.6-.8,6-4.1,5.7-6.9-.8-14-5.3-17.6-11.2-3.5-5.5-3.4-12.1.4-17.5,3.8-5.3,10.5-7.2,16.7-5.4,6.8,1.9,11.7,7.4,14.3,13.8,3,7.3,3.1,15.2,2.4,22.9-.4,3.9-.7,8.1-1.8,11.9-.9,3.1-3,6.4-6.5,6.9-3.2.4-5.5-2.4-6.1-5.2-.8-3.6.6-7.6,2-10.9,2.6-6,6.8-11.5,12.4-14.9s13.3-4.5,19.7-1.8,10.3,8.6,11.9,15c1.8,7.5.3,15.5-2.5,22.6-2.5,6.3-6.3,12.1-11.6,16.4l2.4,1.8c5.9-10.2,15.2-18.5,26.1-23,.7-.3,1.4-.6,2.2-.8,0,0,.7,0,.7-.2h0c0-.5-.2-.5-.4,0-.7.3-1.4,1.2-1.9,1.7-.7.6-1.4,1.1-2.2,1.7-2.8,2-5.8,3.7-8.9,5.1-5.9,2.7-12.5,3.9-18.5,1-5.5-2.7-9.4-8.1-10-14.2-.3-2.7,0-5.7,1.2-8.2,1.1-2.1,3.1-4,5.7-3.4s4.3,3.2,5.5,5.3c.3.5.6,1,.8,1.5.3.7.4.9-.4,1-1.4.2-2.9.2-4.2,0-5.3-.4-10.4-2.7-14.3-6.2-4.5-4-7.1-9.4-7.8-15.5s-.6-13.6,2.2-19.5c1.1-2.4,3.1-5.6,6.2-4.9s4.5,4.1,5.5,6.8c2.1,6.4,3.2,13.3,2,20-.5,3.1-1.4,6.2-3.2,8.9-1.4,2-3.6,4-6.3,3.5s-4.5-3.2-5.4-5.5c-1.2-3.2-1.5-6.6-1.3-10,.6-6.8,3.8-13.1,7.3-18.8,3.2-5.2,7.5-11.4,14.2-11.9,6.3-.5,10.1,5.5,11.9,10.8,2.2,6.3,2.3,13.2.8,19.7-1.4,6.3-4.2,12.2-7.9,17.5s-8.1,10.4-13.2,14.5c-2.4,2-5,3.6-7.8,5l2,.5c-2.6-5.2,0-11.6,2-16.5s4.8-9.7,7.9-14.1c6.3-8.8,14.6-16.3,24.2-21.3,2.5-1.3,5.3-2.3,7.8-.4,1.9,1.5,3,3.8,3.8,6,2.2,6.1,2.8,12.7,2.2,19.2-.5,5.9-2.1,12-6,16.6-3.4,3.9-8,6.6-12.8,8.3-2.7.9-5.6,1.6-8.4,2s-6.3.9-9.2-.3c-5.3-2.2-5.2-9.1-3.6-13.7l-2.9-.8c-1,3.4-3.8,6-7.2,7.1-1.6.5-3.3.7-5,.4-.3,0-1.1,0-1.2-.3-.2-.2,0-.7.2-1.1.4-1.2,1-2.3,1.7-3.4,1-1.7-1.6-3.2-2.6-1.5-1.3,2.1-4,6.5-1.2,8.3,2,1.3,5.1,1.3,7.4.8,5-.9,9.4-4.6,10.8-9.6.6-1.9-2.3-2.6-2.9-.8-1.7,4.9-1.8,11.3,2.2,15.2,4.4,4.4,11.7,3.1,17.2,2s11.3-3.4,15.9-7c5-3.9,8.1-9.5,9.5-15.7,1.6-6.9,1.6-14.3,0-21.2-1.1-5.2-3.2-12.7-9.2-14.3-3.3-.9-6.5.6-9.3,2.2s-5.3,3.2-7.8,5.1c-4.9,3.6-9.3,7.8-13.1,12.5-4.3,5.3-8,11.1-10.8,17.4s-5.8,14-2.5,20.6c.4.8,1.4.9,2,.5,6.9-3.3,12.6-8.7,17.5-14.5s9-12.4,11.5-19.7,3.1-15.3,1.4-22.8c-1.5-6.4-5.2-14.2-12.3-15.8-7.8-1.8-14.1,4.1-18.2,10-4.5,6.5-8.5,13.9-9.5,21.8-.8,6.4.2,15.9,6.8,19.2,3,1.5,6.4.9,9-1.2s4.3-5.5,5.3-8.7c2.3-7.6,1.7-16-.5-23.5-1-3.5-2.3-7.2-5.3-9.5s-6.7-1.9-9.3.5c-2.6,2.4-4.1,6.3-4.9,9.7-.9,3.7-1.1,7.7-1,11.5.2,7.4,2.1,14.5,7.1,20,4.3,4.7,10.4,7.9,16.7,8.8,1.6.2,3.2.3,4.8.2,1.5,0,3.3-.2,4.2-1.7s.3-3.1-.4-4.6-1.6-2.8-2.6-4.1c-2-2.4-4.9-4.2-8.1-3.7-3,.5-5.3,3-6.5,5.7-2.8,6.4-1.2,14.4,3,19.8,4.4,5.8,11.8,8.8,19.1,7.9,4-.5,7.8-2,11.4-3.8s7-3.9,10.1-6.4c1.3-1.1,3.1-2.3,3.1-4.2s-1.6-2.7-3.2-2.6-3.3,1-4.8,1.6c-1.6.7-3.2,1.4-4.7,2.3-6.1,3.3-11.6,7.8-16,13.1-2.2,2.6-4.2,5.4-5.9,8.4-.9,1.6,1.1,2.9,2.4,1.8,6.4-5.2,10.7-12.5,13.3-20.2,2.8-8.4,3.7-17.9,0-26.3-3.2-7.3-9.5-12.8-17.5-13.9s-16,1.8-21.9,7.2c-2.8,2.6-5.2,5.8-7.1,9.2-2,3.7-3.7,7.8-4,12-.3,3.8.9,7.8,4.1,10.1s7.4,1.6,10.4-.8c3.3-2.7,4.5-7,5.1-11.1.7-4.8,1.3-9.7,1.4-14.5.2-8.6-1.4-17.6-6.7-24.6-4.7-6.3-12.5-10.6-20.6-9.5-7.3,1-13.2,6.7-15,13.8-2,8,2.2,15.8,8.4,20.8,3.3,2.6,7.1,4.5,11.2,5.6,1.9.5,4,1,5.9.2,1.6-.6,2.7-1.9,3.3-3.4,1.5-3.5.9-7.7.2-11.4-.8-4.4-2.3-8.7-4.5-12.6-1-1.8-2.1-3.5-3.8-4.7s-3.7-1.9-5.7-2.1c-4-.5-8.4.2-12,2s-6.1,5.1-7.7,8.8-2.6,8.2-2.9,12.4c-.3,4.2.7,8.7,3.3,12.2,2.6,3.6,5.9,6.4,9.3,9.2,6.8,5.6,14.4,10.2,22.5,13.6,3.8,1.6,8.2,2.6,12.1.5,3.5-1.9,4.8-6,3.7-9.8-1.2-4-4.6-6.7-8.1-8.5-4-2-8.4-3.5-12.8-4.4s-9.1-1.3-13.7-1.1c-3.6.2-7.5.6-10.5,2.8-3.4,2.5-3.8,6.6-3.6,10.5.2,4.2,1.4,8.3,3.3,12.1,3.8,7.7,10.5,13.5,17.9,17.6,3.7,2,7.7,3.7,11.7,5,4.3,1.4,9.1,2.1,13.6,1.1,3.5-.8,6.8-2.8,9-5.8,2.6-3.5,2.6-7.9,1.7-12-.5-2.1-1.2-4.2-2.1-6.2s-1.8-3.9-3.4-5.4c-3-2.8-7.2-2.8-11-2.3-3.4.5-7.1,1.1-9.8,3.4-3,2.5-3.4,6.5-1.8,9.9,1.8,3.8,5.7,5.8,9.5,6.8,4.3,1.2,8.8,1.7,13.3,1.6,4.7,0,9.4-.8,13.9-2.2,3.9-1.2,7.4-3.1,9.4-6.8,3.8-7.1.9-15.4-4.9-20.3-3.3-2.7-7.2-4.5-11.3-5.5s-9-1.7-13.4-1.1c-4.1.5-7.7,2.5-10.7,5.3s-5.7,6.2-7.7,9.7c-2.1,3.8-1.9,7.8,1.1,11,2.7,2.8,6.6,4.6,10.3,5.7,7.7,2.1,16.6.8,23.1-4,6.9-5.1,8.5-13.5,7.6-21.7-.4-3.9-1.2-8.1-3.4-11.5-2.3-3.5-5.9-5.5-9.9-6.4-4.3-.9-8.9-.7-13.1.4-4,1.1-8.1,2.9-11,5.9-2.6,2.7-4,6.5-2.6,10.1,1.3,3.4,4.5,5.8,7.6,7.3,3.6,1.8,7.9,3,12,2.1s6.7-4.1,8.4-7.7c1.9-4.1,3.1-8.5,3.5-13,.4-4.2.3-8.8-1.3-12.7-1.5-3.7-4.5-6-8.5-6.4s-8.4.6-11.7,2.6-5.7,5.4-5.2,9.3c.5,3.9,3.8,6.5,7.5,6,.8,0,1.2-1.1,1-1.8-.2-.9-1-1.2-1.8-1h-.3.2Z"/>
      </g>
      <path id="foot" class="cls-2" d="M294.1,496.9s29.6-.2,58-1.9c-11.6,11.6-38.1,35.4-60.1,34.9-20.9-.4-45.8-22.6-58.3-35.1,29.2,1.8,60.4,2,60.4,2h0Z"/>
      <g id="body">
        <path id="bodyShadow" class="cls-2" d="M323.4,452.5c-46.8,5.1-117.2-7.5-162.2-34.8-14.8-8.5-27.1-17.7-35.6-26.3-14.1-14.5-22.6-38.1-27.6-58.6,0,5,.2,9.7.5,13.7,1.6,18,8.5,57.7,27.5,78.6,7.1,7.6,17.3,15.8,29.5,23.5,37.4,24.7,95.7,39,135.2,38h.4c38.9.5,95.6-13.6,132.6-37.9,12.9-8,23.6-16.6,30.9-24.5,7.1-7.6,12.4-16.8,16.5-26.6-41.8,30.9-103.5,51.8-147.3,54.9h-.5.1Z"/>
        <path id="bodyMain" class="cls-4" d="M482.2,345.7v-3.6c.2-17.5,4.1-135.8-8.7-159.1-4-5.6-8.8-10.9-14.3-15.6-3.2-2.7-6.6-5.3-10.2-7.6-26-16.3-62.2-24.8-94.9-28.6-1.7-.2-3.4-.4-5.1-.6-18.5-1.9-35.6-2.4-49-2.5h-26.1c-38.2,0-106.6,4.9-148.8,31.4-45,27.2-24.8,143.1-26,152.4-.9,7-1.2,14.2-1.2,20.8,5,20.5,13.5,44.1,27.6,58.6,8.5,8.6,20.8,17.8,35.5,26.3,45,27.4,115.4,40,162.2,34.8h.5c43.8-3.1,105.5-24,147.3-54.9,3.5-8.5,6.1-17.5,7.9-26.5,1.7-8.6,2.9-17.2,3.2-25.5h0v.2h.1Z"/>
      </g>
      <g id="tele">
        <path id="tube" class="cls-2" d="M358.7,78.8c-6.6.2-11.9,5.8-11.7,12.5.2,4.8,3.1,8.9,7.2,10.7l-3.7,28.2c-.2,1.5.8,2.8,2.3,3h.4c1.3,0,2.5-1,2.7-2.3l3.7-27.9h0c3.2,0,6.2-1.5,8.4-3.9,2.1-2.2,3.2-5.2,3.2-8.3v-.4c-.1-3.2-1.5-6.2-3.8-8.4-2.4-2.2-5.5-3.3-8.7-3.2h0Z"/>
        <path id="leftWave1" class="cls-2" d="M390.7,71.7c-1.4-.6-3,0-3.5,1.4-.6,1.4,0,3,1.4,3.5,2.3,1,4.2,3.3,5,6.2,1,3.4.2,7-2,10.2-.9,1.2-.5,2.9.7,3.7.5.3,1,.5,1.5.5.9,0,1.7-.4,2.2-1.2,3.1-4.6,4.1-9.8,2.7-14.7-1.2-4.3-4.2-7.9-8-9.6h0Z"/>
        <path id="leftWave2" class="cls-2" d="M419,75.2c-1.8-6.6-6.4-12-12.1-14.5-1.4-.6-3,0-3.5,1.4-.6,1.4,0,3,1.4,3.5,4.3,1.9,7.6,6,9.1,11.1,1.7,6,.5,12.4-3.5,18-.9,1.2-.5,2.9.7,3.8.5.3,1,.5,1.5.5.9,0,1.7-.4,2.2-1.2,4.8-7,6.3-14.9,4.2-22.5h0Z"/>
        <path id="rightWave1" class="cls-2" d="M326.3,63.3c-4,1-7.6,4-9.6,8-2.2,4.6-2.2,10,.1,15,.5,1,1.4,1.6,2.5,1.6s.8,0,1.1-.2c1.4-.6,2-2.2,1.3-3.6-1.6-3.6-1.7-7.3-.1-10.4,1.3-2.6,3.5-4.5,6-5.2,1.4-.3,2.3-1.8,2-3.2-.4-1.4-1.8-2.3-3.2-2h0Z"/>
        <path id="rightWave2" class="cls-2" d="M315.4,51.6c-.4-1.4-1.8-2.3-3.3-2-6.1,1.5-11.5,6.1-14.4,12.2-3.4,7-3.3,15.2.2,22.9.5,1,1.4,1.6,2.5,1.6s.8,0,1.1-.2c1.4-.6,1.9-2.2,1.3-3.6-2.9-6.2-2.9-12.7-.2-18.3,2.3-4.7,6.3-8.2,10.9-9.3,1.4-.4,2.3-1.8,2-3.3h-.1Z"/>
      </g>
      <path id="rightHand" class="cls-4" d="M160.7,337.1c-12,4-23.2,9.5-33.6,15.6-37.1,21.9-63.3,52.6-77.3,58.8-.5.2-1,.4-1.5.5-.3.1-.6.2-.9.3-.3.1-.6.2-1,.2h-1.3c-15.1-1.6-24.8-22.3,4-83.7,5.9-12.6,12.4-23.8,19-33.5,16.3-24.1,51.5-26.6,70.1-4.2,9.2,11.1,17.6,26.1,22.5,46.1h0Z"/>
      <path id="leftHand" class="cls-4" d="M412.3,337.1c12,4,23.2,9.5,33.6,15.6,37.1,21.9,63.3,52.6,77.3,58.8.5.2,1,.4,1.5.5.3.1.6.2.9.3.3.1.6.2,1,.2h1.3c15.1-1.6,24.8-22.3-4-83.7-5.9-12.6-12.4-23.8-19-33.5-16.3-24.1-51.5-26.6-70.1-4.2-9.2,11.1-17.6,26.1-22.5,46.1h0Z"/>
      <g id="head">
        <path id="face" class="cls-1" d="M415.5,302.6c-28.1,11.5-81.8,11.5-124.5,11.5s-96.4,0-124.5-11.5c-28.1-11.5-39.7-82.1-27-105.7,12.8-23.5,85.6-39.5,151.4-39.5s138.7,15.9,151.4,39.5c12.8,23.6,1.1,94.2-27,105.7h.2Z"/>
        <path id="mouth" class="cls-2" d="M289.9,269h2.6c9.7.6,17.9,4.3,22.6,10.1,1.5,1.8,1.1,4.5-.7,6-1.8,1.5-4.5,1.2-6-.7-3.1-3.9-9.3-6.5-16.5-7-8.8-.5-17.3,2.1-22.2,7-1.7,1.6-4.3,1.6-6,0-1.6-1.7-1.6-4.3,0-6,6-6,15.8-9.5,26-9.5h.2,0Z"/>
        <path id="leftEye" class="cls-3" d="M386.1,206.1l-35,19c-1.9,1-2.1,3.6-.5,5,4.4,3.9,13.5,9.1,25.8,2.8,12.1-6.3,14.1-17.6,14.2-24.1,0-2.4-2.5-3.9-4.5-2.7h0Z"/>
        <path id="rightEye" class="cls-3" d="M234.5,223.7c-9-4.3-34-15.9-42.5-19.8-1.4-.7-3,.4-3,2,0,5.9,1.6,18.1,12.5,23.4,14.7,7.3,27.6,1.6,33.3-1.9,1.5-.9,1.4-3-.2-3.7h-.1Z"/>
      </g>
    </g>
  </g>
</svg>