<?xml version="1.0" encoding="UTF-8"?>
<svg xmlns="http://www.w3.org/2000/svg" version="1.1" viewBox="0 0 670 530">
  <defs>
    <style>
      .cls-1 {
        fill: #fff;
      }

      .cls-2 {
        fill: #2577a6;
      }

      .cls-3 {
        fill: #51b77c;
      }

      .cls-4 {
        fill: #ebc83f;
      }
    </style>
  </defs>
  <!-- Generator: Adobe Illustrator 28.7.5, SVG Export Plug-In . SVG Version: 1.2.0 Build 176)  -->
  <g>
    <g id="TEEMI-Bot-love">
      <path id="foot" class="cls-2" d="M336.6,496.9s29.6-.2,58-1.9c-11.6,11.6-38.1,35.4-60.1,34.9-20.9-.4-45.8-22.6-58.3-35.1,29.2,1.8,60.4,2,60.4,2h0Z"/>
      <path id="rightHand" class="cls-3" d="M191.7,288.2c-12-4-23.2-9.5-33.6-15.6-37.1-21.9-63.3-52.6-77.3-58.8-.5-.2-1-.4-1.5-.6-.3-.1-.6-.2-.9-.3-.3-.1-.6-.2-1-.2h-1.3c-15.1,1.6-24.8,22.3,4,83.7,5.9,12.6,12.4,23.8,19,33.5,16.3,24.1,51.5,26.6,70.1,4.2,9.2-11.1,17.6-26.1,22.5-46.1h0v.2h0Z"/>
      <path id="rightHand-2" data-name="rightHand" class="cls-3" d="M191.7,288.2c-12-4-23.2-9.5-33.6-15.6-37.1-21.9-63.3-52.6-77.3-58.8-.5-.2-1-.4-1.5-.6-.3-.1-.6-.2-.9-.3-.3-.1-.6-.2-1-.2h-1.3c-15.1,1.6-24.8,22.3,4,83.7,5.9,12.6,12.4,23.8,19,33.5,16.3,24.1,51.5,26.6,70.1,4.2,9.2-11.1,17.6-26.1,22.5-46.1h0v.2h0Z"/>
      <path id="leftHand" class="cls-3" d="M475,288.2c12-4,23.2-9.5,33.6-15.6,37.1-21.9,63.3-52.6,77.3-58.8.5-.2,1-.4,1.5-.6.3-.1.6-.2.9-.3.3-.1.7-.2,1-.2h1.3c15.1,1.6,24.8,22.3-4,83.7-5.9,12.6-12.4,23.8-19,33.5-16.3,24.1-51.5,26.6-70.1,4.2-9.2-11.1-17.6-26.1-22.5-46.1h0v.2h0Z"/>
      <g id="body">
        <path id="bodyShadow" class="cls-2" d="M365.9,452.5c-46.8,5.1-117.2-7.5-162.2-34.8-14.8-8.5-27.1-17.7-35.6-26.3-14.1-14.5-22.6-38.1-27.6-58.6,0,5,.2,9.7.5,13.7,1.6,18,8.5,57.7,27.5,78.6,7.1,7.6,17.3,15.8,29.5,23.5,37.4,24.7,95.8,39,135.2,38h.4c38.9.5,95.6-13.6,132.6-37.9,12.9-8,23.6-16.6,30.9-24.5,7-7.6,12.4-16.8,16.5-26.6-41.8,30.9-103.6,51.8-147.3,54.9h-.5.1Z"/>
        <path id="bodyMain" class="cls-3" d="M524.7,345.7v-3.6c.2-17.5,4.1-135.8-8.7-159.1-4-5.6-8.8-10.9-14.3-15.6-3.2-2.7-6.6-5.3-10.2-7.6-26-16.3-62.2-24.8-94.9-28.6-1.7-.2-3.4-.4-5.1-.6-18.5-1.9-35.6-2.4-49-2.5h-26.1c-38.2,0-106.6,4.9-148.8,31.4-45,27.2-24.8,143.1-26,152.4-.9,7-1.2,14.2-1.2,20.8,5,20.5,13.5,44.1,27.6,58.6,8.5,8.6,20.8,17.8,35.5,26.3,45,27.4,115.4,40,162.2,34.8h.5c43.8-3.1,105.5-24,147.3-54.9,3.5-8.5,6.1-17.5,7.9-26.5,1.7-8.6,2.9-17.2,3.2-25.5h0v.2h.1Z"/>
      </g>
      <g id="tele">
        <path id="tube" class="cls-2" d="M401.2,78.8c-6.6.2-11.9,5.8-11.7,12.5.2,4.8,3.1,8.9,7.2,10.7l-3.7,28.2c-.2,1.5.8,2.8,2.3,3h.4c1.3,0,2.5-1,2.7-2.3l3.7-27.9h0c3.2,0,6.2-1.5,8.4-3.9,2.1-2.2,3.2-5.2,3.2-8.3v-.4c-.1-3.2-1.5-6.2-3.8-8.4-2.4-2.2-5.5-3.3-8.7-3.2h0Z"/>
        <path id="leftWave1" class="cls-2" d="M433.2,71.7c-1.4-.6-3,0-3.5,1.4-.6,1.4,0,3,1.4,3.5,2.3,1,4.2,3.3,5,6.1,1,3.4.2,7-2,10.2-.9,1.2-.5,2.9.7,3.7.5.3,1,.5,1.5.5.9,0,1.7-.4,2.2-1.2,3.1-4.5,4.1-9.8,2.7-14.7-1.2-4.3-4.2-7.9-8-9.6h0Z"/>
        <path id="leftWave2" class="cls-2" d="M461.5,75.2c-1.8-6.6-6.4-12-12.1-14.5-1.4-.6-3,0-3.5,1.4-.6,1.4,0,3,1.4,3.5,4.3,1.9,7.6,6,9.1,11.1,1.7,6,.5,12.4-3.5,18-.9,1.2-.5,2.9.7,3.8.5.3,1,.5,1.5.5.9,0,1.7-.4,2.2-1.2,4.8-7,6.3-15,4.2-22.5h0Z"/>
        <path id="rightWave1" class="cls-2" d="M368.8,63.3c-4,1-7.6,4-9.6,8-2.2,4.6-2.2,10,.1,15,.5,1,1.4,1.6,2.5,1.6s.8,0,1.1-.2c1.4-.6,2-2.2,1.3-3.6-1.6-3.6-1.7-7.3-.1-10.4,1.3-2.6,3.5-4.6,6-5.2,1.4-.4,2.3-1.8,2-3.2-.4-1.4-1.8-2.3-3.2-2h0Z"/>
        <path id="rightWave2" class="cls-2" d="M358,51.6c-.4-1.4-1.8-2.3-3.3-2-6.1,1.5-11.5,6.1-14.4,12.2-3.4,7.1-3.3,15.2.2,22.9.5,1,1.4,1.6,2.5,1.6s.8,0,1.1-.2c1.4-.6,1.9-2.2,1.3-3.6-2.9-6.2-2.9-12.7-.2-18.3,2.3-4.7,6.3-8.2,10.9-9.3,1.4-.4,2.3-1.8,2-3.3h-.1Z"/>
      </g>
      <g id="head">
        <path id="face" class="cls-1" d="M458,302.6c-28.1,11.5-81.8,11.5-124.5,11.5s-96.4,0-124.5-11.5-39.7-82.1-27-105.7c12.8-23.5,85.6-39.5,151.4-39.5s138.7,15.9,151.4,39.5c12.8,23.6,1.1,94.2-27,105.7h.2Z"/>
        <path id="mouth" class="cls-2" d="M355.8,255.3l-47.1,2.7c-5.8.3-9.9,6.2-7.8,11.7,13.2,35.2,51.8,35.9,63.8-2.9,1.8-5.9-2.7-11.9-8.9-11.6h0Z"/>
        <path id="leftEye" class="cls-2" d="M395.5,195.1c-14.5,0-26.1,11.7-26.1,26.1s11.7,26.1,26.1,26.1,26.1-11.7,26.1-26.1-11.7-26.1-26.1-26.1ZM386.9,216c-3.9,5.5-11,15.2-12.3,5.5s8-23.5,15.5-20.6c4,1.6.6,9.6-3.2,15.1h0ZM402.2,238.9c-2.1-1.2.4-5.4,3-8.2s7-4.6,7,.9-5.9,9.5-9.9,7.3h-.1Z"/>
        <path id="rightEye" class="cls-2" d="M260.1,199c-14.4,0-26.2,11.7-26.2,26.1s11.7,26.1,26.2,26.1,26.1-11.7,26.1-26.1-11.7-26.1-26.1-26.1ZM250.7,220c-3.9,5.5-11,15.2-12.3,5.5s7.9-23.5,15.5-20.6c4,1.6.6,9.6-3.2,15.1ZM279.8,235.6c0,5.5-5.9,9.5-9.9,7.3-2.1-1.2.4-5.4,2.9-8.2,2.6-2.8,7-4.6,7,.9h0Z"/>
      </g>
      <g id="heart">
        <path id="heart2" class="cls-4" d="M631.7,75.6c-5.5-.5-10.5,2.4-13.2,6.8-1.8-4.9-6.3-8.5-11.8-9-7.7-.6-14.4,5-15,12.7-1.5,18.1,16.6,24.9,23.8,32.5,10.6-9,27.4-9.9,28.9-28,.7-7.7-5-14.4-12.7-15h0Z"/>
        <path id="heart3" class="cls-4" d="M531.9,53.7c3-1.4,6.3-.9,8.7,1,0-3.1,1.7-6,4.7-7.4,4.1-2,9-.2,10.9,3.9,4.6,9.7-4,17.2-6.4,22.9-7.8-2.8-17.2.2-21.8-9.5-2-4.1-.2-9,3.9-10.9h0Z"/>
        <path id="heart1" class="cls-4" d="M598,141.9c-6.7-2.6-14-.8-18.9,3.8-.5-6.7-4.8-12.8-11.5-15.4-9.3-3.6-19.7,1.1-23.3,10.4-8.4,22,11.7,37,18,49,16.5-7.4,37.7-2.5,46.1-24.5,3.6-9.3-1.1-19.7-10.4-23.3h0Z"/>
      </g>
    </g>
  </g>
</svg>