<?xml version="1.0" encoding="UTF-8"?>
<svg xmlns="http://www.w3.org/2000/svg" version="1.1" viewBox="0 0 670 530">
  <defs>
    <style>
      .cls-1 {
        fill: #fff;
      }

      .cls-2 {
        fill: #2577a6;
      }

      .cls-3 {
        fill: #51b77c;
      }

      .cls-4 {
        fill: #ebc83f;
      }
    </style>
  </defs>
  <!-- Generator: Adobe Illustrator 28.7.5, SVG Export Plug-In . SVG Version: 1.2.0 Build 176)  -->
  <g>
    <g id="TEEMI-Bot-search">
      <path id="leftHand" class="cls-3" d="M469,284.3c11.8,1.4,23.5,1.2,34.7.2,40.2-3.8,74.7-19.4,89-19,.5,0,1,0,1.5.1.3,0,.6,0,.9.1.3,0,.6.1.9.2h0c.4.1.8.3,1.1.5,12.1,7.4,12.1,28.8-36.8,69.4-10.1,8.4-20,15.2-29.5,20.8-23.5,13.9-54.3,2.1-61.1-24.4-3.4-13.1-4.5-29.2-.7-48.1h0v.2h0Z"/>
      <path id="foot" class="cls-2" d="M336.8,496.9s29.6-.2,58-1.9c-11.6,11.6-38.1,35.4-60.1,34.9-20.9-.4-45.8-22.6-58.3-35.1,29.2,1.8,60.4,2,60.4,2h0Z"/>
      <g id="body">
        <path id="bodyShadow" class="cls-2" d="M357.4,452.5c-46.8,5.1-117.2-7.5-162.2-34.8-14.8-8.5-27.1-17.7-35.6-26.3-14.1-14.5-22.6-38.1-27.6-58.6,0,5,.2,9.7.5,13.7,1.5,18,8.5,57.7,27.5,78.6,7.1,7.6,17.3,15.8,29.5,23.5,37.4,24.7,95.7,39,135.2,38h.4c38.9.5,95.6-13.6,132.6-37.9,12.9-8,23.6-16.6,30.9-24.5,7.1-7.6,12.4-16.8,16.5-26.6-41.8,30.9-103.5,51.8-147.3,54.9h-.5.1Z"/>
        <path id="bodyMain" class="cls-3" d="M516.2,345.7v-3.6c.2-17.5,4.1-135.8-8.7-159.1-4-5.6-8.8-10.9-14.3-15.6-3.2-2.7-6.6-5.3-10.2-7.6-26-16.3-62.2-24.8-94.9-28.6-1.7-.2-3.4-.4-5.1-.6-18.5-1.9-35.6-2.4-49-2.5h-26.1c-38.2,0-106.6,4.9-148.8,31.4-45,27.2-24.8,143.1-26,152.4-.9,7-1.2,14.2-1.2,20.8,5,20.5,13.5,44.1,27.6,58.6,8.5,8.6,20.8,17.8,35.6,26.3,45,27.4,115.4,40,162.2,34.8h.5c43.8-3.1,105.5-24,147.3-54.9,3.5-8.5,6.1-17.5,7.9-26.5,1.7-8.6,2.9-17.2,3.2-25.5h0v.2h0Z"/>
      </g>
      <g id="glass">
        <path class="cls-4" d="M594.9,145.5c-30,1.4-53.3,26.9-52,56.9.7,14.5,6.9,27.9,17.7,37.8,9.6,8.8,21.8,13.7,34.7,14.2h4.5c1.9,0,3.7-.2,5.5-.5,4.8-.7,9.3-2,13.7-3.9,7-3,13.3-7.5,18.6-13.3,4.9-5.4,8.6-11.5,11-18.2,2.4-6.6,3.5-13.8,3.2-21-1.3-30-26.9-53.3-56.9-51.9h0ZM638.7,198c.5,11.1-3.3,21.6-10.8,29.8s-17.7,12.9-28.7,13.4-21.6-3.3-29.8-10.8-12.9-17.7-13.4-28.7c-.8-17.7,9.6-33.3,25-39.9,4.5-1.9,9.4-3.1,14.5-3.3,19.9-.9,37.3,12.5,42,31.1.7,2.7,1.1,5.5,1.2,8.4h0Z"/>
        <path class="cls-4" d="M595.2,249.3l1.5,83.8c0,4,3.3,7.1,7.3,7.1s7.1-3.4,7.1-7.3v-.4l-6.1-83.6c-.2-2.7-2.5-4.7-5.2-4.5-2.6.2-4.6,2.4-4.5,5h0Z"/>
      </g>
      <g id="tele">
        <path id="rightWave2" class="cls-2" d="M136.8,122.6c.5,0,1-.3,1.4-.7,1.1-1,1.1-2.7,0-3.8-4.6-4.9-6.8-10.9-6.1-17,.6-5.1,3.3-9.7,7.2-12.1,1.2-.8,1.6-2.4.8-3.7-.8-1.2-2.4-1.6-3.7-.8-5.2,3.3-8.8,9.3-9.6,16-.9,7.7,1.7,15.2,7.5,21.3.6.7,1.5.9,2.3.8"/>
        <path id="tube" class="cls-2" d="M201.9,144l-7.9-27c3.8-2.4,6.1-6.8,5.6-11.6-.8-6.5-6.8-11.2-13.3-10.4-3.1.4-5.9,2-7.9,4.5s-2.9,5.6-2.5,8.8c.3,3.2,1.9,6,4.4,8,2.5,2,5.5,2.9,8.7,2.5l7.8,26.7c.4,1.3,1.7,2.1,2.9,1.9h0c0-.1.3-.1.3-.1,1.4-.4,2.2-1.9,1.8-3.3Z"/>
        <path id="rightWave1" class="cls-2" d="M154.9,118.3c.5,0,1-.3,1.4-.7,1.1-1,1.1-2.7,0-3.8-2.6-2.8-3.9-6.2-3.4-9.7.3-2.9,1.8-5.4,3.9-6.7,1.2-.8,1.6-2.4.8-3.7-.8-1.2-2.4-1.6-3.7-.8-3.4,2.2-5.8,6.2-6.3,10.6-.6,5,1.1,10,4.9,14,.6.7,1.5.9,2.3.8h0Z"/>
        <path id="leftWave1" class="cls-2" d="M226.1,98.1c1-.2,1.9-.9,2.1-1.9,1.5-5.3.7-10.5-2.1-14.6-2.5-3.6-6.4-6.1-10.5-6.4-1.5,0-2.7,1-2.9,2.4-.1,1.5.9,2.7,2.4,2.9,2.5.2,5,1.8,6.6,4.1,2,2.9,2.5,6.5,1.4,10.2-.4,1.4.4,2.9,1.8,3.3h1.2Z"/>
        <path id="leftWave2" class="cls-2" d="M244.2,93.7c1-.2,1.9-.9,2.1-1.9,2.3-8,1.1-16-3.2-22.3-3.8-5.6-9.7-9.2-15.9-9.8-1.4,0-2.8.9-2.9,2.4-.1,1.5.9,2.8,2.4,2.9,4.6.4,9.1,3.2,12,7.5,3.5,5,4.3,11.4,2.5,17.9-.4,1.4.4,2.9,1.8,3.3h1.2,0Z"/>
      </g>
      <g id="head">
        <path id="face" class="cls-1" d="M459.2,293.9c-24.5,8.8-84.1,10.9-120.6,8-35.6-2.8-75.8-9.4-98-18.1-22.2-8.9-30.5-57.7-19.9-74.1,10.6-15.5,68.1-34.3,120.2-36.2,66.9-2.4,103.4,2.1,117.5,26.3,6.9,11.6,22.2,32.8,23.9,55.6,1.8,24.1-11,34.1-23,38.4h-.1Z"/>
        <path id="leftEye" class="cls-2" d="M450.3,242.8c-1.8,0-3.3-1.2-3.8-2.9,0-.3-.9-3.1-2.5-6.4-1-2-.1-4.4,1.9-5.3,2-.9,4.4-.1,5.3,1.9,1.9,3.9,2.8,7.1,3,7.7.3,1.1.1,2.3-.5,3.3s-1.6,1.6-2.8,1.8h-.6ZM412.2,242.8h-.7c-2.1-.4-3.6-2.5-3.2-4.6,0-.3,1.4-7.4,5.5-13.7,1.2-1.8,3.7-2.4,5.5-1.2s2.4,3.7,1.2,5.5c-3.2,5-4.4,10.8-4.4,10.8-.4,1.9-2,3.2-3.9,3.2h0ZM439.7,225.2c-.9,0-1.8-.3-2.5-.9-2.3-1.9-4.7-2.6-7.4-2.3-.5,0-1,.2-1.5.3-2.1.6-4.3-.6-4.9-2.7s.6-4.3,2.7-4.9c.8-.2,1.7-.4,2.6-.5,4.9-.7,9.4.7,13.4,3.9,1.7,1.4,2,3.9.6,5.6-.8,1-1.9,1.5-3.1,1.5h0Z"/>
        <path id="rightEye" class="cls-2" d="M266.2,242.8c-.3,0-.6,0-.9-.1-2.1-.5-3.4-2.6-2.9-4.8,0-.3,1.7-7.1,6.6-13.4,1.4-1.7,3.9-2,5.6-.7,1.7,1.4,2,3.9.7,5.6-3.8,4.8-5.1,10.2-5.1,10.3-.4,1.8-2.1,3.1-3.9,3.1h-.1ZM313.4,241.3c-1.6,0-3-.9-3.7-2.4-.9-2.2-3-6.4-6.3-10.2-1.4-1.6-1.3-4.2.4-5.6,1.6-1.5,4.2-1.3,5.6.4,4.1,4.6,6.5,9.7,7.6,12.3.9,2,0,4.4-2.1,5.2-.5.2-1,.3-1.6.3h.1ZM282.6,223.2c-1.6,0-3.2-1-3.8-2.6-.7-2.1.3-4.3,2.4-5.1,1.9-.7,3.9-1.1,6-1.4,3.3-.4,6.4,0,9.5.8,2.1.6,3.3,2.9,2.7,5-.6,2.1-2.9,3.3-5,2.7-2-.6-4.1-.8-6.3-.6-1.5.2-2.9.5-4.2,1-.4.2-.9.2-1.3.2h0Z"/>
        <path id="mouth" class="cls-2" d="M374,281.1c-9.2,2.9-18,.5-24.9-6.7-1.9-2-1.8-5.1.2-7s5.1-1.8,7,.2c4.3,4.5,9.1,5.8,14.7,4.1,3.3-1,5.6-2.9,7.1-5.6,1.3-2.4,4.3-3.3,6.7-2,2.4,1.3,3.3,4.3,2,6.7-2.7,5.1-7.1,8.6-12.9,10.4h0Z"/>
      </g>
      <path id="leftHand2" class="cls-3" d="M629,266.9c5.7,9.9,4.4,21.3-3,25.5s-17.9-.3-23.6-10.2-4.4-21.3,3-25.5,17.9.3,23.6,10.2Z"/>
      <path id="rightHand" class="cls-3" d="M202.3,352.2c-12,4-23.2,9.5-33.6,15.6-37.1,21.9-63.3,52.6-77.3,58.8-.5.2-1,.4-1.5.5-.3.1-.6.2-.9.3-.3.1-.6.2-1,.2h-1.3c-15.1-1.6-24.8-22.3,4-83.7,5.9-12.6,12.4-23.8,19-33.5,16.3-24.1,51.5-26.6,70.1-4.2,9.2,11.1,17.6,26.1,22.5,46.1h0Z"/>
    </g>
  </g>
</svg>