<?xml version="1.0" encoding="UTF-8"?>
<svg xmlns="http://www.w3.org/2000/svg" version="1.1" viewBox="0 0 670 530">
  <defs>
    <style>
      .cls-1 {
        fill: #fff;
      }

      .cls-2 {
        fill: #2577a6;
      }

      .cls-3 {
        fill: #51b77c;
      }

      .cls-4 {
        fill: #ebc83f;
      }
    </style>
  </defs>
  <!-- Generator: Adobe Illustrator 28.7.5, SVG Export Plug-In . SVG Version: 1.2.0 Build 176)  -->
  <g>
    <g id="TEEMI-Bot-tool">
      <g id="dialogue">
        <path id="dialogueBg" class="cls-4" d="M586.4,13.8h0c-46.1.1-83.6,26.1-83.6,58.2s15.3,38.6,38.5,48.9c-.7,1.6-1.5,3.2-2.4,4.8-5.9,11.2-12.9,19.2-18.1,24.3,7.4,0,20.8-.8,35.3-8.1,7.8-3.9,13.6-8.6,17.9-12.5,4,.4,8.2.6,12.4.6,46.2,0,83.6-26,83.6-58.1s-37.4-58.1-83.6-58.1Z"/>
        <path id="gear" class="cls-1" d="M634.9,100.2c-1-1.2-2.3-2.2-3.5-3.1-.2-.2-.5-.4-.5-.7v-.9c.2-.6.2-1.2.2-1.8v-1.8c0-1.2-.3-2.4-.6-3.5,0-.7,0-1.4.5-1.8,1.1-1,2.1-2.1,3.1-3.3.5-.5.5-1.4,0-2.2l-.7-1.2c-.3-.4-.5-.7-.8-1.1-.2-.4-.6-.6-.9-.8h-1c-1.5.4-3,.8-4.4,1.5s-1.3.2-1.8-.2c-.9-.7-1.9-1.4-3-1.9-.5-.2-1-.5-1.6-.7-.6-.2-1.1-.5-1.7-.5-.3,0-.6-.3-.8-.5-.3-.2-.5-.5-.5-.8-.3-1.4-.8-2.9-1.3-4.3-.2-.6-1-1-1.9-1h-2.8c-.9.2-1.6.6-1.8,1.3-.4,1.6-.7,3.1-.9,4.6,0,.6-.5,1.2-1.1,1.4l-1.6.8-1.5.9-1.4,1.1-1.3,1.2c-.5.5-1.2.7-1.8.5-1.4-.5-2.9-.9-4.4-1.1-.7,0-1.4.3-1.9,1.1-.5.7-.8,1.6-1.2,2.4-.4.8-.3,1.7.2,2.2,1,1.2,2.3,2.2,3.5,3.1.2.2.5.4.5.7v.9c-.2.6-.2,1.2-.2,1.8v1.8c0,1.2.3,2.4.6,3.5,0,.7,0,1.4-.5,1.8-1.1,1-2.1,2.1-3.1,3.3-.5.5-.5,1.4,0,2.2l.7,1.2c.3.4.5.7.8,1.1.2.4.6.6.9.8h1c1.5-.4,3-.8,4.4-1.5s1.3-.2,1.8.2c.9.7,1.9,1.4,3,1.9.5.2,1,.5,1.6.7.6.2,1.1.5,1.7.5.3,0,.6.3.8.5.3.2.5.5.5.8.3,1.4.8,2.9,1.3,4.3.2.6,1,1,1.9,1h2.8c.9-.2,1.6-.6,1.8-1.3.4-1.6.7-3.1.9-4.6,0-.6.5-1.2,1.1-1.4l1.6-.8,1.5-.9,1.4-1.1,1.3-1.2c.5-.5,1.2-.7,1.8-.5,1.4.5,2.9.9,4.4,1.1.7,0,1.4-.3,1.9-1.1.5-.7.8-1.6,1.2-2.4.4-.8.3-1.7-.2-2.2ZM621.9,96.1l-.3.5c0,.2-.2.3-.2.5s-.2.3-.3.5c0,.2-.2.3-.3.5-.2.3-.4.6-.7.9-.5.6-1.1,1-1.7,1.5-.7.4-1.3.8-2,1-.3.2-.7.2-1.1.3h-4.4l-.5-.3c-.2,0-.3-.2-.5-.2s-.3-.2-.5-.3c-.2,0-.3-.2-.5-.3-.3-.2-.6-.4-.9-.7-.6-.5-1-1.1-1.5-1.7-.4-.7-.8-1.3-1-2-.2-.3-.2-.7-.3-1.1v-4.8l.3-.5c0-.2.2-.3.2-.5s.2-.3.3-.5c0-.2.2-.3.3-.5.2-.3.4-.6.7-.9.5-.6,1.1-1,1.7-1.5.7-.4,1.3-.8,2-1,.3-.2.7-.2,1.1-.3h4.3l.5.3c.2,0,.3.2.5.2s.3.2.5.3c.2,0,.3.2.5.3.3.2.6.4.9.7.6.5,1,1.1,1.5,1.7.4.7.8,1.3,1,2,.2.3.2.7.3,1.1v1.2h.1v3.6ZM590.7,79.6l.2-.3h.2l-.4.3ZM600.6,55c-.2-.7-.7-1.3-1.3-1.3-1.4-.3-2.8-.5-4.2-.5-.6,0-1.1-.5-1.3-1-.3-1.1-.8-2-1.3-3-.2-.2-.4-.5-.4-.7l-.4-.7-.9-1.4c-.3-.5-.3-1.1,0-1.6.8-1.1,1.4-2.4,2.1-3.6.3-.6.2-1.3-.3-1.8l-1.5-1.6c-.5-.4-1.3-.6-1.8-.4-1.3.6-2.6,1.2-3.8,1.9-.5.4-1.1.3-1.6,0-.4-.3-.8-.6-1.3-.9l-1.4-.8c-.9-.5-1.9-.9-2.9-1.4-.5-.3-.9,0-.9-1.4s-.2-2.7-.2-4.1-.5-1.2-1.2-1.4l-2.1-.5c-.7-.2-1.4.1-1.7.6-.8,1.2-1.5,2.5-2.2,3.7-.3.6-.8.8-1.4.8h-3.2c-1.1,0-2.2.2-3.2.4-.6.1-1.2-.2-1.5-.7-.7-1.1-1.5-2.2-2.4-3.3-.4-.5-1.1-.7-1.8-.5-.7.3-1.4.5-2.1.8-.6.3-1.1-.1-1.1,1.4s.2,2.9.2,4.3-.3,1.1-.8,1.4l-1.4.9c-.4.3-.9.5-1.3.9-.9.6-1.7,1.2-2.5,2-.4.3-1.1.5-1.6.3-1.2-.6-2.5-1-3.8-1.5-.6-.2-1.3.1-1.8.6s-.9,1.1-1.3,1.7c-.4.6-.5,1.3-.2,1.8.8,1.2,1.6,2.4,2.5,3.5.3.5.4,1.1.1,1.6-.5,1-.9,2-1.4,3-.3,1.1-.7,2.1-1,3.1,0,.6-.6,1.1-1.2,1.1-1.4.2-2.7.5-4.1.8-.6.1-1.1.7-1.1,1.4,0,.7-.2,1.5-.2,2.2s.4,1.4.9,1.6c1.3.6,2.5,1.1,3.9,1.6.6.2,1,.7,1,1.3.1,1.1.3,2.1.5,3.2.1.6.3,1.1.4,1.6l.4,1.5c.2.6.1,1.2-.4,1.6-1,.9-2,1.9-3,2.9-.5.4-.5,1.2-.2,1.8s.6,1.3,1,1.9c.4.6,1,.9,1.6.9,1.4,0,2.8-.4,4.2-.7.5-.2,1.1,0,1.5.5.3.5.6.9,1,1.3l1.1,1.2.5.6.6.5,1.2,1.1c.5.4.7,1,.5,1.6-.4,1.3-.7,2.6-1,4-.2.3,0,.6,0,.9.2.3.4.5.7.7l1.9,1.1c.6.5,1.3.4,1.8,0,1.1-.9,2.1-1.9,3.1-2.9.4-.4,1.1-.6,1.6-.4,1,.3,2,.7,3.1.9l1.6.3c.5.2,1.1.2,1.6.2.6,0,1.1.5,1.3,1.1.4,1.3.9,2.6,1.4,3.9.2.6.9,1,1.6,1,.7-.2,1.5-.2,2.2-.2.7,0,1.3-.5,1.5-1.1.4-1.4.7-2.8,1-4.2,0-.5.5-.9,1.1-1.1l1.6-.4.8-.2c.3,0,.6-.3.8-.3,1-.4,2.1-.8,3-1.3.5-.3,1.1-.2,1.6.2,1.1.9,2.2,1.7,3.3,2.5.4.4,1.2.4,1.8,0,.7-.4,1.2-.9,1.8-1.3.7-.5.9-1.1.7-1.7-.4-1.4-.9-2.8-1.4-4.1-.2-.6-.1-1.2.3-1.6.7-.9,1.5-1.6,2.1-2.5l.9-1.3h0l.3-.4.4-.7c.3-.5.9-.7,1.5-.7.7.2,1.4.2,2.1.2h2.1c.6,0,1.2-.4,1.5-1.1l.4-1c.2-.3.4-.7.4-1,.2-.7,0-1.4-.4-1.8-.5-.5-1.1-.9-1.6-1.4-.5-.4-1.1-.9-1.7-1.3-.6-.3-.6-.9-.6-1.5l.3-.8v-.8l.2-1.6v-3.2c-.1-.6.3-1.1.8-1.4,1.2-.6,2.5-1.2,3.7-1.9.7-.3.7-1,.7-1.7-.1-.8-.2-1.5-.4-2.2ZM584.1,64c0,1.6-.6,3.2-1.1,4.8-.6,1.5-1.4,3-2.4,4.3-2,2.7-4.8,4.7-7.9,5.8-1.5.5-3.2,1-4.8,1-1.6,0-3.3,0-4.9-.5h-.6c-.2-.2-.4-.2-.6-.2l-1.2-.4-1.1-.5c-.2,0-.4-.3-.6-.3l-.5-.3c-1.4-.8-2.7-1.8-3.9-3-2.3-2.3-3.9-5.4-4.6-8.6l-.3-1.2v-3.6c0-1.6.6-3.2,1.1-4.8.6-1.5,1.4-3,2.4-4.3.2-.4.5-.7.8-1,.3-.3.6-.6.9-.9l.9-.8,1-.8c2.7-1.9,5.9-3.1,9.2-3.3,1.6,0,3.3,0,4.9.6h.6c.2.2.4.2.6.2l1.2.4,1.1.5c.2.1.4.3.6.3l.5.3c1.5.8,2.7,1.8,3.9,3s2,2.5,2.8,3.8h0c1.6,2.9,2.3,6.2,2,9.5Z"/>
      </g>
      <path id="foot" class="cls-2" d="M354.8,496.9s29.6-.2,58-1.9c-11.6,11.6-38.1,35.4-60.1,34.9-20.9-.4-45.8-22.6-58.3-35.1,29.2,1.8,60.4,2,60.4,2h0Z"/>
      <g id="body">
        <path id="bodyShadow" class="cls-2" d="M377.7,452.5c-46.8,5.1-117.2-7.5-162.2-34.8-14.8-8.5-27.1-17.7-35.6-26.3-14.1-14.5-22.6-38.1-27.6-58.6,0,5,.2,9.7.5,13.7,1.6,18,8.5,57.7,27.5,78.6,7.1,7.6,17.3,15.8,29.5,23.5,37.4,24.7,95.8,39,135.2,38h.4c38.9.5,95.6-13.6,132.6-37.9,12.9-8,23.6-16.6,30.9-24.5,7.1-7.6,12.4-16.8,16.5-26.6-41.8,30.9-103.6,51.8-147.3,54.9h-.5.1Z"/>
        <path id="bodyMain" class="cls-3" d="M536.6,345.7v-3.6c.2-17.5,4.1-135.8-8.7-159.1-4-5.6-8.8-10.9-14.3-15.6-3.2-2.7-6.6-5.3-10.2-7.6-26-16.3-62.2-24.8-94.9-28.6-1.7-.2-3.4-.4-5.1-.6-18.5-1.9-35.6-2.4-49-2.5h-26.1c-38.2,0-106.6,4.9-148.8,31.4-45,27.2-24.8,143.1-26,152.4-.9,7-1.2,14.2-1.2,20.8,5,20.5,13.5,44.1,27.6,58.6,8.5,8.6,20.8,17.8,35.5,26.3,45,27.4,115.4,40,162.2,34.8h.5c43.8-3.1,105.5-24,147.3-54.9,3.5-8.5,6.1-17.5,7.9-26.5,1.7-8.6,2.9-17.2,3.2-25.5h0v.2h.1Z"/>
      </g>
      <g id="tele">
        <path id="tube" class="cls-2" d="M409.9,78.8c-6.6.2-11.9,5.8-11.7,12.5.2,4.8,3.1,8.9,7.2,10.7l-3.7,28.2c-.2,1.5.8,2.8,2.3,3h.4c1.3,0,2.5-1,2.7-2.3l3.7-27.9h0c3.2,0,6.2-1.5,8.4-3.9,2.1-2.2,3.2-5.2,3.2-8.3v-.4c-.1-3.2-1.5-6.2-3.8-8.4-2.4-2.2-5.5-3.3-8.7-3.2h0Z"/>
        <path id="leftWave1" class="cls-2" d="M441.9,71.7c-1.4-.6-3,0-3.5,1.4-.6,1.4,0,3,1.4,3.5,2.3,1,4.2,3.3,5,6.2,1,3.4.2,7-2,10.2-.9,1.2-.5,2.9.7,3.7.5.3,1,.5,1.5.5.9,0,1.7-.4,2.2-1.2,3.1-4.6,4.1-9.8,2.7-14.7-1.2-4.3-4.2-7.9-8-9.6h0Z"/>
        <path id="leftWave2" class="cls-2" d="M470.2,75.2c-1.8-6.6-6.4-12-12.1-14.5-1.4-.6-3,0-3.5,1.4-.6,1.4,0,3,1.4,3.5,4.3,1.9,7.6,6,9.1,11.1,1.7,6,.5,12.4-3.5,18-.9,1.2-.5,2.9.7,3.8.5.3,1,.5,1.5.5.9,0,1.7-.4,2.2-1.2,4.8-7,6.3-14.9,4.2-22.5h0Z"/>
        <path id="rightWave1" class="cls-2" d="M377.5,63.3c-4,1-7.6,4-9.6,8-2.2,4.6-2.2,10,.1,15,.5,1,1.4,1.6,2.5,1.6s.8,0,1.1-.2c1.4-.6,2-2.2,1.3-3.6-1.6-3.6-1.7-7.3-.1-10.4,1.3-2.6,3.5-4.5,6-5.2,1.4-.3,2.3-1.8,2-3.2-.4-1.4-1.8-2.3-3.2-2h0Z"/>
        <path id="rightWave2" class="cls-2" d="M366.6,51.6c-.4-1.4-1.8-2.3-3.3-2-6.1,1.5-11.5,6.1-14.4,12.2-3.4,7-3.3,15.2.2,22.9.5,1,1.4,1.6,2.5,1.6s.8,0,1.1-.2c1.4-.6,1.9-2.2,1.3-3.6-2.9-6.2-2.9-12.7-.2-18.3,2.3-4.7,6.3-8.2,10.9-9.3,1.4-.4,2.3-1.8,2-3.3h-.1Z"/>
      </g>
      <g id="head">
        <path id="face" class="cls-1" d="M463.4,302.6c-28.1,11.5-81.8,11.5-124.5,11.5s-96.4,0-124.5-11.5-39.7-82.1-27-105.7c12.8-23.5,85.6-39.5,151.4-39.5s138.7,15.9,151.4,39.5c12.8,23.6,1.1,94.2-27,105.7h.2Z"/>
        <path id="mouth" class="cls-2" d="M370.3,228.1l-63.4,6.5c-7.9.8-13,9-9.9,16.3,20,46.7,72.1,45.3,85.9-7.7,2.1-8.1-4.4-15.9-12.7-15.1h.1Z"/>
        <path id="rightEye" class="cls-2" d="M276,201.1c0,6.2-5.1,11.3-11.3,11.3s-11.3-5.1-11.3-11.3,5.1-11.3,11.3-11.3,11.3,5.1,11.3,11.3Z"/>
        <circle id="leftEye" class="cls-2" cx="424.8" cy="201.1" r="11.3"/>
      </g>
      <path id="leftHand" class="cls-3" d="M500,273c11.8,1.4,23.5,1.2,34.7.2,40.2-3.8,74.7-19.4,89-19,.5,0,1,0,1.5.1.3,0,.6,0,.9.1.3,0,.6.1.9.2h0c.4.1.8.3,1.1.5,12.1,7.4,12.1,28.8-36.8,69.4-10.1,8.4-20,15.2-29.5,20.8-23.5,13.9-54.3,2.1-61.1-24.4-3.4-13.1-4.5-29.2-.7-48.1h0v.2h0Z"/>
      <path id="rightHand" class="cls-3" d="M210.1,341.5c-12.6,1.7-24.6,5-35.9,9.1-40.5,14.7-71.9,40.1-86.8,43.6-.5.1-1.1.2-1.5.3-.3,0-.6.1-.9,0h-1c-.5,0-.9-.1-1.3-.2-14.5-4.4-20.3-26.5,19.4-81.6,8.1-11.3,16.6-21.1,24.9-29.5,20.5-20.7,55.5-16.7,69.6,8.8,7,12.6,12.5,28.9,13.6,49.4h0Z"/>
      <path id="screwdriver" class="cls-4" d="M660.9,334c-10.8-31.4-24.1-65-35.9-95.9h0c14.5-10.2,15.2-34.4.8-45.4l-10.2,3.4,5.2,15.6-9.8,14.2-16.4-5.5-5.2-15.6-10.2,3.4c-5.2,18.4,11.8,37.9,30.4,35.7,9,30.1,20.1,67,29.9,97.2,4,15.2,27,7.5,21.2-7h.2ZM649,333.2c5.6-1.9,8.5,6.9,2.9,8.7-5.6,2-8.6-6.9-2.9-8.7Z"/>
      <path id="leftHand2" class="cls-3" d="M616,253.4c4.5,7.7,3.4,16.7-2.3,20s-14-.3-18.5-8-3.4-16.7,2.3-20,14,.3,18.5,8Z"/>
    </g>
  </g>
</svg>