<?xml version="1.0" encoding="utf-8"?>
<!-- Generator: Adobe Illustrator 27.4.0, SVG Export Plug-In . SVG Version: 6.00 Build 0)  -->
<svg version="1.1" id="_圖層_2" xmlns="http://www.w3.org/2000/svg" xmlns:xlink="http://www.w3.org/1999/xlink" x="0px" y="0px"
	 viewBox="0 0 239.5 20.5" style="enable-background:new 0 0 239.5 20.5;" xml:space="preserve">
<style type="text/css">
	.st0{fill:#3F4391;}
</style>
<g>
	<path class="st0" d="M10.6,14.1c-0.9,2.6-3.3,4.8-9.4,6.3C1,20,0.5,19.1,0,18.7c5.3-1.1,7.5-2.8,8.4-4.6H0.3v-1.9h2.3V7H9V5h2.1v2
		h6.8v5.3H20v1.9C20,14.1,10.6,14.1,10.6,14.1z M4.7,4H0.8V2.3h3.9V0.2h2.1v2.1h2.9V4H6.7v2H4.7L4.7,4L4.7,4z M8.9,12.2
		C9,11.9,9,11.5,9,11.1V8.7H4.6v3.5H8.9z M11.5,14.5c2.8,1.1,6.7,2.9,8.7,4.3l-1,1.7c-1.9-1.3-5.7-3.3-8.6-4.5L11.5,14.5L11.5,14.5z
		 M13.8,4h-3.1V2.3h3.1V0.2h2.1v2h3.8V4h-3.8v2h-2.1V4z M11.1,8.7v2.4c0,0.4,0,0.7,0,1.1h4.7V8.7H11.1z"/>
	<path class="st0" d="M30.3,5.5h-8.2V3.9h4c-0.3-0.8-1-2.1-1.6-3l1.6-0.8C26.8,1,27.4,2.2,27.8,3l-1.6,0.9h4.1
		C30.3,3.9,30.3,5.5,30.3,5.5z M29.7,19.1h-4.9v1H23v-7.4h6.7V19.1z M29.6,8.4h-6.5V6.8h6.5V8.4z M23.1,9.7h6.5v1.6h-6.5V9.7z
		 M24.8,14.3v3.2h3.1v-3.1C27.9,14.3,24.8,14.3,24.8,14.3z M42.3,9.3V11H30V9.3h2.8c0.2-0.9,0.4-1.9,0.6-2.9h-2.3V4.7h2.5
		c0.1-0.7,0.2-1.3,0.3-2h-3.4V1.1h11.2v1.7H36c-0.1,0.6-0.2,1.3-0.3,2h4.6v4.6H42.3z M31.2,12.4H41v7.9h-2v-0.8h-5.9v0.9h-1.9
		C31.2,20.4,31.2,12.4,31.2,12.4z M33.1,14.2v3.6H39v-3.6C39,14.2,33.1,14.2,33.1,14.2z M35.4,6.4c-0.2,1.1-0.4,2.1-0.6,2.9h3.6V6.4
		H35.4z"/>
	<path class="st0" d="M60.7,6c-1.2,3.3-2.8,6-4.9,8.2c2.3,1.9,5.2,3.3,8.6,4.2c-0.5,0.4-1.1,1.3-1.4,1.9c-3.5-1-6.4-2.5-8.8-4.6
		c-2.4,2.1-5.4,3.6-9,4.7c-0.2-0.5-0.9-1.5-1.3-2c3.5-1,6.4-2.3,8.8-4.2c-2.1-2.3-3.8-5-5-8.2h-3.4V4h9.5c-0.3-0.9-0.9-2.3-1.5-3.3
		L54.5,0c0.6,1,1.3,2.4,1.6,3.3l-2,0.6h9.9v2C64.1,6,60.7,6,60.7,6z M49.8,6c1.1,2.6,2.5,4.9,4.4,6.8c1.8-1.9,3.2-4.1,4.1-6.8H49.8z
		"/>
	<path class="st0" d="M84.1,18.3c0.4,0,0.5-0.3,0.6-2.5c0.4,0.4,1.2,0.7,1.8,0.8c-0.2,2.8-0.7,3.6-2.1,3.6h-1.7
		c-1.7,0-2.1-0.6-2.1-2.5v-4.9h-1.4c-0.3,3.4-1.2,6.2-4.6,7.8c-0.2-0.5-0.8-1.2-1.2-1.6c2.9-1.2,3.5-3.4,3.8-6.2h-1.7V6.6
		c-0.3,0.3-0.6,0.7-0.9,0.9c-0.3-0.4-1.1-1.1-1.5-1.4c0.2-0.2,0.4-0.3,0.6-0.6h-7.5V3.9h7.7v1.5c1.3-1.3,2.6-3.1,3.3-4.9L79,1.1
		c-0.8,1.8-1.9,3.5-3.1,5h8.2c-1-1.5-2.5-3.4-3.8-4.8l1.4-1c1.7,1.8,3.8,4.3,4.6,5.9l-1.6,1.1c-0.2-0.4-0.4-0.8-0.7-1.2v6.7h-1.6
		v4.9c0,0.6,0.1,0.6,0.4,0.6H84.1L84.1,18.3z M73.3,19.1h-4.6v1h-1.8v-7.4h6.3L73.3,19.1L73.3,19.1z M73,8.4H67V6.8H73V8.4z M67,9.7
		H73v1.6H67V9.7z M69.6,3.9c-0.2-0.8-0.8-2-1.2-3l1.7-0.6c0.5,0.9,1.1,2.1,1.3,2.9L69.6,3.9L69.6,3.9z M68.7,14.3v3.1h2.8v-3.1H68.7
		z M77.4,11h4.7V7.9h-4.7V11z"/>
	<path class="st0" d="M106.9,13.1c0,0,0,0.5,0,0.8c-0.2,3.6-0.5,5.2-1,5.8c-0.4,0.4-0.9,0.6-1.5,0.6c-0.6,0.1-1.6,0.1-2.7,0
		c0-0.5-0.2-1.3-0.6-1.8c1,0.1,2,0.1,2.3,0.1c0.4,0,0.6,0,0.8-0.2c0.3-0.3,0.5-1.3,0.6-3.7H93.4c-1.2,1-2.6,1.8-4.1,2.5
		c-0.2-0.4-0.8-1.2-1.2-1.6c2.2-0.8,4.3-2.1,5.7-3.7h-2.4V5.5c1.8-0.4,3.8-0.9,5.1-1.4l1.2,1.3c-1.3,0.5-2.9,0.9-4.5,1.2v1.2h4v1.4
		h-4v1.2h9.8V9.2h-3.9V7.8h3.9V6.6h-4.3V5.2h6.2v6.7h-8.8c-0.3,0.4-0.6,0.8-1,1.2L106.9,13.1L106.9,13.1z M107.5,1.9V6h-1.9V3.6
		H90.7V6h-1.8V1.9H97c-0.2-0.4-0.4-0.9-0.6-1.2l2.1-0.6c0.3,0.5,0.7,1.2,0.9,1.8H107.5z M90.9,19.1c0.8-1,1.5-2.5,1.9-3.8l1.6,0.7
		c-0.5,1.3-1.1,2.9-1.9,3.9L90.9,19.1z M96.7,15.5c0.4,1.2,0.8,2.8,0.8,3.8l-1.7,0.2c0-1-0.2-2.6-0.6-3.9
		C95.1,15.7,96.7,15.5,96.7,15.5z M99.3,15.3c0.6,1,1.2,2.4,1.3,3.3L99.1,19c-0.2-0.9-0.7-2.3-1.2-3.3
		C97.8,15.7,99.3,15.3,99.3,15.3z M102.2,18c-0.3-0.7-1-1.7-1.7-2.4l1.3-0.6c0.7,0.7,1.4,1.6,1.7,2.3L102.2,18L102.2,18z"/>
	<path class="st0" d="M119.4,18.4c0,0.9-0.2,1.4-0.8,1.7c-0.6,0.3-1.6,0.3-3,0.3c-0.1-0.5-0.4-1.2-0.6-1.6c0.9,0,1.8,0,2.1,0
		c0.3,0,0.4-0.1,0.4-0.4v-2.9c-1.3,0.8-2.6,1.7-3.8,2.4l-0.6-1.5c-0.2,1.5-0.7,3-1.6,4.1c-0.3-0.4-1-1.1-1.4-1.4
		c1.2-1.7,1.3-4,1.3-5.9V8h7.9V18.4L119.4,18.4z M118.1,1.8c1,1.5,2.2,3.6,2.8,4.9l-1.8,0.8c-0.1-0.4-0.3-0.9-0.6-1.4
		c-5.8,0.5-6.6,0.7-7.2,0.9c-0.1-0.4-0.4-1.4-0.6-1.9c0.3-0.1,0.7-0.4,1.2-0.9c0.4-0.5,1.8-2.2,2.7-3.9l2.1,0.6
		c-0.9,1.4-1.9,2.7-2.9,3.8l3.9-0.3c-0.4-0.7-0.8-1.4-1.2-2C116.4,2.4,118.1,1.8,118.1,1.8z M113.4,13.2c0,0.9,0,1.8-0.2,2.8
		c1.1-0.5,2.7-1.3,4.3-2.1v-0.8l-1,1c-0.7-0.6-2.1-1.6-3.1-2.4l1.1-1c1,0.6,2.3,1.5,3,2.1V9.7h-4.1L113.4,13.2L113.4,13.2z
		 M124.1,9.7c-2.2,0-2.8-0.8-2.8-2.9V0.2h2v2.8h5.7v1.8h-5.7v2c0,0.8,0.2,1.1,0.9,1.1h3.7c0.6,0,1.4,0,1.9-0.1
		c0,0.5,0.1,1.3,0.2,1.7c-0.4,0.1-1.2,0.1-2.1,0.1C127.9,9.7,124.1,9.7,124.1,9.7z M127.5,18.4c0.8,0,1-0.4,1.1-2.6
		c0.4,0.3,1.2,0.7,1.8,0.8c-0.2,2.9-0.8,3.6-2.7,3.6h-3.6c-2.3,0-2.9-0.6-2.9-2.6v-7.2h2v2.4h5.9v1.8h-5.9v2.9
		c0,0.8,0.2,0.9,1.1,0.9H127.5L127.5,18.4z"/>
	<path class="st0" d="M151.1,4.9c0,0,0,0.7,0,1c-0.5,8.9-0.9,12.2-1.9,13.3c-0.6,0.7-1.2,0.9-2,1c-0.8,0.1-2.2,0.1-3.5,0
		c0-0.6-0.3-1.5-0.7-2.1c1.4,0.1,2.8,0.1,3.3,0.1c0.5,0,0.8-0.1,1-0.3c0.8-0.7,1.2-3.7,1.6-10.9H142c-0.3,4.5-1.8,9.9-8.1,13.6
		c-0.3-0.5-1.1-1.3-1.6-1.6c5.7-3.3,7.1-7.9,7.5-11.9H133V4.9h6.9V0.2h2.2v4.6L151.1,4.9L151.1,4.9z"/>
	<path class="st0" d="M159.9,12.4c-0.2-0.7-0.8-1.8-1.3-2.8v10.7H157V10.1c-0.6,2.2-1.3,4.3-2.1,5.7c-0.2-0.6-0.6-1.5-0.9-2
		c1.1-1.7,2.1-4.8,2.6-7.5h-2.2V4.3h2.4V0.2h1.6v4.1h1.9v1c2.5-1.4,4.8-3.4,6-5.4l2,0.7c-0.1,0.2-0.3,0.5-0.5,0.7
		c1.6,1.4,4.2,2.8,6.4,3.6c-0.3,0.5-0.7,1.4-0.9,1.9c-1-0.5-2.1-1-3.2-1.7v1.5h-6.5V5.4c-0.7,0.5-1.5,1-2.3,1.4
		c-0.3-0.3-0.7-0.9-1.1-1.2v0.6h-1.9v1.2c0.6,0.8,1.9,3,2.2,3.5L159.9,12.4L159.9,12.4z M165.1,14.2c-0.1,0.5-0.4,1-0.6,1.5
		c0.9,0.5,1.8,1.2,2.3,1.7l-1.1,1.4c-0.4-0.5-1.2-1.1-2-1.7c-0.9,1.4-2,2.5-3.2,3.4c-0.3-0.4-0.9-1-1.3-1.3c1.9-1.1,3.4-3,4.1-5.3
		L165.1,14.2L165.1,14.2z M161.5,8.1h5.1v5.4h-5.1V8.1z M163,12h2V9.5h-2V12z M170.2,5.1c-1.2-0.7-2.4-1.6-3.3-2.4
		c-0.8,0.9-1.6,1.7-2.6,2.4H170.2L170.2,5.1z M171.2,14.1c-0.1,0.7-0.3,1.2-0.5,1.9c1.3,0.9,2.8,2,3.6,2.8l-1.2,1.4
		c-0.7-0.7-1.9-1.8-3.1-2.6c-0.6,1.2-1.5,2.2-2.6,3c-0.3-0.3-0.9-1-1.3-1.3c1.7-1.1,2.9-3,3.3-5.3L171.2,14.1L171.2,14.1z
		 M167.7,8.1h5.2v5.4h-5.2V8.1z M169.3,12h2.1V9.5h-2.1V12z"/>
	<path class="st0" d="M177.2,6.2c1.2,0.5,2.8,1.3,3.6,2l-1.2,1.6c-0.7-0.7-2.3-1.6-3.5-2.1L177.2,6.2L177.2,6.2z M179.4,12.1
		l1.7,1.1c-0.8,2.3-1.9,4.9-2.8,7l-1.9-1.1C177.3,17.4,178.5,14.6,179.4,12.1L179.4,12.1z M178.1,0.4c1.2,0.5,2.7,1.4,3.5,2.1
		l-1.2,1.6c-0.7-0.7-2.2-1.7-3.4-2.3C176.9,1.9,178.1,0.4,178.1,0.4z M184.7,15.9c-0.7,1.7-1.9,3.5-3,4.5c-0.4-0.3-1.2-0.8-1.6-1.1
		c1.1-1,2.2-2.5,2.8-4L184.7,15.9L184.7,15.9z M188.5,1.1v13.9H182V1.1C182,1.1,188.5,1.1,188.5,1.1z M183.8,5.2h2.9V2.9h-2.9V5.2z
		 M183.8,9.3h2.9V6.9h-2.9V9.3z M183.8,13.3h2.9v-2.4h-2.9V13.3z M187.4,15.3c0.8,1,1.9,2.5,2.4,3.3l-1.6,1
		c-0.4-0.9-1.5-2.4-2.3-3.5L187.4,15.3L187.4,15.3z M191.7,2.4V15h-1.8V2.4L191.7,2.4L191.7,2.4z M195.5,0.2V18c0,1.1-0.2,1.7-0.9,2
		c-0.7,0.3-1.8,0.4-3.5,0.4c0-0.5-0.3-1.4-0.6-2c1.2,0,2.4,0,2.7,0c0.3,0,0.5-0.1,0.5-0.5V0.2L195.5,0.2L195.5,0.2z"/>
	<path class="st0" d="M218,12.9h-8.8v7.5h-2.1v-7.5h-8.7v-2.1h8.7V3.6h-7.6v-2h17.2v2h-7.6v7.2h8.8L218,12.9L218,12.9z M202.8,4.5
		c0.8,1.5,1.6,3.5,1.9,4.8l-2,0.7c-0.3-1.2-1-3.3-1.8-4.8C200.9,5.1,202.8,4.5,202.8,4.5z M211.3,9.4c0.8-1.3,1.7-3.4,2.2-4.9
		l2.2,0.6c-0.8,1.7-1.8,3.7-2.6,4.9L211.3,9.4L211.3,9.4z"/>
	<path class="st0" d="M233.8,2.5c2.1,1.9,4.6,4.6,5.8,6.4l-1.7,1.3c-0.3-0.6-0.8-1.2-1.3-1.8C224.4,9,223,9,222,9.3
		c-0.1-0.4-0.4-1.4-0.7-2c0.5-0.1,1.1-0.6,1.8-1.2c0.8-0.7,3.3-3.4,4.9-6.1l2.1,0.9c-1.6,2.2-3.4,4.4-5.3,6.1l10.2-0.4
		c-0.9-1.1-2-2.1-2.9-3L233.8,2.5L233.8,2.5z M223,11h14.3v9.3h-2.2v-1.1h-10v1.2H223V11L223,11z M225.1,13v4.3h10V13
		C235.1,13,225.1,13,225.1,13z"/>
</g>
</svg>
