<?xml version="1.0" encoding="UTF-8"?><svg id="_圖層_2" xmlns="http://www.w3.org/2000/svg" viewBox="0 0 316.12 36.6"><defs><style>.cls-1{fill:#24a3b0;}.cls-2{fill:#3b4089;}.cls-3{fill:#3f4391;}</style></defs><g id="_圖層_1-2"><g><path class="cls-3" d="m11.05,14.13c-.86,2.6-3.28,4.84-9.42,6.27-.22-.42-.77-1.25-1.23-1.67,5.3-1.1,7.5-2.75,8.43-4.6H.71v-1.89h2.33v-5.28h6.36v-2h2.09v2h6.75v5.28h2.18v1.89h-9.37ZM5.09,4.03H1.19v-1.74h3.89V.22h2.05v2.07h2.88v1.74h-2.88v2.02h-2.05v-2.02Zm4.25,8.21c.04-.37.07-.73.07-1.1v-2.4h-4.4v3.5h4.33Zm2.53,2.22c2.84,1.12,6.73,2.95,8.65,4.27l-1.03,1.67c-1.87-1.32-5.7-3.28-8.58-4.49l.97-1.45Zm2.31-10.45h-3.12v-1.74h3.12V.22h2.07v2.05h3.78v1.74h-3.78v2h-2.07v-2Zm-2.68,4.73v2.42c0,.37-.02.7-.04,1.08h4.73v-3.5h-4.69Z"/><path class="cls-3" d="m30.72,5.5h-8.16v-1.63h3.98c-.33-.81-.99-2.07-1.58-2.97l1.58-.79c.62.9,1.3,2.07,1.65,2.86l-1.61.9h4.14v1.63Zm-.62,13.62h-4.91v.99h-1.76v-7.44h6.67v6.45Zm-.13-10.72h-6.51v-1.61h6.51v1.61Zm-6.51,1.3h6.51v1.58h-6.51v-1.58Zm1.74,4.62v3.15h3.12v-3.15h-3.12Zm17.47-4.97v1.69h-12.23v-1.69h2.77c.2-.86.4-1.87.59-2.93h-2.27v-1.67h2.55c.13-.66.24-1.34.33-1.96h-3.41v-1.72h11.18v1.72h-5.74c-.11.62-.24,1.3-.33,1.96h4.6v4.6h1.96Zm-11.05,3.04h9.79v7.92h-1.98v-.79h-5.92v.88h-1.89v-8.01Zm1.89,1.78v3.56h5.92v-3.56h-5.92Zm2.27-7.75c-.2,1.06-.4,2.07-.57,2.93h3.61v-2.93h-3.04Z"/><path class="cls-3" d="m61.08,5.96c-1.17,3.32-2.79,6.01-4.86,8.21,2.35,1.91,5.21,3.34,8.6,4.18-.46.44-1.06,1.3-1.39,1.89-3.5-.95-6.42-2.51-8.8-4.58-2.44,2.07-5.43,3.61-9,4.71-.24-.53-.86-1.47-1.28-1.96,3.54-.95,6.42-2.31,8.76-4.22-2.13-2.27-3.76-5.02-4.99-8.23h-3.39v-1.98h9.53c-.26-.9-.88-2.29-1.47-3.32L54.94.02c.64,1.03,1.34,2.44,1.63,3.34l-1.96.62h9.88v1.98h-3.41Zm-10.83,0c1.06,2.6,2.53,4.86,4.4,6.8,1.78-1.85,3.15-4.09,4.14-6.8h-8.54Z"/><path class="cls-3" d="m84.47,18.26c.4,0,.48-.31.55-2.51.4.35,1.23.68,1.76.81-.2,2.84-.7,3.56-2.07,3.56h-1.65c-1.72,0-2.09-.59-2.09-2.49v-4.88h-1.45c-.33,3.45-1.19,6.18-4.58,7.75-.2-.48-.77-1.21-1.19-1.58,2.88-1.21,3.52-3.41,3.78-6.16h-1.67v-6.2c-.31.35-.64.66-.92.95-.33-.4-1.1-1.1-1.52-1.45.2-.18.4-.35.59-.55h-7.52v-1.63h7.7v1.47c1.34-1.3,2.57-3.08,3.32-4.86l1.91.59c-.81,1.78-1.94,3.54-3.12,4.99h8.21c-1.01-1.54-2.49-3.39-3.78-4.84l1.41-.97c1.72,1.83,3.76,4.27,4.64,5.9l-1.56,1.12c-.18-.37-.42-.75-.7-1.19v6.67h-1.56v4.86c0,.57.07.64.44.64h1.08Zm-10.8.86h-4.55v.99h-1.78v-7.44h6.34v6.45Zm-.24-10.72h-6.05v-1.61h6.05v1.61Zm-6.05,1.3h6.05v1.58h-6.05v-1.58Zm2.64-5.85c-.2-.79-.75-2.05-1.23-2.95l1.74-.57c.51.88,1.06,2.07,1.3,2.86l-1.8.66Zm-.9,10.47v3.15h2.84v-3.15h-2.84Zm8.69-3.34h4.69v-3.1h-4.69v3.1Z"/><path class="cls-3" d="m107.3,13.11s-.02.51-.04.77c-.22,3.65-.46,5.17-1.01,5.79-.42.42-.86.57-1.5.62-.55.09-1.61.07-2.68.02-.04-.53-.24-1.28-.57-1.78.99.11,1.96.11,2.31.11.37,0,.57-.02.75-.2.29-.29.48-1.32.64-3.7h-11.38c-1.25,1.01-2.64,1.85-4.07,2.46-.22-.4-.81-1.21-1.17-1.58,2.16-.81,4.29-2.11,5.65-3.74h-2.38v-6.34c1.76-.37,3.83-.92,5.06-1.43l1.23,1.28c-1.28.48-2.9.88-4.49,1.21v1.19h3.98v1.41h-3.98v1.23h9.75v-1.23h-3.94v-1.41h3.94v-1.17h-4.31v-1.45h6.16v6.71h-8.76c-.31.44-.62.84-.97,1.23h11.77Zm.59-11.24v4.11h-1.94v-2.35h-14.85v2.35h-1.85V1.87h8.12c-.2-.44-.37-.86-.59-1.23l2.09-.57c.33.53.66,1.21.92,1.8h8.1Zm-16.59,17.21c.81-.95,1.52-2.55,1.89-3.81l1.63.66c-.46,1.28-1.08,2.9-1.89,3.94l-1.63-.79Zm5.76-3.59c.44,1.23.75,2.82.75,3.83l-1.65.22c.02-.99-.24-2.6-.64-3.85l1.54-.2Zm2.64-.15c.62,1.01,1.19,2.38,1.34,3.26l-1.54.44c-.15-.88-.68-2.27-1.25-3.3l1.45-.4Zm2.93,2.68c-.31-.68-1.03-1.67-1.67-2.35l1.34-.59c.66.66,1.43,1.61,1.72,2.27l-1.39.68Z"/><path class="cls-3" d="m119.84,18.35c0,.92-.2,1.39-.81,1.67-.64.26-1.61.29-2.97.29-.09-.46-.37-1.19-.64-1.63.92.04,1.83.04,2.11.02.29,0,.37-.09.37-.35v-2.93c-1.32.84-2.62,1.67-3.76,2.35l-.57-1.45c-.24,1.5-.68,2.97-1.56,4.11-.26-.4-1.03-1.14-1.43-1.39,1.23-1.69,1.34-4.03,1.34-5.9v-5.17h7.92v10.36Zm-1.34-16.55c1.01,1.54,2.22,3.61,2.75,4.91l-1.76.75c-.13-.4-.35-.9-.64-1.43-5.76.53-6.6.66-7.17.88-.11-.42-.42-1.36-.64-1.87.35-.09.73-.42,1.17-.88.42-.46,1.83-2.2,2.71-3.94l2.09.62c-.86,1.36-1.91,2.73-2.93,3.85l3.94-.29c-.4-.68-.79-1.39-1.17-1.98l1.65-.62Zm-4.69,11.38c0,.86-.04,1.8-.18,2.77,1.14-.51,2.68-1.3,4.27-2.09v-.81l-.97.97c-.7-.64-2.09-1.65-3.12-2.35l1.06-.97c.99.62,2.29,1.52,3.04,2.11v-3.1h-4.09v3.48Zm10.67-3.48c-2.24,0-2.84-.77-2.84-2.88V.24h2.02v2.84h5.68v1.76h-5.68v2.02c0,.79.15,1.08.86,1.08h3.7c.55,0,1.43-.04,1.89-.13.04.53.11,1.3.2,1.74-.42.13-1.25.15-2.05.15h-3.78Zm3.45,8.73c.81,0,.99-.4,1.08-2.62.42.33,1.23.66,1.8.75-.24,2.88-.79,3.65-2.71,3.65h-3.56c-2.31,0-2.9-.59-2.9-2.64v-7.17h2.02v2.42h5.88v1.83h-5.88v2.9c0,.75.18.88,1.14.88h3.12Z"/><path class="cls-3" d="m151.52,4.86s-.02.73-.04,1.01c-.48,8.91-.9,12.17-1.87,13.29-.59.7-1.17.92-2.02,1.01-.79.09-2.2.07-3.5,0-.04-.59-.33-1.5-.73-2.11,1.45.13,2.79.13,3.34.13.48,0,.75-.07,1.01-.33.75-.7,1.21-3.72,1.58-10.91h-6.89c-.33,4.53-1.83,9.86-8.08,13.55-.33-.51-1.1-1.28-1.58-1.65,5.72-3.28,7.15-7.94,7.48-11.9h-6.82v-2.09h6.93V.24h2.16v4.62h9.02Z"/><path class="cls-3" d="m160.32,12.45c-.24-.66-.81-1.76-1.3-2.75v10.69h-1.63v-10.28c-.55,2.22-1.28,4.31-2.05,5.65-.2-.62-.59-1.52-.86-2.02,1.08-1.69,2.11-4.8,2.62-7.5h-2.16v-1.89h2.44V.22h1.63v4.14h1.85v1.01c2.51-1.36,4.77-3.41,5.96-5.37l1.98.66c-.15.24-.31.48-.46.7,1.63,1.43,4.22,2.84,6.42,3.59-.33.48-.7,1.36-.86,1.91-1.03-.46-2.11-1.01-3.17-1.67v1.52h-6.49v-1.28c-.73.53-1.5,1.01-2.27,1.45-.26-.33-.73-.86-1.12-1.19v.55h-1.85v1.23c.55.77,1.91,2.97,2.24,3.52l-.95,1.45Zm5.15,1.74c-.15.53-.35,1.01-.57,1.5.86.53,1.8,1.23,2.33,1.74l-1.1,1.36c-.42-.48-1.23-1.14-2-1.69-.86,1.36-1.96,2.51-3.21,3.37-.26-.35-.92-1.01-1.34-1.32,1.94-1.14,3.41-3.01,4.09-5.3l1.8.35Zm-3.61-6.12h5.06v5.37h-5.06v-5.37Zm1.52,3.94h1.96v-2.51h-1.96v2.51Zm7.22-6.91c-1.21-.73-2.35-1.58-3.3-2.42-.77.88-1.65,1.69-2.6,2.42h5.9Zm.97,8.96c-.13.66-.31,1.25-.51,1.85,1.32.88,2.82,1.98,3.63,2.77l-1.23,1.41c-.7-.73-1.94-1.76-3.15-2.62-.64,1.19-1.52,2.18-2.55,2.95-.26-.33-.92-1.03-1.34-1.32,1.74-1.12,2.86-2.97,3.32-5.28l1.83.24Zm-3.45-5.98h5.19v5.37h-5.19v-5.37Zm1.54,3.94h2.05v-2.51h-2.05v2.51Z"/><path class="cls-3" d="m177.55,6.23c1.25.48,2.82,1.3,3.56,1.98l-1.19,1.65c-.73-.66-2.27-1.58-3.52-2.13l1.14-1.5Zm2.22,5.85l1.67,1.08c-.81,2.31-1.85,4.91-2.77,6.95l-1.85-1.06c.88-1.69,2.07-4.47,2.95-6.98Zm-1.3-11.66c1.21.53,2.73,1.41,3.48,2.13l-1.23,1.63c-.68-.7-2.2-1.69-3.39-2.31l1.14-1.45Zm6.6,15.49c-.73,1.69-1.91,3.45-3.04,4.55-.37-.33-1.17-.84-1.61-1.1,1.1-.99,2.18-2.49,2.77-3.96l1.87.51Zm3.83-14.79v13.95h-6.47V1.12h6.47Zm-4.73,4.09h2.93v-2.31h-2.93v2.31Zm0,4.05h2.93v-2.35h-2.93v2.35Zm0,4h2.93v-2.35h-2.93v2.35Zm3.61,2.02c.84,1.01,1.91,2.46,2.42,3.34l-1.65,1.01c-.44-.92-1.47-2.42-2.33-3.5l1.56-.86Zm4.31-12.85v12.52h-1.78V2.44h1.78Zm3.78-2.24v17.76c0,1.14-.24,1.72-.92,2.05-.66.31-1.76.37-3.52.37-.04-.53-.33-1.39-.59-1.96,1.23.04,2.35.04,2.71.02.33,0,.46-.11.46-.46V.2h1.87Z"/><path class="cls-3" d="m218.43,12.92h-8.82v7.48h-2.11v-7.48h-8.71v-2.07h8.71V3.63h-7.57V1.63h17.25v2h-7.57v7.22h8.82v2.07Zm-15.23-8.38c.81,1.52,1.65,3.48,1.94,4.75l-1.96.66c-.29-1.25-1.03-3.3-1.83-4.84l1.85-.57Zm8.52,4.86c.75-1.32,1.67-3.41,2.16-4.95l2.18.59c-.79,1.72-1.76,3.7-2.57,4.93l-1.76-.57Z"/><path class="cls-3" d="m234.15,2.46c2.07,1.87,4.64,4.58,5.79,6.38l-1.72,1.28c-.33-.55-.77-1.17-1.28-1.8-12.1.64-13.51.68-14.5,1.03-.09-.42-.44-1.43-.66-2,.53-.09,1.08-.55,1.8-1.25.77-.73,3.26-3.43,4.86-6.09l2.05.88c-1.58,2.22-3.45,4.36-5.26,6.07l10.23-.42c-.95-1.06-1.96-2.11-2.9-2.99l1.58-1.08Zm-10.71,8.56h14.26v9.33h-2.18v-1.12h-10.01v1.17h-2.07v-9.37Zm2.07,1.96v4.27h10.01v-4.27h-10.01Z"/></g><g><path class="cls-2" d="m7.14,26.07v2.15h-.21c-.12-.5-.26-.85-.42-1.07s-.36-.39-.63-.52c-.15-.07-.41-.11-.78-.11h-.59v6.13c0,.41.02.66.07.76s.13.19.26.27.31.11.54.11h.26v.22H1.48v-.22h.26c.23,0,.42-.04.56-.12.1-.05.18-.15.24-.28.04-.09.06-.34.06-.74v-6.13h-.57c-.54,0-.92.11-1.17.34-.34.32-.55.77-.64,1.35h-.22v-2.15h7.14Z"/><path class="cls-1" d="m11.51,31.08h-3.01c.04.73.23,1.3.58,1.72.27.32.59.49.97.49.23,0,.45-.07.64-.2s.4-.37.62-.71l.2.13c-.3.61-.62,1.03-.98,1.29s-.78.38-1.25.38c-.81,0-1.43-.31-1.85-.94-.34-.5-.5-1.13-.5-1.88,0-.91.25-1.64.74-2.18s1.07-.81,1.74-.81c.55,0,1.04.23,1.44.68s.63,1.13.66,2.02Zm-1.44-.39c0-.63-.03-1.06-.1-1.29s-.17-.41-.32-.53c-.08-.07-.19-.11-.33-.11-.2,0-.37.1-.5.3-.23.35-.35.82-.35,1.43v.21h1.59Z"/><path class="cls-1" d="m15.66,28.38l.09,1.87h-.2c-.24-.55-.49-.93-.74-1.14s-.51-.3-.76-.3c-.16,0-.3.05-.41.16s-.17.23-.17.37c0,.11.04.21.12.3.12.16.47.43,1.05.82s.95.72,1.13.99.27.58.27.91c0,.3-.08.6-.23.9s-.37.52-.64.67-.58.23-.92.23c-.26,0-.61-.08-1.05-.25-.12-.04-.2-.06-.24-.06-.13,0-.24.1-.32.29h-.19l-.09-1.97h.2c.18.52.42.9.72,1.16s.6.39.87.39c.19,0,.34-.06.46-.17s.18-.25.18-.42c0-.19-.06-.35-.18-.49s-.38-.34-.79-.62c-.6-.41-.98-.73-1.16-.95-.26-.32-.39-.67-.39-1.06,0-.42.15-.8.44-1.15s.71-.51,1.26-.51c.3,0,.58.07.86.22.11.06.19.09.26.09.07,0,.13-.01.17-.04s.11-.11.21-.25h.2Z"/><path class="cls-1" d="m19.04,26.53v2h1.3v.58h-1.3v3.38c0,.32.01.52.04.61s.08.17.16.22.14.08.21.08c.25,0,.49-.19.72-.58l.18.13c-.32.75-.83,1.12-1.54,1.12-.35,0-.64-.1-.88-.29s-.39-.41-.46-.65c-.04-.13-.06-.49-.06-1.08v-2.96h-.71v-.21c.49-.35.91-.71,1.26-1.1s.65-.81.91-1.28h.19Z"/><path class="cls-1" d="m26.45,28.37c.48,0,.92.12,1.33.37s.72.6.93,1.05.32.95.32,1.49c0,.78-.2,1.43-.59,1.95-.48.63-1.13.95-1.97.95s-1.46-.29-1.9-.87-.67-1.25-.67-2.01.23-1.47.68-2.05,1.08-.88,1.87-.88Zm.02.42c-.2,0-.37.08-.51.23s-.24.45-.28.89-.07,1.06-.07,1.85c0,.42.03.81.08,1.17.04.28.13.49.28.63s.3.22.48.22.32-.05.44-.15c.15-.13.25-.32.3-.56.08-.37.12-1.12.12-2.25,0-.66-.04-1.12-.11-1.37s-.18-.43-.33-.54c-.1-.08-.23-.12-.4-.12Z"/><path class="cls-1" d="m32.27,29.11v3.8c0,.37.04.6.12.69.12.14.36.21.69.2v.21h-3.23v-.21c.25,0,.42-.03.52-.08s.17-.13.21-.22.06-.29.06-.59v-3.8h-.8v-.57h.8v-.68c0-.56.2-1.03.61-1.41s.97-.56,1.67-.56c.48,0,.84.09,1.07.27s.35.38.35.6c0,.18-.07.33-.22.46s-.34.19-.57.19c-.2,0-.36-.05-.48-.16s-.18-.22-.18-.35c0-.04.01-.11.04-.22.02-.07.02-.13.02-.19,0-.08-.02-.14-.07-.18-.06-.06-.14-.09-.23-.09-.11,0-.21.05-.28.14s-.11.24-.11.45v1.03s.01.7.01.7h.81v.57h-.81Z"/><path class="cls-2" d="m39.73,26.52v3.23h.16c.5,0,.87-.16,1.1-.47s.37-.78.43-1.4h.22v4.16h-.22c-.05-.45-.15-.82-.3-1.11s-.33-.48-.52-.58-.49-.15-.87-.15v2.24c0,.44.02.71.06.8s.11.18.21.24.27.09.49.09h.47c.74,0,1.34-.17,1.78-.52s.77-.87.96-1.57h.22l-.36,2.53h-6.87v-.22h.26c.23,0,.42-.04.56-.12.1-.05.18-.15.23-.28.04-.09.06-.34.06-.74v-5.23c0-.36,0-.58-.03-.66-.04-.14-.11-.24-.22-.32-.15-.11-.35-.16-.61-.16h-.26v-.22h6.65v2.35h-.22c-.11-.57-.27-.99-.48-1.24s-.5-.43-.87-.55c-.22-.07-.63-.11-1.23-.11h-.82Z"/><path class="cls-1" d="m47.1,28.53v.71c.28-.3.55-.53.81-.67s.54-.21.83-.21c.36,0,.65.1.88.3s.39.44.47.74c.06.22.09.65.09,1.28v2.13c0,.42.04.68.11.79s.24.17.48.2v.21h-2.77v-.21c.21-.03.36-.11.45-.26.06-.1.09-.34.09-.73v-2.44c0-.45-.02-.73-.05-.85s-.09-.21-.18-.27-.18-.1-.28-.1c-.34,0-.65.24-.94.72v2.94c0,.41.04.67.11.78s.22.18.42.21v.21h-2.77v-.21c.23-.02.39-.1.49-.22.07-.09.1-.34.1-.76v-3.09c0-.41-.04-.67-.11-.77s-.24-.17-.48-.2v-.22h2.23Z"/><path class="cls-1" d="m55.05,28.6h1.85v.64h-1.05c.19.19.32.37.4.52.09.21.14.43.14.66,0,.39-.11.73-.33,1.02s-.51.51-.88.67-.7.24-.99.24c-.02,0-.26,0-.7-.03-.18,0-.32.06-.44.17s-.18.25-.18.41c0,.14.05.26.16.35s.28.13.52.13h1.01c.82-.01,1.38.08,1.69.26.44.25.66.63.66,1.15,0,.33-.1.63-.3.91s-.47.47-.8.6c-.5.19-1.08.29-1.74.29-.49,0-.94-.05-1.35-.14s-.7-.23-.87-.4-.26-.35-.26-.54.07-.34.2-.48.39-.26.75-.36c-.51-.25-.76-.6-.76-1.04,0-.27.1-.53.31-.79s.54-.47.98-.66c-.52-.19-.9-.44-1.14-.76s-.35-.67-.35-1.08c0-.54.22-1,.66-1.39s1-.59,1.69-.59c.36,0,.74.08,1.12.23Zm-1.36,6.22c-.4,0-.66.03-.79.1-.22.12-.33.29-.33.49s.12.38.35.54.66.24,1.3.24c.54,0,.97-.07,1.28-.22s.47-.35.47-.61c0-.1-.03-.18-.09-.25-.11-.12-.26-.2-.48-.24s-.78-.06-1.7-.06Zm.35-6.09c-.23,0-.42.11-.57.34s-.23.7-.23,1.42c0,.58.08.98.23,1.2s.34.33.55.33c.23,0,.43-.11.59-.32s.23-.63.23-1.25c0-.7-.09-1.18-.26-1.43-.12-.19-.3-.28-.53-.28Z"/><path class="cls-1" d="m59.68,26.07v6.81c0,.39.04.63.13.74s.27.17.53.18v.21h-2.96v-.21c.24,0,.42-.08.54-.21.08-.09.12-.33.12-.71v-5.67c0-.38-.04-.63-.13-.74s-.26-.17-.52-.18v-.22h2.3Z"/><path class="cls-1" d="m63.01,28.53v4.34c0,.39.04.63.13.74s.27.17.53.18v.21h-2.96v-.21c.24,0,.42-.08.54-.21.08-.09.12-.33.12-.71v-3.2c0-.39-.04-.63-.13-.74s-.26-.17-.52-.18v-.22h2.3Zm-.82-2.65c.25,0,.47.09.64.27s.26.39.26.64-.09.46-.27.64-.39.26-.64.26-.46-.09-.64-.26-.26-.39-.26-.64.09-.46.26-.64.39-.27.64-.27Z"/><path class="cls-1" d="m67.67,28.38l.09,1.87h-.2c-.24-.55-.49-.93-.74-1.14s-.51-.3-.76-.3c-.16,0-.3.05-.41.16s-.17.23-.17.37c0,.11.04.21.12.3.12.16.47.43,1.05.82s.95.72,1.13.99.27.58.27.91c0,.3-.08.6-.23.9s-.37.52-.64.67-.58.23-.92.23c-.26,0-.61-.08-1.05-.25-.12-.04-.2-.06-.24-.06-.13,0-.24.1-.32.29h-.19l-.09-1.97h.2c.18.52.42.9.72,1.16s.6.39.87.39c.19,0,.34-.06.46-.17s.18-.25.18-.42c0-.19-.06-.35-.18-.49s-.38-.34-.79-.62c-.6-.41-.98-.73-1.16-.95-.26-.32-.39-.67-.39-1.06,0-.42.15-.8.44-1.15s.71-.51,1.26-.51c.3,0,.58.07.86.22.11.06.19.09.26.09.07,0,.13-.01.17-.04s.11-.11.21-.25h.2Z"/><path class="cls-1" d="m71.12,26.07v3.17c.3-.32.58-.54.83-.67s.51-.2.78-.2c.34,0,.64.1.88.29s.41.42.49.69.12.71.12,1.33v2.14c0,.42.04.68.12.78s.24.17.47.2v.21h-2.78v-.21c.2-.03.34-.11.44-.23.07-.1.11-.35.11-.74v-2.44c0-.45-.02-.74-.05-.85s-.09-.21-.18-.27-.18-.1-.28-.1c-.16,0-.31.05-.46.16s-.31.3-.48.57v2.94c0,.39.03.63.09.73.07.13.23.21.46.25v.21h-2.78v-.21c.23-.02.39-.1.49-.22.07-.09.1-.34.1-.76v-5.57c0-.41-.04-.67-.11-.77s-.24-.17-.48-.2v-.22h2.23Z"/><path class="cls-1" d="m80.95,29.11v3.8c0,.37.04.6.12.69.12.14.36.21.69.2v.21h-3.23v-.21c.25,0,.42-.03.52-.08s.17-.13.21-.22.06-.29.06-.59v-3.8h-.8v-.57h.8v-.68c0-.56.2-1.03.61-1.41s.97-.56,1.67-.56c.48,0,.84.09,1.07.27s.35.38.35.6c0,.18-.07.33-.22.46s-.34.19-.57.19c-.2,0-.36-.05-.48-.16s-.18-.22-.18-.35c0-.04.01-.11.04-.22.02-.07.02-.13.02-.19,0-.08-.02-.14-.07-.18-.06-.06-.14-.09-.23-.09-.11,0-.21.05-.28.14s-.11.24-.11.45v1.03s.01.7.01.7h.81v.57h-.81Z"/><path class="cls-1" d="m85.13,28.37c.48,0,.92.12,1.33.37s.72.6.93,1.05.32.95.32,1.49c0,.78-.2,1.43-.59,1.95-.48.63-1.13.95-1.97.95s-1.46-.29-1.9-.87-.67-1.25-.67-2.01.23-1.47.68-2.05,1.08-.88,1.87-.88Zm.02.42c-.2,0-.37.08-.51.23s-.24.45-.28.89-.07,1.06-.07,1.85c0,.42.03.81.08,1.17.04.28.13.49.28.63s.3.22.48.22.32-.05.44-.15c.15-.13.25-.32.3-.56.08-.37.12-1.12.12-2.25,0-.66-.04-1.12-.11-1.37s-.18-.43-.33-.54c-.1-.08-.23-.12-.4-.12Z"/><path class="cls-1" d="m90.82,28.53v1.24c.36-.57.68-.94.96-1.13s.54-.28.79-.28c.22,0,.39.07.52.2s.2.33.2.57c0,.26-.06.46-.19.61s-.28.22-.46.22c-.21,0-.39-.07-.54-.2s-.24-.21-.27-.22c-.04-.02-.08-.04-.13-.04-.11,0-.22.04-.32.13-.16.13-.28.32-.36.57-.12.38-.19.8-.19,1.25v1.59c0,.22.02.37.05.43.05.11.12.18.21.23s.25.08.47.09v.21h-2.96v-.21c.24-.02.4-.08.48-.2s.13-.41.13-.88v-3.03c0-.31-.02-.51-.05-.6-.04-.11-.1-.19-.17-.24s-.21-.09-.39-.11v-.22h2.24Z"/><path class="cls-2" d="m99.52,26.52v3.23h.16c.5,0,.87-.16,1.1-.47s.37-.78.43-1.4h.22v4.16h-.22c-.05-.45-.15-.82-.3-1.11s-.33-.48-.52-.58-.49-.15-.87-.15v2.24c0,.44.02.71.06.8s.11.18.21.24.27.09.49.09h.47c.74,0,1.34-.17,1.78-.52s.77-.87.96-1.57h.22l-.36,2.53h-6.87v-.22h.26c.23,0,.42-.04.56-.12.1-.05.18-.15.23-.28.04-.09.06-.34.06-.74v-5.23c0-.36,0-.58-.03-.66-.04-.14-.11-.24-.22-.32-.15-.11-.35-.16-.61-.16h-.26v-.22h6.65v2.35h-.22c-.11-.57-.27-.99-.48-1.24s-.5-.43-.87-.55c-.22-.07-.63-.11-1.23-.11h-.82Z"/><path class="cls-1" d="m106.9,28.53v.71c.28-.3.55-.53.81-.67s.54-.21.83-.21c.36,0,.65.1.88.3s.39.44.47.74c.06.22.09.65.09,1.28v2.13c0,.42.04.68.11.79s.24.17.48.2v.21h-2.77v-.21c.21-.03.36-.11.45-.26.06-.1.09-.34.09-.73v-2.44c0-.45-.02-.73-.05-.85s-.09-.21-.18-.27-.18-.1-.28-.1c-.34,0-.65.24-.94.72v2.94c0,.41.04.67.11.78s.22.18.42.21v.21h-2.77v-.21c.23-.02.39-.1.49-.22.07-.09.1-.34.1-.76v-3.09c0-.41-.04-.67-.11-.77s-.24-.17-.48-.2v-.22h2.23Z"/><path class="cls-1" d="m114.85,28.6h1.85v.64h-1.05c.19.19.32.37.4.52.09.21.14.43.14.66,0,.39-.11.73-.33,1.02s-.51.51-.88.67-.7.24-.99.24c-.02,0-.26,0-.7-.03-.18,0-.32.06-.44.17s-.18.25-.18.41c0,.14.05.26.16.35s.28.13.52.13h1.01c.82-.01,1.38.08,1.69.26.44.25.66.63.66,1.15,0,.33-.1.63-.3.91s-.47.47-.8.6c-.5.19-1.08.29-1.74.29-.49,0-.94-.05-1.35-.14s-.7-.23-.87-.4-.26-.35-.26-.54.07-.34.2-.48.39-.26.75-.36c-.51-.25-.76-.6-.76-1.04,0-.27.1-.53.31-.79s.54-.47.98-.66c-.52-.19-.9-.44-1.14-.76s-.35-.67-.35-1.08c0-.54.22-1,.66-1.39s1-.59,1.69-.59c.36,0,.74.08,1.12.23Zm-1.36,6.22c-.4,0-.66.03-.79.1-.22.12-.33.29-.33.49s.12.38.35.54.66.24,1.3.24c.54,0,.97-.07,1.28-.22s.47-.35.47-.61c0-.1-.03-.18-.09-.25-.11-.12-.26-.2-.48-.24s-.78-.06-1.7-.06Zm.35-6.09c-.23,0-.42.11-.57.34s-.23.7-.23,1.42c0,.58.08.98.23,1.2s.34.33.55.33c.23,0,.43-.11.59-.32s.23-.63.23-1.25c0-.7-.09-1.18-.26-1.43-.12-.19-.3-.28-.53-.28Z"/><path class="cls-1" d="m119.48,26.07v6.81c0,.39.04.63.13.74s.27.17.53.18v.21h-2.96v-.21c.24,0,.42-.08.54-.21.08-.09.12-.33.12-.71v-5.67c0-.38-.04-.63-.13-.74s-.26-.17-.52-.18v-.22h2.3Z"/><path class="cls-1" d="m122.81,28.53v4.34c0,.39.04.63.13.74s.27.17.53.18v.21h-2.96v-.21c.24,0,.42-.08.54-.21.08-.09.12-.33.12-.71v-3.2c0-.39-.04-.63-.13-.74s-.26-.17-.52-.18v-.22h2.3Zm-.82-2.65c.25,0,.47.09.64.27s.26.39.26.64-.09.46-.27.64-.39.26-.64.26-.46-.09-.64-.26-.26-.39-.26-.64.09-.46.26-.64.39-.27.64-.27Z"/><path class="cls-1" d="m127.46,28.38l.09,1.87h-.2c-.24-.55-.49-.93-.74-1.14s-.51-.3-.76-.3c-.16,0-.3.05-.41.16s-.17.23-.17.37c0,.11.04.21.12.3.12.16.47.43,1.05.82s.95.72,1.13.99.27.58.27.91c0,.3-.08.6-.23.9s-.37.52-.64.67-.58.23-.92.23c-.26,0-.61-.08-1.05-.25-.12-.04-.2-.06-.24-.06-.13,0-.24.1-.32.29h-.19l-.09-1.97h.2c.18.52.42.9.72,1.16s.6.39.87.39c.19,0,.34-.06.46-.17s.18-.25.18-.42c0-.19-.06-.35-.18-.49s-.38-.34-.79-.62c-.6-.41-.98-.73-1.16-.95-.26-.32-.39-.67-.39-1.06,0-.42.15-.8.44-1.15s.71-.51,1.26-.51c.3,0,.58.07.86.22.11.06.19.09.26.09.07,0,.13-.01.17-.04s.11-.11.21-.25h.2Z"/><path class="cls-1" d="m130.91,26.07v3.17c.3-.32.58-.54.83-.67s.51-.2.78-.2c.34,0,.64.1.88.29s.41.42.49.69.12.71.12,1.33v2.14c0,.42.04.68.12.78s.24.17.47.2v.21h-2.78v-.21c.2-.03.34-.11.44-.23.07-.1.11-.35.11-.74v-2.44c0-.45-.02-.74-.05-.85s-.09-.21-.18-.27-.18-.1-.28-.1c-.16,0-.31.05-.46.16s-.31.3-.48.57v2.94c0,.39.03.63.09.73.07.13.23.21.46.25v.21h-2.78v-.21c.23-.02.39-.1.49-.22.07-.09.1-.34.1-.76v-5.57c0-.41-.04-.67-.11-.77s-.24-.17-.48-.2v-.22h2.23Z"/><path class="cls-2" d="m143.66,31.3l2.16-5.24h3.23v.22h-.26c-.23,0-.42.04-.56.12-.1.05-.18.15-.23.28-.04.09-.06.34-.06.73v5.24c0,.41.02.66.06.76s.13.19.26.27.31.11.53.11h.26v.22h-4.15v-.22h.26c.23,0,.42-.04.56-.12.1-.05.18-.15.23-.28.04-.09.06-.34.06-.74v-5.89l-3.05,7.25h-.14l-3.09-7.2v5.6c0,.39,0,.63.03.72.05.2.16.35.33.48s.44.18.8.18v.22h-2.72v-.22h.08c.18,0,.34-.02.49-.08s.27-.14.35-.24.14-.24.18-.43c0-.04.01-.24.01-.6v-5.03c0-.4-.02-.65-.06-.75s-.13-.19-.26-.26-.31-.11-.53-.11h-.25v-.22h3.25l2.23,5.24Z"/><path class="cls-1" d="m154.31,31.08h-3.01c.04.73.23,1.3.58,1.72.27.32.59.49.97.49.23,0,.45-.07.64-.2s.4-.37.62-.71l.2.13c-.3.61-.62,1.03-.98,1.29s-.78.38-1.25.38c-.81,0-1.43-.31-1.85-.94-.34-.5-.5-1.13-.5-1.88,0-.91.25-1.64.74-2.18s1.07-.81,1.74-.81c.55,0,1.04.23,1.44.68s.63,1.13.66,2.02Zm-1.44-.39c0-.63-.03-1.06-.1-1.29s-.17-.41-.32-.53c-.08-.07-.19-.11-.33-.11-.2,0-.37.1-.5.3-.23.35-.35.82-.35,1.43v.21h1.59Z"/><path class="cls-1" d="m160.32,26.07v6.3c0,.43.01.68.04.76.03.13.09.22.18.29s.24.1.46.12v.19l-2.31.45v-.87c-.28.34-.52.56-.74.69s-.46.18-.74.18c-.7,0-1.25-.31-1.66-.94-.33-.51-.49-1.13-.49-1.87,0-.59.1-1.12.3-1.58s.48-.82.83-1.06.73-.36,1.14-.36c.26,0,.49.05.7.15s.42.28.65.53v-1.65c0-.42-.02-.67-.05-.76-.05-.11-.12-.2-.21-.25s-.27-.08-.53-.08v-.25h2.43Zm-1.64,3.71c-.29-.55-.64-.83-1.06-.83-.14,0-.26.04-.36.12-.14.12-.26.33-.35.64s-.14.77-.14,1.4c0,.69.05,1.2.15,1.54s.24.57.42.72c.09.07.21.11.37.11.34,0,.67-.27.97-.81v-2.88Z"/><path class="cls-1" d="m163.81,28.53v4.34c0,.39.04.63.13.74s.27.17.53.18v.21h-2.96v-.21c.24,0,.42-.08.54-.21.08-.09.12-.33.12-.71v-3.2c0-.39-.04-.63-.13-.74s-.26-.17-.52-.18v-.22h2.3Zm-.82-2.65c.25,0,.47.09.64.27s.26.39.26.64-.09.46-.27.64-.39.26-.64.26-.46-.09-.64-.26-.26-.39-.26-.64.09-.46.26-.64.39-.27.64-.27Z"/><path class="cls-1" d="m170.3,28.53v4.29c0,.42.04.68.12.78s.24.17.47.2v.21h-2.23v-.73c-.26.31-.52.54-.79.68s-.55.21-.88.21-.58-.09-.82-.28-.4-.41-.48-.67-.12-.7-.12-1.33v-2.17c0-.41-.04-.67-.11-.77s-.24-.17-.48-.2v-.22h2.23v3.74c0,.39.02.64.06.76s.1.2.18.26.17.09.28.09c.14,0,.27-.04.38-.11.16-.1.34-.31.56-.62v-2.93c0-.41-.04-.67-.11-.77s-.24-.17-.48-.2v-.22h2.23Z"/><path class="cls-1" d="m173.95,28.53v.72c.3-.33.58-.56.83-.69s.54-.2.84-.2c.35,0,.65.08.88.25s.42.41.55.75c.31-.35.61-.61.9-.76s.59-.23.9-.23c.38,0,.68.09.91.26s.38.39.47.66.13.69.13,1.28v2.24c0,.42.04.68.11.79s.24.17.48.2v.21h-2.83v-.21c.22-.02.39-.11.49-.26.07-.11.11-.35.11-.73v-2.36c0-.49-.02-.8-.06-.93s-.1-.23-.18-.3-.18-.1-.3-.1c-.17,0-.34.06-.51.18s-.35.31-.52.55v2.94c0,.39.03.64.1.74.09.14.26.22.52.24v.21h-2.84v-.21c.15,0,.27-.05.36-.11s.15-.15.18-.25.04-.3.04-.62v-2.36c0-.5-.02-.81-.06-.93s-.1-.22-.2-.29-.19-.11-.3-.11c-.16,0-.3.04-.43.12-.18.12-.38.33-.59.62v2.94c0,.39.04.64.11.76s.24.2.48.22v.21h-2.82v-.21c.23-.02.39-.1.49-.22.07-.09.1-.34.1-.76v-3.09c0-.41-.04-.67-.11-.77s-.24-.17-.48-.2v-.22h2.23Z"/><path class="cls-2" d="m188.67,33.79v.22h-4.15v-.22h.26c.23,0,.42-.04.56-.12.1-.05.18-.15.23-.28.04-.09.06-.34.06-.74v-5.23c0-.41-.02-.66-.06-.76s-.13-.19-.26-.27-.31-.11-.53-.11h-.26v-.22h4.15v.22h-.26c-.23,0-.42.04-.56.12-.1.05-.18.15-.24.28-.04.09-.06.34-.06.74v5.23c0,.41.02.66.07.76s.13.19.26.27.31.11.53.11h.26Z"/><path class="cls-1" d="m191.58,28.53v.71c.28-.3.55-.53.81-.67s.54-.21.83-.21c.36,0,.65.1.88.3s.39.44.47.74c.06.22.09.65.09,1.28v2.13c0,.42.04.68.11.79s.24.17.48.2v.21h-2.77v-.21c.21-.03.36-.11.45-.26.06-.1.09-.34.09-.73v-2.44c0-.45-.02-.73-.05-.85s-.09-.21-.18-.27-.18-.1-.28-.1c-.34,0-.65.24-.94.72v2.94c0,.41.04.67.11.78s.22.18.42.21v.21h-2.77v-.21c.23-.02.39-.1.49-.22.07-.09.1-.34.1-.76v-3.09c0-.41-.04-.67-.11-.77s-.24-.17-.48-.2v-.22h2.23Z"/><path class="cls-1" d="m199.48,28.38l.09,1.87h-.2c-.24-.55-.49-.93-.74-1.14s-.51-.3-.76-.3c-.16,0-.3.05-.41.16s-.17.23-.17.37c0,.11.04.21.12.3.12.16.47.43,1.05.82s.95.72,1.13.99.27.58.27.91c0,.3-.08.6-.23.9s-.37.52-.64.67-.58.23-.92.23c-.26,0-.61-.08-1.05-.25-.12-.04-.2-.06-.24-.06-.13,0-.24.1-.32.29h-.19l-.09-1.97h.2c.18.52.42.9.72,1.16s.6.39.87.39c.19,0,.34-.06.46-.17s.18-.25.18-.42c0-.19-.06-.35-.18-.49s-.38-.34-.79-.62c-.6-.41-.98-.73-1.16-.95-.26-.32-.39-.67-.39-1.06,0-.42.15-.8.44-1.15s.71-.51,1.26-.51c.3,0,.58.07.86.22.11.06.19.09.26.09.07,0,.13-.01.17-.04s.11-.11.21-.25h.2Z"/><path class="cls-1" d="m202.86,26.53v2h1.3v.58h-1.3v3.38c0,.32.01.52.04.61s.08.17.16.22.14.08.21.08c.25,0,.49-.19.72-.58l.18.13c-.32.75-.83,1.12-1.54,1.12-.35,0-.64-.1-.88-.29s-.39-.41-.46-.65c-.04-.13-.06-.49-.06-1.08v-2.96h-.71v-.21c.49-.35.91-.71,1.26-1.1s.65-.81.91-1.28h.19Z"/><path class="cls-1" d="m206.96,28.53v1.24c.36-.57.68-.94.96-1.13s.54-.28.79-.28c.22,0,.39.07.52.2s.2.33.2.57c0,.26-.06.46-.19.61s-.28.22-.46.22c-.21,0-.39-.07-.54-.2s-.24-.21-.27-.22c-.04-.02-.08-.04-.13-.04-.11,0-.22.04-.32.13-.16.13-.28.32-.36.57-.12.38-.19.8-.19,1.25v1.59c0,.22.02.37.05.43.05.11.12.18.21.23s.25.08.47.09v.21h-2.96v-.21c.24-.02.4-.08.48-.2s.13-.41.13-.88v-3.03c0-.31-.02-.51-.05-.6-.04-.11-.1-.19-.17-.24s-.21-.09-.39-.11v-.22h2.24Z"/><path class="cls-1" d="m215.3,28.53v4.29c0,.42.04.68.12.78s.24.17.47.2v.21h-2.23v-.73c-.26.31-.52.54-.79.68s-.55.21-.88.21-.58-.09-.82-.28-.4-.41-.48-.67-.12-.7-.12-1.33v-2.17c0-.41-.04-.67-.11-.77s-.24-.17-.48-.2v-.22h2.23v3.74c0,.39.02.64.06.76s.1.2.18.26.17.09.28.09c.14,0,.27-.04.38-.11.16-.1.34-.31.56-.62v-2.93c0-.41-.04-.67-.11-.77s-.24-.17-.48-.2v-.22h2.23Z"/><path class="cls-1" d="m221.16,32.6l.18.14c-.26.48-.58.84-.96,1.08s-.79.35-1.23.35c-.73,0-1.31-.28-1.75-.83s-.66-1.21-.66-1.99.2-1.4.6-1.97c.48-.68,1.14-1.03,1.99-1.03.57,0,1.02.14,1.35.43s.5.6.5.96c0,.22-.07.4-.2.53s-.31.2-.53.2c-.23,0-.42-.08-.57-.23s-.24-.42-.28-.81c-.02-.25-.08-.42-.17-.52s-.2-.15-.32-.15c-.19,0-.35.1-.48.3-.2.3-.3.76-.3,1.38,0,.52.08,1.01.25,1.48s.39.82.67,1.05c.21.17.47.25.76.25.19,0,.37-.04.54-.13s.38-.26.61-.51Z"/><path class="cls-1" d="m224.19,26.53v2h1.3v.58h-1.3v3.38c0,.32.01.52.04.61s.08.17.16.22.14.08.21.08c.25,0,.49-.19.72-.58l.18.13c-.32.75-.83,1.12-1.54,1.12-.35,0-.64-.1-.88-.29s-.39-.41-.46-.65c-.04-.13-.06-.49-.06-1.08v-2.96h-.71v-.21c.49-.35.91-.71,1.26-1.1s.65-.81.91-1.28h.19Z"/><path class="cls-1" d="m228.15,28.53v4.34c0,.39.04.63.13.74s.27.17.53.18v.21h-2.96v-.21c.24,0,.42-.08.54-.21.08-.09.12-.33.12-.71v-3.2c0-.39-.04-.63-.13-.74s-.26-.17-.52-.18v-.22h2.3Zm-.82-2.65c.25,0,.47.09.64.27s.26.39.26.64-.09.46-.27.64-.39.26-.64.26-.46-.09-.64-.26-.26-.39-.26-.64.09-.46.26-.64.39-.27.64-.27Z"/><path class="cls-1" d="m231.93,28.37c.48,0,.92.12,1.33.37s.72.6.93,1.05.32.95.32,1.49c0,.78-.2,1.43-.59,1.95-.48.63-1.13.95-1.97.95s-1.46-.29-1.9-.87c-.44-.58-.67-1.25-.67-2.01s.23-1.47.68-2.05c.46-.58,1.08-.88,1.87-.88Zm.02.42c-.2,0-.37.08-.51.23s-.24.45-.28.89-.07,1.06-.07,1.85c0,.42.03.81.08,1.17.04.28.13.49.28.63s.3.22.48.22.32-.05.44-.15c.15-.13.25-.32.3-.56.08-.37.12-1.12.12-2.25,0-.66-.04-1.12-.11-1.37s-.18-.43-.33-.54c-.1-.08-.23-.12-.4-.12Z"/><path class="cls-1" d="m237.58,28.53v.71c.28-.3.55-.53.81-.67s.54-.21.83-.21c.36,0,.65.1.88.3s.39.44.47.74c.06.22.09.65.09,1.28v2.13c0,.42.04.68.11.79s.24.17.48.2v.21h-2.77v-.21c.21-.03.36-.11.45-.26.06-.1.09-.34.09-.73v-2.44c0-.45-.02-.73-.05-.85s-.09-.21-.18-.27-.18-.1-.28-.1c-.34,0-.65.24-.94.72v2.94c0,.41.04.67.11.78s.22.18.42.21v.21h-2.77v-.21c.23-.02.39-.1.49-.22.07-.09.1-.34.1-.76v-3.09c0-.41-.04-.67-.11-.77s-.24-.17-.48-.2v-.22h2.23Z"/></g><g><path class="cls-3" d="m250.61,5.47v.4c-.61.4-1.06.79-1.34,1.17-.4.53-.71,1.2-.93,2.03-.28,1.03-.42,2.46-.42,4.3,0,1.73.13,3.08.38,4.04s.6,1.74,1.04,2.33c.3.41.73.77,1.27,1.08v.44c-1.41-.47-2.61-1.44-3.59-2.9s-1.47-3.14-1.47-5.04.49-3.53,1.47-4.98,2.18-2.4,3.59-2.87Z"/><path class="cls-3" d="m262.18,5.74v3.23h-.32c-.19-.74-.4-1.28-.62-1.6s-.54-.58-.94-.78c-.22-.11-.61-.16-1.17-.16h-.89v9.19c0,.61.03.99.1,1.14s.2.29.4.4.46.17.8.17h.4v.33h-6.24v-.33h.4c.35,0,.62-.06.83-.18.15-.08.27-.22.36-.42.06-.14.1-.51.1-1.11V6.43h-.86c-.8,0-1.39.17-1.75.51-.51.47-.83,1.15-.97,2.03h-.33v-3.23h10.71Z"/><path class="cls-3" d="m267.73,6.43v4.85h.24c.76,0,1.3-.24,1.64-.71s.56-1.17.65-2.1h.33v6.24h-.33c-.07-.68-.22-1.24-.44-1.67s-.49-.73-.79-.87-.73-.22-1.3-.22v3.36c0,.66.03,1.06.08,1.2s.16.27.31.36.4.14.74.14h.71c1.11,0,2.01-.26,2.68-.77s1.15-1.3,1.45-2.36h.33l-.54,3.79h-10.3v-.33h.4c.35,0,.62-.06.83-.18.15-.08.27-.22.35-.42.06-.14.1-.51.1-1.11v-7.84c0-.54-.01-.87-.04-.99-.06-.21-.17-.36-.33-.47-.22-.16-.53-.25-.91-.25h-.4v-.33h9.98v3.52h-.33c-.17-.86-.41-1.48-.72-1.85s-.74-.65-1.31-.83c-.33-.11-.94-.16-1.85-.16h-1.23Z"/><path class="cls-3" d="m279.74,6.43v4.85h.24c.76,0,1.3-.24,1.64-.71s.56-1.17.65-2.1h.33v6.24h-.33c-.07-.68-.22-1.24-.44-1.67s-.49-.73-.79-.87-.73-.22-1.3-.22v3.36c0,.66.03,1.06.08,1.2s.16.27.31.36.4.14.74.14h.71c1.11,0,2.01-.26,2.68-.77s1.15-1.3,1.45-2.36h.33l-.54,3.79h-10.3v-.33h.4c.35,0,.62-.06.83-.18.15-.08.27-.22.35-.42.06-.14.1-.51.1-1.11v-7.84c0-.54-.01-.87-.04-.99-.06-.21-.17-.36-.33-.47-.22-.16-.53-.25-.91-.25h-.4v-.33h9.98v3.52h-.33c-.17-.86-.41-1.48-.72-1.85s-.74-.65-1.31-.83c-.33-.11-.94-.16-1.85-.16h-1.23Z"/><path class="cls-3" d="m295.42,13.6l3.23-7.86h4.85v.33h-.39c-.35,0-.63.06-.84.18-.15.08-.26.22-.35.41-.06.14-.1.51-.1,1.1v7.86c0,.61.03.99.1,1.14s.2.29.4.4.47.17.8.17h.39v.33h-6.22v-.33h.39c.35,0,.63-.06.84-.18.15-.08.26-.22.35-.42.06-.14.1-.51.1-1.11V6.79l-4.57,10.87h-.21l-4.64-10.79v8.39c0,.59.01.95.04,1.08.08.29.24.53.5.72s.65.28,1.2.28v.33h-4.08v-.33h.12c.26,0,.51-.04.74-.13s.4-.21.52-.36.21-.37.27-.64c.01-.06.02-.36.02-.9v-7.54c0-.6-.03-.98-.1-1.13s-.2-.28-.4-.4-.47-.17-.8-.17h-.38v-.33h4.87l3.35,7.86Z"/><path class="cls-3" d="m310.42,17.33v.33h-6.23v-.33h.4c.35,0,.62-.06.83-.18.15-.08.27-.22.35-.42.06-.14.1-.51.1-1.11v-7.84c0-.61-.03-.99-.1-1.14s-.19-.29-.39-.4-.46-.17-.8-.17h-.4v-.33h6.23v.33h-.4c-.35,0-.62.06-.83.18-.15.08-.27.22-.36.42-.06.14-.1.51-.1,1.11v7.84c0,.61.03.99.1,1.14s.2.29.4.4.46.17.79.17h.4Z"/><path class="cls-3" d="m311.06,21.26v-.4c.61-.4,1.06-.8,1.34-1.18.39-.53.7-1.2.93-2.02.28-1.03.42-2.47.42-4.31,0-1.73-.13-3.08-.38-4.04s-.6-1.73-1.04-2.32c-.3-.41-.73-.77-1.27-1.08v-.44c1.41.47,2.61,1.44,3.59,2.9s1.47,3.14,1.47,5.04-.49,3.53-1.47,4.97-2.18,2.4-3.59,2.88Z"/></g></g></svg>