<svg xmlns="http://www.w3.org/2000/svg" viewBox="0 0 89.89 15.73"><defs><style>.cls-1{fill:#43469a;}</style></defs><g id="圖層_2" data-name="圖層 2"><g id="圖層_1-2" data-name="圖層 1"><path class="cls-1" d="M15.25,4.5h-.87a9.59,9.59,0,0,0-1.1-2.16c-.51-.77-1-1.18-1.4-1.24-.24,0-.53-.06-.87-.08l-.9,0H9.59V13.33a1.57,1.57,0,0,0,.15.7.94.94,0,0,0,.56.48,4.44,4.44,0,0,0,.79.21c.36.07.67.12.92.15v.86H3.24v-.86l.9-.1a3.1,3.1,0,0,0,.79-.15,1,1,0,0,0,.58-.47,1.58,1.58,0,0,0,.14-.71V1H5.13L4.24,1c-.35,0-.64.05-.88.08-.42.06-.89.47-1.4,1.24A10,10,0,0,0,.86,4.5H0V0H15.25Z"/><path class="cls-1" d="M32.37,4h-.84A5.75,5.75,0,0,0,30.42,2.2a3,3,0,0,0-1.56-1.08A5,5,0,0,0,27.93,1c-.39,0-.72,0-1,0H24.67V7.07h1.62a3.93,3.93,0,0,0,1.11-.14,2.13,2.13,0,0,0,.9-.55,2.72,2.72,0,0,0,.52-.9,5.48,5.48,0,0,0,.34-1.12H30v6.56h-.84a6.1,6.1,0,0,0-.34-1.17,3.08,3.08,0,0,0-.52-1,1.93,1.93,0,0,0-.86-.55,4,4,0,0,0-1.15-.15H24.67v4.54a4.75,4.75,0,0,0,.1,1.12,1.09,1.09,0,0,0,.4.64,1.61,1.61,0,0,0,.76.28,10.81,10.81,0,0,0,1.31.07l.93,0a8.45,8.45,0,0,0,.95-.06,6.87,6.87,0,0,0,.88-.17,1.22,1.22,0,0,0,.6-.32,9.21,9.21,0,0,0,1.2-1.66,12,12,0,0,0,.87-1.67h.81l-.3,4.9H18.42v-.86l.85-.09a3.1,3.1,0,0,0,.75-.16,1.07,1.07,0,0,0,.57-.44,1.58,1.58,0,0,0,.14-.7V2.38a1.62,1.62,0,0,0-.12-.66A1.14,1.14,0,0,0,20,1.25,3.63,3.63,0,0,0,19.21,1L18.42.86V0H32.37Z"/><path class="cls-1" d="M51,4h-.84A5.94,5.94,0,0,0,49.07,2.2a3,3,0,0,0-1.56-1.08A5,5,0,0,0,46.58,1c-.39,0-.72,0-1,0H43.32V7.07h1.61A3.83,3.83,0,0,0,46,6.93,2.11,2.11,0,0,0,47,6.38a2.91,2.91,0,0,0,.52-.9,6.2,6.2,0,0,0,.34-1.12h.84v6.56h-.84a6.1,6.1,0,0,0-.34-1.17,3.08,3.08,0,0,0-.52-1,1.93,1.93,0,0,0-.86-.55,4,4,0,0,0-1.16-.15H43.32v4.54a4.75,4.75,0,0,0,.1,1.12,1.09,1.09,0,0,0,.4.64,1.61,1.61,0,0,0,.75.28,11,11,0,0,0,1.32.07l.93,0a8.45,8.45,0,0,0,1-.06,7.06,7.06,0,0,0,.87-.17,1.26,1.26,0,0,0,.61-.32,9.73,9.73,0,0,0,1.2-1.66,12,12,0,0,0,.87-1.67h.81l-.3,4.9H37.07v-.86l.85-.09a3.1,3.1,0,0,0,.75-.16,1.07,1.07,0,0,0,.57-.44,1.58,1.58,0,0,0,.14-.7V2.38a1.62,1.62,0,0,0-.12-.66,1.14,1.14,0,0,0-.59-.47A3.63,3.63,0,0,0,37.86,1L37.07.86V0H51Z"/><path class="cls-1" d="M77.34,15.73H68.82v-.86l.92-.11a3,3,0,0,0,.75-.17,1.21,1.21,0,0,0,.59-.45,1.36,1.36,0,0,0,.18-.73V1.65L65.84,15.48H64.45c-.07-.25-.23-.73-.5-1.45s-.47-1.31-.63-1.74l-4-10.82V11a9.08,9.08,0,0,0,.18,2.09,1.91,1.91,0,0,0,.59,1,2.9,2.9,0,0,0,1,.44,6.07,6.07,0,0,0,1,.25v.86H55.34v-.86c.19,0,.49-.07.91-.15a2.38,2.38,0,0,0,1-.41,1.56,1.56,0,0,0,.6-1,10.31,10.31,0,0,0,.16-2.1V3.37a3.33,3.33,0,0,0-.18-1.18,1.8,1.8,0,0,0-.53-.75A2.19,2.19,0,0,0,56.41,1a7.62,7.62,0,0,0-.94-.14V0h7.25l3.87,10.37L69.86,2A10.33,10.33,0,0,0,70.18.84,5.89,5.89,0,0,0,70.35,0h7V.86L76.58,1a7.29,7.29,0,0,0-.74.18.93.93,0,0,0-.58.46,1.65,1.65,0,0,0-.14.68V13.42a1.51,1.51,0,0,0,.14.67,1.19,1.19,0,0,0,.58.47,3.49,3.49,0,0,0,.72.19l.78.12Z"/><path class="cls-1" d="M89.89,15.73H81.17v-.86l.88-.07a3.08,3.08,0,0,0,.8-.13,1.08,1.08,0,0,0,.56-.44,1.41,1.41,0,0,0,.15-.69V2.38a1.53,1.53,0,0,0-.14-.66,1.1,1.1,0,0,0-.57-.47A4.81,4.81,0,0,0,82.06,1a8.44,8.44,0,0,0-.89-.17V0h8.72V.86l-.83.1a5,5,0,0,0-.84.17,1,1,0,0,0-.58.45,1.67,1.67,0,0,0-.14.69V13.42a1.45,1.45,0,0,0,.15.68,1.09,1.09,0,0,0,.57.46,4,4,0,0,0,.77.19,8.07,8.07,0,0,0,.9.12Z"/></g></g></svg>