<?xml version="1.0" encoding="UTF-8"?>
<svg xmlns="http://www.w3.org/2000/svg" version="1.1" viewBox="0 0 162 212">
  <defs>
    <style>
      .cls-1 {
        fill: #dcdbd6;
      }

      .cls-2 {
        fill: #fff;
      }

      .cls-3 {
        fill: #09896a;
      }

      .cls-4 {
        fill: #006d59;
      }

      .cls-5 {
        fill: #769cb8;
        isolation: isolate;
        opacity: .4;
      }

      .cls-6 {
        fill: #fff100;
      }

      .cls-7 {
        fill: #9fa0a0;
      }
    </style>
  </defs>
  <!-- Generator: Adobe Illustrator 28.7.5, SVG Export Plug-In . SVG Version: 1.2.0 Build 176)  -->
  <g>
    <g id="TEEMIrobot">
      <path id="shadow" class="cls-5" d="M117.1,203.2c0,4.7-16.2,8.5-36.1,8.5s-36.1-3.8-36.1-8.5,16.2-8.5,36.1-8.5,36.1,3.8,36.1,8.5Z"/>
      <g id="body">
        <path class="cls-3" d="M115.8,127.1c0-5.3-.2-3.4-.5-4.9-2.7-11.5-15.5-12.4-28.2-12.4,0,0,0,0,0,0,0,0-.2,0-.3,0-2.1,7.3-4.1,12.3-5.8,12.4-1.7,0-3.7-5.1-5.8-12.4,0,0-.2,0-.3,0,0,0,0,0,0,0-12.7,0-25.5.9-28.2,12.4-.3,1.5-.5-.4-.5,4.9s0,.3,0,.4c0,.2,0,.3,0,.5,0,16.8,2.2,14.8,6,21.2,2.3,3.9,5.2,9.6,8.5,15.2,7,4.2,13.8,5,20.2,3.9,6.4,1.2,13.3.3,20.3-3.9,3.3-5.6,6.2-11.3,8.5-15.2,3.8-6.4,6-4.4,6-21.2s0-.3,0-.5c0-.1,0-.3,0-.4Z"/>
        <path class="cls-4" d="M81.8,183.6c9.7,0,22.8-19.4,29.6-37.3-9.1,12.7-29.5,30.8-50.8,18,5.8,9.7,13,19.3,21.2,19.3h0Z"/>
      </g>
      <g id="rightHand">
        <path class="cls-1" d="M43.4,123.5c2.4,3.8-1.7,7.1-8.9,9.8-8.6,3.2-26.5,2.3-32.5-7h0c-.5-.9-.9-1.8-1.3-2.7-3.8-11.8,34.2-6.5,38.5-3.7,2.1,1.4,3.4,2.5,4.1,3.7Z"/>
        <path class="cls-7" d="M43.4,123.5c2.4,3.8-1.7,7.1-8.9,9.8-8.6,3.2-26.5,2.3-32.5-7,9.2,3.9,25.8,8.1,41.4-2.7Z"/>
        <path class="cls-2" d="M11.7,118.7c2.9,0,7.7.7,7.8,1.8,0,1-4.9,2.5-9.7,2.1-3.2-.3-7.1-1.5-7-2.4,0-1,5.1-1.7,8.9-1.5h0Z"/>
      </g>
      <g id="leftHand">
        <path class="cls-1" d="M122.7,119.8c4.3-2.7,42.3-8.1,38.5,3.7-.3.9-.7,1.9-1.3,2.7h0c-5.9,9.3-23.8,10.2-32.5,7-7.2-2.7-11.4-5.9-8.9-9.8.8-1.2,2.1-2.3,4.1-3.7Z"/>
        <path class="cls-7" d="M160,126.3c-5.9,9.3-23.8,10.2-32.5,7-7.2-2.7-11.4-5.9-8.9-9.8,15.6,10.9,32.2,6.6,41.4,2.7Z"/>
        <path class="cls-2" d="M150.3,118.7c3.8-.2,8.8.5,8.9,1.5.1.9-3.7,2.1-7,2.4-4.8.4-9.7-1.1-9.7-2.1,0-1.1,4.9-1.7,7.8-1.8h0Z"/>
      </g>
      <g id="rightEar">
        <path class="cls-3" d="M25.4,85.4c-1.9-.7-3.5-1.7-4.9-3-3.2-2.9-5.1-7.1-5-11.5.1-4.5,2.3-8.6,5.8-11.3,1-.8,2.1-1.4,3.3-2,9.7,14.2.8,27.8.8,27.8Z"/>
        <path class="cls-4" d="M25.4,85.4c-1.9-.7-3.5-1.7-4.9-3,.3-3.4.6-7.1.7-10.9.2-4.2.2-8.2.1-12,1-.8,2.1-1.4,3.3-2,.3,9.3.5,18.5.8,27.8h0Z"/>
      </g>
      <g id="face">
        <path class="cls-7" d="M141.2,71.8c0,13.3-4.6,26.4-15.9,32.1-10.6,6.3-29,5.7-43.1,5.8-14,0-32.5.6-43.1-5.8-11.2-5.8-14.6-18.5-13.2-31.6-1.4-13,2-25.8,13.2-31.5,10.6-6.3,29-5.7,43.1-5.8,14,0,32.5-.6,43.1,5.8,11.2,5.8,16.1,17.3,15.9,31h0Z"/>
        <path class="cls-1" d="M80.4,43.3c-2.7,0-5.3,1.2-7.4,3.6h0c-.9,1.1-1.8,2.4-2.5,4h0c-2.1,4.5-3.3,11-3.3,19.8s.8,13.1,2,20.7c2.8,18.2,8.1,37.7,11.2,37.7s8.7-19.9,11.4-38.2c1.1-7.4,1.8-14.6,1.8-20.2,0-19.2-5.9-27.5-13.2-27.5h0ZM80.8,99.6c-.7,0-1.3-1.6-1.3-3.5s.6-3.5,1.3-3.5,1.3,1.6,1.3,3.5-.6,3.5-1.3,3.5ZM89.7,85.4c-2.1,2.3-6.1,2.3-9.3,2.3s-7.2,0-9.3-2.3c-2.1-2.3-3-16.3-2-20.9,1-4.7,6.4-7.8,11.4-7.8s10.4,3.2,11.4,7.8c1,4.7,0,18.7-2,20.9h-.2Z"/>
        <path class="cls-1" d="M135.9,69.5c.3,13.7-2,25.8-13.2,31.5-10.6,6.3-29,5.7-43.1,5.8-14,0-32.5.6-43.1-5.8-11.2-5.8-13.3-18.1-13.2-31.6,0-14.4,2-25.8,13.2-31.5,10.6-6.4,29-5.7,43.1-5.8,14,0,32.5-.6,43.1,5.8,11.2,5.8,12.9,17.1,13.2,31.6Z"/>
        <path class="cls-3" d="M122.8,69.9c0,16.2-9.9,29.3-22.2,29.3h-40.3c-12.3,0-22.2-13.1-22.2-29.3h0c0-16.2,10-29.3,22.2-29.3h40.3c12.3,0,22.2,13.1,22.2,29.3h0Z"/>
      </g>
      <g id="leftEar">
        <path class="cls-3" d="M141.9,62.3c-.3,3.4-.6,7.1-.7,10.9-.2,4.2-.2,8.2-.1,12,3.5-2.7,5.7-6.9,5.8-11.3s-1.8-8.6-5-11.5h0Z"/>
        <path class="cls-4" d="M141.9,62.3c-.7-.7-1.1-1-1.9-1.5-.8-.5-5,11.9-.5,25.4,1.2-.5.6-.3,1.6-1.1,0-3.8,0-7.8.1-12,.1-3.8.4-7.4.7-10.9h0Z"/>
      </g>
      <path id="mouth" class="cls-6" d="M88.3,80c0,4.5-3.6,8.1-8.1,8.1s-8.1-3.6-8.1-8.1c0,0,16.2,0,16.2,0Z"/>
      <g id="rightWave">
        <path class="cls-3" d="M68.1,21.1h-.3c-4-2.1-6.4-6.2-6.4-10.6S63.5,2.3,67.2.1c.3-.2.7-.1.9.2s0,.8-.2,1c-3.2,1.9-5.1,5.4-5.1,9.1s2.2,7.5,5.6,9.4c.3.2.5.6.3,1,0,.2-.4.4-.6.4h0Z"/>
        <path class="cls-3" d="M69.2,17c-.2,0-.3,0-.5-.2-1.9-1.7-3-3.9-3-6.2s1.1-4.5,3-6.3c.3-.3.7-.2,1,0s.2.7,0,1c-1.7,1.5-2.5,3.3-2.5,5.2s.9,3.7,2.5,5.2c.3.3.3.7,0,1,0,.2-.3.2-.5.2h0Z"/>
      </g>
      <g id="leftWave">
        <path class="cls-3" d="M93.5,21.1h.3c3.9-2.1,6.4-6.2,6.4-10.6s-2.2-8.1-5.8-10.3c-.3-.2-.8-.1-1,.2-.2.3,0,.8.2,1,3.2,2,5.1,5.3,5.1,9.1s-2.2,7.5-5.6,9.4c-.3.2-.5.6-.3,1,0,.2.4.4.6.4h0v-.2Z"/>
        <path class="cls-3" d="M92.4,17c.2,0,.3,0,.5-.2,1.9-1.7,3-3.9,3-6.2s-1.1-4.5-3-6.3c-.3-.3-.7-.2-1,0s-.2.7,0,1c1.6,1.5,2.6,3.3,2.6,5.2s-.9,3.7-2.5,5.2c-.3.3-.3.7,0,1,0,.2.3.2.5.2h0Z"/>
      </g>
      <g id="tele">
        <path class="cls-3" d="M84.2,31.9c0,1.7-1.4,3-3,3h0c-1.7,0-3-1.4-3-3l1.9-16.2c0-1.7-.6-3,1.1-3h0c1.7,0,1.1,1.4,1.1,3l1.9,16.2h0Z"/>
        <path class="cls-3" d="M80.7,3.9h.9c3.4,0,6.2,2.8,6.2,6.2v.9c0,3.4-2.8,6.2-6.2,6.2h-.9c-3.4,0-6.2-2.8-6.2-6.2v-.9c0-3.4,2.8-6.2,6.2-6.2h0Z"/>
      </g>
      <path id="rightEye" class="cls-6" d="M68.2,66.6c0,1.8-1.4,3.2-3.2,3.2h0c-1.8,0-3.2-1.4-3.2-3.2v-8.3c0-1.8,1.4-3.2,3.2-3.2h0c1.8,0,3.2,1.4,3.2,3.2v8.3Z"/>
      <path id="leftEye" class="cls-6" d="M97,66.6c0,1.8-1.4,3.2-3.2,3.2h0c-1.8,0-3.2-1.4-3.2-3.2v-8.3c0-1.8,1.4-3.2,3.2-3.2h0c1.8,0,3.2,1.4,3.2,3.2v8.3Z"/>
    </g>
  </g>
</svg>