<?xml version="1.0" encoding="UTF-8"?>
<svg id="_圖層_2" data-name="圖層 2" xmlns="http://www.w3.org/2000/svg" viewBox="0 0 131.4 132.04">
  <defs>
    <style>
      .cls-1 {
        fill: #dcdbd6;
      }

      .cls-2 {
        fill: #fff100;
      }

      .cls-3 {
        fill: #09896a;
      }

      .cls-4 {
        fill: #9fa0a0;
      }

      .cls-5 {
        fill: #006d59;
      }
    </style>
  </defs>
  <g id="_圖層_1-2" data-name="圖層 1">
    <g>
      <path class="cls-3" d="M9.93,85.39c-1.86-.7-3.52-1.72-4.92-2.99C1.78,79.49-.12,75.3,0,70.89c.13-4.47,2.33-8.62,5.84-11.34.99-.77,2.09-1.43,3.28-1.95,9.68,14.15.81,27.79.81,27.79Z"/>
      <path class="cls-5" d="M9.93,85.39c-1.86-.7-3.52-1.72-4.92-2.99.32-3.45.57-7.08.72-10.88.16-4.19.19-8.18.11-11.97.99-.77,2.09-1.43,3.28-1.95.27,9.26.54,18.53.81,27.79Z"/>
    </g>
    <g>
      <path class="cls-4" d="M67.71,46.13c-2.73,0-5.27,1.16-7.37,3.63h0c-.93,1.09-1.77,2.42-2.51,4.03-2.06,4.47-3.31,10.98-3.31,19.82,0,5.67.77,13.08,1.96,20.71,2.85,18.23,8.13,37.72,11.22,37.72,3.46,0,8.68-19.87,11.39-38.25,1.1-7.44,1.79-14.64,1.79-20.18,0-19.21-5.9-27.49-13.18-27.49Z"/>
      <path class="cls-4" d="M125.65,71.77c.02,13.3-4.62,26.37-15.86,32.12-10.6,6.35-29.03,5.72-43.06,5.75-14.04-.03-32.47.6-43.07-5.75-11.23-5.76-14.64-18.5-13.25-31.55-1.38-13.05,2.02-25.79,13.25-31.55,10.6-6.35,29.03-5.72,43.06-5.75,14.04.03,32.46-.6,43.06,5.75,11.23,5.75,16.15,17.28,15.85,30.98Z"/>
    </g>
    <path class="cls-1" d="M64.85,43.26c-2.73,0-5.27,1.16-7.37,3.63h0c-.93,1.09-1.77,2.42-2.5,4.03h0c-2.06,4.47-3.31,10.98-3.31,19.82,0,5.67.77,13.08,1.96,20.71,2.85,18.23,8.13,37.72,11.22,37.72,3.46,0,8.68-19.87,11.39-38.25,1.1-7.44,1.79-14.64,1.79-20.18,0-19.21-5.9-27.49-13.18-27.49ZM65.3,99.64c-.73,0-1.32-1.56-1.32-3.48s.59-3.48,1.32-3.48,1.32,1.56,1.32,3.48-.59,3.48-1.32,3.48ZM74.2,85.38c-2.11,2.28-6.14,2.28-9.34,2.28s-7.23,0-9.34-2.28c-2.11-2.28-2.98-16.27-2.02-20.93.96-4.66,6.42-7.81,11.37-7.81s10.41,3.15,11.37,7.81c.96,4.66.08,18.65-2.02,20.93Z"/>
    <path class="cls-1" d="M120.36,69.48c.29,13.66-2.02,25.79-13.25,31.55-10.6,6.35-29.03,5.72-43.06,5.75-14.04-.03-32.47.6-43.07-5.75-11.23-5.76-13.34-18.14-13.25-31.55.09-14.44,2.02-25.79,13.25-31.55,10.6-6.35,29.03-5.72,43.07-5.75,14.04.03,32.47-.6,43.06,5.75,11.23,5.76,12.95,17.12,13.25,31.55Z"/>
    <path class="cls-3" d="M107.25,69.89c0,16.16-9.96,29.27-22.24,29.27h-40.31c-12.28,0-22.24-13.1-22.24-29.27h0c0-16.16,9.96-29.26,22.24-29.26h40.31c12.28,0,22.24,13.1,22.24,29.26h0Z"/>
    <path class="cls-2" d="M72.8,80.03c0,4.47-3.62,8.09-8.09,8.09s-8.09-3.62-8.09-8.09h16.17Z"/>
    <g>
      <g>
        <path class="cls-3" d="M51.55,21.15c-.11,0-.23-.03-.33-.08-3.95-2.1-6.39-6.18-6.39-10.65S47,2.31,50.64.1c.34-.2.77-.1.98.24.2.34.1.77-.24.98-3.22,1.95-5.13,5.35-5.13,9.1,0,3.94,2.16,7.54,5.64,9.39.35.18.48.61.29.96-.13.24-.37.38-.63.38Z"/>
        <path class="cls-3" d="M52.63,16.99c-.17,0-.34-.06-.47-.18-1.92-1.71-2.98-3.92-2.98-6.21s1.08-4.54,3.03-6.26c.3-.26.74-.23,1,.06.26.29.23.74-.06,1-1.65,1.45-2.55,3.29-2.55,5.19s.89,3.71,2.51,5.15c.29.26.32.71.06,1-.14.16-.33.24-.53.24Z"/>
      </g>
      <g>
        <path class="cls-3" d="M76.99,21.15c.11,0,.23-.03.33-.08,3.95-2.1,6.39-6.18,6.39-10.65s-2.17-8.11-5.82-10.32c-.34-.2-.77-.1-.98.24-.2.34-.1.77.24.98,3.21,1.95,5.13,5.35,5.13,9.1,0,3.94-2.16,7.54-5.64,9.39-.35.18-.48.61-.29.96.13.24.37.38.63.38Z"/>
        <path class="cls-3" d="M75.91,16.99c.17,0,.34-.06.47-.18,1.92-1.71,2.98-3.92,2.98-6.21s-1.08-4.54-3.03-6.26c-.29-.26-.74-.23-1,.06-.26.29-.23.74.06,1,1.64,1.45,2.55,3.29,2.55,5.19s-.89,3.71-2.51,5.15c-.29.26-.32.71-.06,1,.14.16.33.24.53.24Z"/>
      </g>
      <path class="cls-3" d="M67.69,31.9c0,1.68-1.36,3.04-3.04,3.04h0c-1.68,0-3.04-1.36-3.04-3.04l1.94-16.16c0-1.68-.58-3.04,1.11-3.04h0c1.68,0,1.11,1.36,1.11,3.04l1.94,16.16Z"/>
      <path class="cls-3" d="M64.19,3.91h.9c3.43,0,6.22,2.79,6.22,6.22v.9c0,3.43-2.78,6.21-6.21,6.21h-.9c-3.43,0-6.21-2.78-6.21-6.21v-.9c0-3.43,2.79-6.22,6.22-6.22Z"/>
    </g>
    <path class="cls-2" d="M52.67,66.55c0,1.77-1.43,3.2-3.2,3.2h0c-1.77,0-3.2-1.43-3.2-3.2v-8.29c0-1.77,1.43-3.2,3.2-3.2h0c1.77,0,3.2,1.43,3.2,3.2v8.29Z"/>
    <path class="cls-2" d="M81.44,66.55c0,1.77-1.43,3.2-3.2,3.2h0c-1.77,0-3.2-1.43-3.2-3.2v-8.29c0-1.77,1.43-3.2,3.2-3.2h0c1.77,0,3.2,1.43,3.2,3.2v8.29Z"/>
    <g>
      <path class="cls-3" d="M126.39,62.28c-.32,3.45-.57,7.08-.72,10.88-.16,4.19-.19,8.18-.11,11.97,3.51-2.73,5.71-6.87,5.84-11.34.12-4.41-1.77-8.6-5.01-11.51Z"/>
      <path class="cls-5" d="M126.39,62.28c-.74-.67-1.05-.96-1.93-1.48-.78-.46-5,11.93-.51,25.42,1.19-.52.61-.32,1.6-1.09-.08-3.79-.05-7.78.11-11.97.15-3.8.4-7.43.72-10.88Z"/>
    </g>
  </g>
</svg>