<?xml version="1.0" encoding="UTF-8"?>
<svg xmlns="http://www.w3.org/2000/svg" version="1.1" viewBox="0 0 28.7 28.7">
  <defs>
    <style>
      .cls-1 {
        fill: #fff;
      }

      .cls-2 {
        fill: #0aa773;
      }
    </style>
  </defs>
  <!-- Generator: Adobe Illustrator 28.7.5, SVG Export Plug-In . SVG Version: 1.2.0 Build 176)  -->
  <g>
    <g id="_圖層_1">
      <g id="_圖層_2">
        <g id="_圖層_1-2">
          <path class="cls-2" d="M28.7,14.3c0,7.9-6.4,14.3-14.3,14.3S0,22.3,0,14.3,6.4,0,14.3,0h0C22.3,0,28.7,6.4,28.7,14.3Z"/>
          <path class="cls-1" d="M24.9,14.3c0,5.8-4.8,10.6-10.6,10.6S3.7,20.1,3.7,14.3,8.4,3.7,14.3,3.7s10.6,4.8,10.6,10.6h0Z"/>
          <path class="cls-2" d="M19.3,14.3c0,2.7-2.2,4.9-4.9,4.9s-4.9-2.2-4.9-4.9,2.2-4.9,4.9-4.9h0c2.7,0,4.9,2.2,4.9,4.9h0Z"/>
        </g>
      </g>
    </g>
  </g>
</svg>