<?xml version="1.0" encoding="UTF-8"?>
<svg xmlns="http://www.w3.org/2000/svg" version="1.1" xmlns:xlink="http://www.w3.org/1999/xlink" viewBox="0 0 47.1 47.1">
  <defs>
    <style>
      .cls-1 {
        stroke: #fff;
        stroke-width: 3px;
      }

      .cls-1, .cls-2 {
        fill: none;
      }

      .cls-3 {
        fill: #fff;
      }

      .cls-4 {
        fill: #f4ce36;
      }

      .cls-5 {
        clip-path: url(#clippath-1);
      }

      .cls-6 {
        fill: #2577a6;
      }

      .cls-7 {
        fill: #51b77c;
      }

      .cls-8 {
        clip-path: url(#clippath);
      }
    </style>
    <clipPath id="clippath">
      <path class="cls-2" d="M23.6,3C12.2,3,3.1,12.2,3.1,23.5s9.2,20.5,20.5,20.5,20.5-9.2,20.5-20.5S34.9,3,23.6,3Z"/>
    </clipPath>
    <clipPath id="clippath-1">
      <rect class="cls-2" x="-2.3" y="5.3" width="48.4" height="42.9"/>
    </clipPath>
  </defs>
  <!-- Generator: Adobe Illustrator 28.7.5, SVG Export Plug-In . SVG Version: 1.2.0 Build 176)  -->
  <g>
    <g id="_圖層_1">
      <circle class="cls-4" cx="23.5" cy="23.5" r="22"/>
      <circle class="cls-1" cx="23.5" cy="23.5" r="22"/>
      <g class="cls-8">
        <g class="cls-5">
          <path class="cls-6" d="M24.5,45.2s2.6,0,5.2-.2c-1,1-3.4,3.2-5.4,3.1-1.9,0-4.1-2-5.2-3.1,2.6.2,5.4.2,5.4.2"/>
          <path class="cls-7" d="M7.4,32.4c-.7-.9-1.5-1.7-2.3-2.4-2.9-2.5-6.3-3.9-7.2-4.9,0,0,0,0,0-.1,0,0,0,0,0,0,0,0,0,0,0,0,0,0,0,0,0,0,0,0,0,0,0-.1-.3-1.3,1.2-2.7,7.2-2.1,1.2.1,2.4.4,3.4.7,2.5.7,3.7,3.6,2.4,5.8-.7,1.1-1.7,2.2-3.3,3.2"/>
          <path class="cls-7" d="M35.3,30.3c1,.2,1.9.6,2.8,1,3.1,1.4,5.5,3.7,6.6,4.1,0,0,0,0,.1,0,0,0,0,0,0,0,0,0,0,0,0,0,0,0,0,0,0,0,0,0,0,0,.1,0,1.2-.3,1.8-2-1-6.7-.6-1-1.2-1.8-1.8-2.5-1.5-1.8-4.3-1.7-5.6.2-.6,1-1.2,2.2-1.4,3.9"/>
          <path class="cls-6" d="M26.6,41.3c-4.2.5-10.5-.7-14.5-3.1-1.3-.8-2.4-1.6-3.2-2.3-1.3-1.3-2-3.4-2.5-5.2,0,.4,0,.9,0,1.2.1,1.6.8,5.1,2.5,7,.6.7,1.5,1.4,2.6,2.1,3.3,2.2,8.5,3.5,12.1,3.4,0,0,0,0,0,0,3.5,0,8.5-1.2,11.8-3.4,1.2-.7,2.1-1.5,2.8-2.2.6-.7,1.1-1.5,1.5-2.4-3.7,2.8-9.2,4.6-13.1,4.9,0,0,0,0,0,0"/>
          <path class="cls-7" d="M40.8,31.7c0-.1,0-.2,0-.3,0-1.6.4-12.1-.8-14.2-.4-.5-.8-1-1.3-1.4-.3-.2-.6-.5-.9-.7-2.3-1.5-5.6-2.2-8.5-2.6-.2,0-.3,0-.5,0-1.6-.2-3.2-.2-4.4-.2-.4,0-1.9,0-2.3,0-3.4,0-9.5.4-13.3,2.8-4,2.4-2.2,12.8-2.3,13.6,0,.6-.1,1.3-.1,1.9.4,1.8,1.2,3.9,2.5,5.2.8.8,1.9,1.6,3.2,2.3,4,2.4,10.3,3.6,14.5,3.1,0,0,0,0,0,0,3.9-.3,9.4-2.1,13.1-4.9.3-.8.5-1.6.7-2.4.2-.8.3-1.5.3-2.3"/>
          <path class="cls-3" d="M34.2,27.9c-2.5,1-7.3,1-11.1,1s-8.6,0-11.1-1c-2.5-1-3.5-7.3-2.4-9.4,1.1-2.1,7.6-3.5,13.5-3.5s12.4,1.4,13.5,3.5c1.1,2.1.1,8.4-2.4,9.4"/>
          <path class="cls-6" d="M29.4,7.9c-.6,0-1.1.5-1,1.1,0,.4.3.8.6,1l-.3,2.5c0,.1,0,.3.2.3,0,0,0,0,0,0,.1,0,.2,0,.2-.2l.3-2.5h0c.3,0,.6-.1.8-.3.2-.2.3-.5.3-.7h0c0-.3-.1-.6-.3-.8-.2-.2-.5-.3-.8-.3"/>
          <path class="cls-6" d="M32.3,7.3c-.1,0-.3,0-.3.1,0,.1,0,.3.1.3.2,0,.4.3.4.5,0,.3,0,.6-.2.9,0,.1,0,.3,0,.3,0,0,0,0,.1,0,0,0,.2,0,.2-.1.3-.4.4-.9.2-1.3-.1-.4-.4-.7-.7-.9"/>
          <path class="cls-6" d="M34.8,7.6c-.2-.6-.6-1.1-1.1-1.3-.1,0-.3,0-.3.1,0,.1,0,.3.1.3.4.2.7.5.8,1,.1.5,0,1.1-.3,1.6,0,.1,0,.3,0,.3,0,0,0,0,.1,0,0,0,.2,0,.2-.1.4-.6.6-1.3.4-2"/>
          <path class="cls-6" d="M26.5,6.5c-.4,0-.7.4-.9.7-.2.4-.2.9,0,1.3,0,0,.1.1.2.1s0,0,0,0c.1,0,.2-.2.1-.3-.1-.3-.1-.6,0-.9.1-.2.3-.4.5-.5.1,0,.2-.2.2-.3,0-.1-.2-.2-.3-.2"/>
          <path class="cls-6" d="M25.6,5.5c0-.1-.2-.2-.3-.2-.5.1-1,.5-1.3,1.1-.3.6-.3,1.4,0,2,0,0,.1.1.2.1s0,0,0,0c.1,0,.2-.2.1-.3-.3-.6-.3-1.1,0-1.6.2-.4.6-.7,1-.8.1,0,.2-.2.2-.3"/>
          <path class="cls-6" d="M25.9,21.2l-5.7.6c-.7,0-1.2.8-.9,1.5,1.8,4.2,6.4,4,7.7-.7.2-.7-.4-1.4-1.1-1.3"/>
          <path class="cls-6" d="M17.5,18.8c0,.6-.5,1-1,1s-1-.5-1-1,.5-1,1-1,1,.5,1,1"/>
          <path class="cls-6" d="M31.8,18.8c0,.6-.5,1-1,1s-1-.5-1-1,.5-1,1-1,1,.5,1,1"/>
        </g>
      </g>
    </g>
  </g>
</svg>