<?xml version="1.0" encoding="UTF-8"?>
<svg id="_圖層_1" data-name="圖層_1" xmlns="http://www.w3.org/2000/svg" version="1.1" xmlns:xlink="http://www.w3.org/1999/xlink" viewBox="0 0 47.1 47.1">
  <!-- Generator: Adobe Illustrator 29.3.1, SVG Export Plug-In . SVG Version: 2.1.0 Build 151)  -->
  <defs>
    <style>
      .st0 {
        fill: none;
        stroke: #fff;
        stroke-width: 3px;
      }

      .st1 {
        fill: #fff;
      }

      .st2 {
        fill: #dbdad5;
      }

      .st3 {
        fill: #09886a;
      }

      .st4 {
        fill: #6bb8a6;
      }

      .st5 {
        fill: #006d58;
      }

      .st6 {
        fill: #fff000;
      }

      .st7 {
        fill: #9e9e9f;
      }
    </style>
  </defs>
  <circle class="st4" cx="23.5" cy="23.5" r="22"/>
  <circle class="st0" cx="23.5" cy="23.5" r="22"/>
  <g>
    <path class="st1" d="M-73.9,29.4c.2-.6,0-1.3-.4-1.8-1.4-1.5-2.8-3-4.4-4.4.7-.1,1.4-.5,1.8-1.1h0c1.1-1.4,1-3.4-.4-4.6h0l-7-6c-1.3-1.1-3.3-1-4.5.4h-.1c-.5.7-.8,1.6-.7,2.4h0l-.9-.7c-1-.7-1.9-1.4-2.8-2l-3.3,4.5.3.3,1.5,1.2h-3c-1.7,0-3,1.4-3,3.1s0,.7.2,1c.1.2.2.5.4.7h.1v.2q0,.1-.1.1t-.2.1c-.9.5-1.5,1.5-1.4,2.6,0,.8.2,1.5.8,2.1.2.2.4.3.6.5h.3c0,.1.2.2.2.2v.2c-.1,0-.3.2-.3.2-.3.5-.4,1-.4,1.5,0,.8.3,1.5.9,2.1.5.5,1.2.8,2,.9,0,.2-.1.3-.2.5-.2.4-.3.9-.3,1.3,0,.8.3,1.5.9,2.1.6.5,1.3.8,2.1.8h10.6c.9,0,1.7-.4,2.3-1s.8-1.3.8-2-.4-1.4-.9-1.9c-.1,0-.2-.2-.4-.3.8-.5,1.2-1.4,1.2-2.4s-.3-1.5-.9-2.1-.2-.2-.4-.3c.3-.2.5-.4.7-.6,1.8,1.3,3.8,2.4,5.8,3.4.3.1.5.2.8.2s.8-.1,1.1-.4l.8.6.7-.9-1-.7ZM-81.9,21.4h0c0,.1-.1.2-.1.2,0,.1-.1.1-.1.2h-.2c0,0-.2.3-.2.3h0c-.3.2-.6.3-1,.3h-8.9v1.2h5.2c1.3,1,2.7,1.9,4,2.8-.4.4-.9.7-1.4.6h-7.7v1.2h7.7c.5,0,.9.3,1.3.6.3.3.5.8.5,1.3,0,.9-.8,1.7-1.7,1.7h-7.8v1.1h7.7c.5,0,.9.3,1.3.6.3.3.5.7.5,1.2s-.1.9-.4,1.2c-.4.4-.9.6-1.5.6h-10.7c-.5,0-.9,0-1.3-.4-.5-.5-.7-1.3-.3-2,.3-.5.4-1,.2-1.5-.1-.3-.4-.6-.8-.7h-.2c-.5,0-.9-.2-1.3-.5-.3-.3-.5-.8-.5-1.3s.1-.6.2-.9h.1c.2-.4.9-1,.4-1.6-.2-.3-.5-.5-.8-.6h0c-.1-.2-.3-.3-.4-.4-.3-.4-.4-.8-.4-1.3s.3-1.2.9-1.6c.2-.1.4-.3.6-.5.2-.2.2-.5.2-.8s0-.3-.1-.5c-.1-.1-.1-.3-.2-.4-.1-.1-.2-.3-.2-.4-.1-.1-.1-.3-.1-.5,0-1,.8-1.8,1.8-1.9h14.2c.5.1.9.3,1.3.6.3.3.5.8.5,1.3s0,.5-.2.8h0ZM-80.3,21.8l-.4-.3h0c.1-.3.1-.6.1-.9,0-.8-.3-1.5-.9-2.1-.5-.6-1.3-1-2.1-1h-1.9l-2-1.8c-.8-.7-.9-2-.2-2.8h.1c.7-.9,2-1,2.8-.3l7,6c.8.7.9,1.9.2,2.8h0c-.7.8-1.7.9-2.6.4h0Z"/>
    <path class="st1" d="M-94.1,11.2c-.9-.6-1.8-1.2-2.6-1.7-.9-.5-2.1-.3-2.8.4-.5.4-.7,1-.7,1.6s.2,1.3.7,1.7c.7.7,1.4,1.4,2.2,2l3.2-4Z"/>
  </g>
  <g>
    <g>
      <path class="st3" d="M8.3,28.9c-.5-.2-1-.5-1.3-.8-.9-.8-1.4-1.9-1.4-3.2,0-1.2.6-2.4,1.6-3.1.3-.2.6-.4.9-.5,2.7,3.9.2,7.6.2,7.6Z"/>
      <path class="st5" d="M8.3,28.9c-.5-.2-1-.5-1.3-.8,0-.9.2-1.9.2-3,0-1.1,0-2.2,0-3.3.3-.2.6-.4.9-.5,0,2.5.1,5.1.2,7.6Z"/>
    </g>
    <g>
      <path class="st7" d="M24.1,18.1c-.7,0-1.4.3-2,1h0c-.3.3-.5.7-.7,1.1-.6,1.2-.9,3-.9,5.4s.2,3.6.5,5.7c.8,5,2.2,10.3,3.1,10.3s2.4-5.4,3.1-10.5c.3-2,.5-4,.5-5.5,0-5.3-1.6-7.5-3.6-7.5Z"/>
      <path class="st7" d="M40,25.1c0,3.6-1.3,7.2-4.3,8.8-2.9,1.7-8,1.6-11.8,1.6-3.8,0-8.9.2-11.8-1.6-3.1-1.6-4-5.1-3.6-8.6-.4-3.6.6-7.1,3.6-8.6,2.9-1.7,8-1.6,11.8-1.6,3.8,0,8.9-.2,11.8,1.6,3.1,1.6,4.4,4.7,4.3,8.5Z"/>
    </g>
    <path class="st2" d="M23.3,17.3c-.7,0-1.4.3-2,1h0c-.3.3-.5.7-.7,1.1h0c-.6,1.2-.9,3-.9,5.4s.2,3.6.5,5.7c.8,5,2.2,10.3,3.1,10.3s2.4-5.4,3.1-10.5c.3-2,.5-4,.5-5.5,0-5.3-1.6-7.5-3.6-7.5ZM23.4,32.8c-.2,0-.4-.4-.4-1s.2-1,.4-1,.4.4.4,1-.2,1-.4,1ZM25.9,28.9c-.6.6-1.7.6-2.6.6s-2,0-2.6-.6c-.6-.6-.8-4.5-.6-5.7.3-1.3,1.8-2.1,3.1-2.1s2.9.9,3.1,2.1c.3,1.3,0,5.1-.6,5.7Z"/>
    <path class="st2" d="M38.5,24.5c0,3.7-.6,7.1-3.6,8.6-2.9,1.7-8,1.6-11.8,1.6-3.8,0-8.9.2-11.8-1.6-3.1-1.6-3.7-5-3.6-8.6,0-4,.6-7.1,3.6-8.6,2.9-1.7,8-1.6,11.8-1.6,3.8,0,8.9-.2,11.8,1.6,3.1,1.6,3.6,4.7,3.6,8.6Z"/>
    <path class="st3" d="M34.9,24.6c0,4.4-2.7,8-6.1,8h-11.1c-3.4,0-6.1-3.6-6.1-8h0c0-4.4,2.7-8,6.1-8h11.1c3.4,0,6.1,3.6,6.1,8h0Z"/>
    <path class="st6" d="M25.5,27.4c0,1.2-1,2.2-2.2,2.2s-2.2-1-2.2-2.2h4.4Z"/>
    <g>
      <g>
        <path class="st3" d="M19.7,11.3s0,0,0,0c-1.1-.6-1.8-1.7-1.8-2.9s.6-2.2,1.6-2.8c0,0,.2,0,.3,0,0,0,0,.2,0,.3-.9.5-1.4,1.5-1.4,2.5s.6,2.1,1.5,2.6c0,0,.1.2,0,.3,0,0-.1.1-.2.1Z"/>
        <path class="st3" d="M20,10.1s0,0-.1,0c-.5-.5-.8-1.1-.8-1.7s.3-1.2.8-1.7c0,0,.2,0,.3,0,0,0,0,.2,0,.3-.5.4-.7.9-.7,1.4s.2,1,.7,1.4c0,0,0,.2,0,.3,0,0,0,0-.1,0Z"/>
      </g>
      <g>
        <path class="st3" d="M26.6,11.3s0,0,0,0c1.1-.6,1.8-1.7,1.8-2.9s-.6-2.2-1.6-2.8c0,0-.2,0-.3,0,0,0,0,.2,0,.3.9.5,1.4,1.5,1.4,2.5s-.6,2.1-1.5,2.6c0,0-.1.2,0,.3,0,0,.1.1.2.1Z"/>
        <path class="st3" d="M26.3,10.1s0,0,.1,0c.5-.5.8-1.1.8-1.7s-.3-1.2-.8-1.7c0,0-.2,0-.3,0,0,0,0,.2,0,.3.5.4.7.9.7,1.4s-.2,1-.7,1.4c0,0,0,.2,0,.3,0,0,0,0,.1,0Z"/>
      </g>
      <path class="st3" d="M24.1,14.2c0,.5-.4.8-.8.8h0c-.5,0-.8-.4-.8-.8l.5-4.4c0-.5-.2-.8.3-.8h0c.5,0,.3.4.3.8l.5,4.4Z"/>
      <rect class="st3" x="21.4" y="6.5" width="3.7" height="3.7" rx="1.7" ry="1.7"/>
    </g>
    <path class="st6" d="M20,23.7c0,.5-.4.9-.9.9h0c-.5,0-.9-.4-.9-.9v-2.3c0-.5.4-.9.9-.9h0c.5,0,.9.4.9.9v2.3Z"/>
    <path class="st6" d="M27.9,23.7c0,.5-.4.9-.9.9h0c-.5,0-.9-.4-.9-.9v-2.3c0-.5.4-.9.9-.9h0c.5,0,.9.4.9.9v2.3Z"/>
    <g>
      <path class="st3" d="M40.2,22.5c0,.9-.2,1.9-.2,3,0,1.1,0,2.2,0,3.3,1-.7,1.6-1.9,1.6-3.1,0-1.2-.5-2.4-1.4-3.2Z"/>
      <path class="st5" d="M40.2,22.5c-.2-.2-.3-.3-.5-.4-.2-.1-1.4,3.3-.1,7,.3-.1.2,0,.4-.3,0-1,0-2.1,0-3.3,0-1,.1-2,.2-3Z"/>
    </g>
  </g>
</svg>